SplineFontDB: 3.0
FontName: Tanha-Bold
FullName: Tanha Bold
FamilyName: Tanha
Weight: Bold
Copyright: Copyright (c) 2003 by Bitstream, Inc. All Rights Reserved.\nCopyright (c) 2006 by Tavmjong Bah. All Rights Reserved.\nDejaVu changes are in public domain\nCopyright (c) 2015 by Saber Rastikerdar. All Rights Reserved.
Version: 0.1
ItalicAngle: 0
UnderlinePosition: -100
UnderlineWidth: 100
Ascent: 1536
Descent: 512
LayerCount: 2
Layer: 0 1 "Back"  1
Layer: 1 1 "Fore"  0
XUID: [1021 502 1027637223 5989987]
UniqueID: 4105529
FSType: 0
OS2Version: 1
OS2_WeightWidthSlopeOnly: 0
OS2_UseTypoMetrics: 1
CreationTime: 1431850356
ModificationTime: 1446900238
PfmFamily: 33
TTFWeight: 700
TTFWidth: 5
LineGap: 0
VLineGap: 0
Panose: 2 11 6 3 3 8 4 2 2 4
OS2TypoAscent: 2250
OS2TypoAOffset: 0
OS2TypoDescent: -750
OS2TypoDOffset: 0
OS2TypoLinegap: 0
OS2WinAscent: 2250
OS2WinAOffset: 0
OS2WinDescent: 750
OS2WinDOffset: 0
HheadAscent: 2250
HheadAOffset: 0
HheadDescent: -750
HheadDOffset: 0
OS2SubXSize: 1331
OS2SubYSize: 1433
OS2SubXOff: 0
OS2SubYOff: 286
OS2SupXSize: 1331
OS2SupYSize: 1433
OS2SupXOff: 0
OS2SupYOff: 983
OS2StrikeYSize: 102
OS2StrikeYPos: 530
OS2Vendor: 'PfEd'
OS2CodePages: 600001ff.dfff0000
Lookup: 1 0 0 "'case' Case-Sensitive Forms in Latin lookup 0"  {"'case' Case-Sensitive Forms in Latin lookup 0 subtable"  } ['case' ('DFLT' <'dflt' > 'latn' <'CAT ' 'ESP ' 'GAL ' 'dflt' > ) ]
Lookup: 6 1 0 "'ccmp' Glyph Composition/Decomposition lookup 2"  {"'ccmp' Glyph Composition/Decomposition lookup 2 subtable"  } ['ccmp' ('arab' <'KUR ' 'SND ' 'URD ' 'dflt' > 'hebr' <'dflt' > 'nko ' <'dflt' > ) ]
Lookup: 6 0 0 "'ccmp' Glyph Composition/Decomposition lookup 3"  {"'ccmp' Glyph Composition/Decomposition lookup 3 subtable"  } ['ccmp' ('cyrl' <'MKD ' 'SRB ' 'dflt' > 'grek' <'dflt' > 'latn' <'ISM ' 'KSM ' 'LSM ' 'MOL ' 'NSM ' 'ROM ' 'SKS ' 'SSM ' 'dflt' > ) ]

StartChar: exclam
Encoding: 33 33 1
Width: 877
GlyphClass: 2
Flags: W
LayerCount: 2
Fore
SplineSet
269.78 1403.42 m 1,0,-1
 608.18 1403.42 l 1,1,-1
 608.18 864.8 l 1,2,-1
 560.24 471.88 l 1,3,-1
 317.72 471.88 l 1,4,-1
 269.78 864.8 l 1,5,-1
 269.78 1403.42 l 1,0,-1
269.78 334.64 m 1,6,-1
 608.18 334.64 l 1,7,-1
 608.18 1.46484e-05 l 1,8,-1
 269.78 1.46484e-05 l 1,9,-1
 269.78 334.64 l 1,6,-1
EndSplineSet
EndChar

StartChar: quotedbl
Encoding: 34 34 2
Width: 1002
GlyphClass: 2
Flags: W
LayerCount: 2
Fore
SplineSet
819.68 1403.42 m 1,0,-1
 819.68 881.72 l 1,1,-1
 596.9 881.72 l 1,2,-1
 596.9 1403.42 l 1,3,-1
 819.68 1403.42 l 1,0,-1
406.08 1403.42 m 1,4,-1
 406.08 881.72 l 1,5,-1
 183.3 881.72 l 1,6,-1
 183.3 1403.42 l 1,7,-1
 406.08 1403.42 l 1,4,-1
EndSplineSet
EndChar

StartChar: numbersign
Encoding: 35 35 3
Width: 1613
GlyphClass: 2
Flags: W
LayerCount: 2
Fore
SplineSet
856.34 1381.8 m 1,0,-1
 766.1 1019.9 l 1,1,-1
 1014.26 1019.9 l 1,2,-1
 1105.44 1381.8 l 1,3,-1
 1313.18 1381.8 l 1,4,-1
 1222 1019.9 l 1,5,-1
 1482.38 1019.9 l 1,6,-1
 1482.38 819.68 l 1,7,-1
 1172.18 819.68 l 1,8,-1
 1107.32 562.12 l 1,9,-1
 1374.28 562.12 l 1,10,-1
 1374.28 360.02 l 1,11,-1
 1058.44 360.02 l 1,12,-1
 968.2 5.00488e-05 l 1,13,-1
 760.46 5.00488e-05 l 1,14,-1
 850.7 360.02 l 1,15,-1
 602.54 360.02 l 1,16,-1
 512.3 5.00488e-05 l 1,17,-1
 302.68 5.00488e-05 l 1,18,-1
 392.92 360.02 l 1,19,-1
 130.66 360.02 l 1,20,-1
 130.66 562.12 l 1,21,-1
 438.98 562.12 l 1,22,-1
 504.78 819.68 l 1,23,-1
 238.76 819.68 l 1,24,-1
 238.76 1019.9 l 1,25,-1
 556.48 1019.9 l 1,26,-1
 646.72 1381.8 l 1,27,-1
 856.34 1381.8 l 1,0,-1
962.56 819.68 m 1,28,-1
 714.4 819.68 l 1,29,-1
 648.6 562.12 l 1,30,-1
 896.76 562.12 l 1,31,-1
 962.56 819.68 l 1,28,-1
EndSplineSet
EndChar

StartChar: dollar
Encoding: 36 36 4
Width: 1339
GlyphClass: 2
Flags: W
LayerCount: 2
Fore
SplineSet
747.3 -282.94 m 1,0,-1
 595.02 -282.94 l 1,1,-1
 594.08 -2.44141e-06 l 1,2,3
 476.58 4.7002 476.58 4.7002 366.6 26.3203 c 128,-1,4
 256.62 47.9404 256.62 47.9404 152.28 86.4805 c 1,5,-1
 152.28 332.76 l 1,6,7
 260.38 277.301 260.38 277.301 370.83 247.69 c 128,-1,8
 481.28 218.08 481.28 218.08 595.02 214.32 c 1,9,-1
 595.02 506.66 l 1,10,-1
 564 512.3 l 1,11,12
 339.34 551.78 339.34 551.78 244.87 636.38 c 128,-1,13
 150.4 720.982 150.4 720.982 150.4 879.841 c 0,14,15
 150.4 1048.1 150.4 1048.1 265.55 1142.57 c 128,-1,16
 380.7 1237.04 380.7 1237.04 594.08 1245.5 c 1,17,-1
 595.02 1462.64 l 1,18,-1
 747.3 1462.64 l 1,19,-1
 747.3 1249.26 l 1,20,21
 841.3 1241.74 841.3 1241.74 935.3 1225.76 c 128,-1,22
 1029.3 1209.78 1029.3 1209.78 1124.24 1184.4 c 1,23,-1
 1124.24 945.642 l 1,24,25
 1030.24 985.122 1030.24 985.122 936.24 1007.21 c 128,-1,26
 842.24 1029.3 842.24 1029.3 747.3 1034 c 1,27,-1
 747.3 764.221 l 1,28,-1
 777.38 758.581 l 1,29,30
 1016.14 720.982 1016.14 720.982 1112.49 633.091 c 128,-1,31
 1208.84 545.201 1208.84 545.201 1208.84 373.181 c 0,32,33
 1208.84 200.221 1208.84 200.221 1094.16 107.631 c 128,-1,34
 979.48 15.0411 979.48 15.0411 747.3 1.88148 c 1,35,-1
 747.3 -282.94 l 1,0,-1
595.02 785.84 m 1,36,-1
 595.02 1031.18 l 1,37,38
 528.28 1027.42 528.28 1027.42 488.33 994.99 c 128,-1,39
 448.38 962.56 448.38 962.56 448.38 912.74 c 0,40,41
 448.38 857.28 448.38 857.28 485.04 825.79 c 128,-1,42
 521.7 794.3 521.7 794.3 595.02 785.84 c 1,36,-1
747.3 479.4 m 1,43,-1
 747.3 218.08 l 1,44,45
 829.08 219.02 829.08 219.02 869.97 250.04 c 128,-1,46
 910.86 281.06 910.86 281.06 910.86 343.1 c 0,47,48
 910.86 407.02 910.86 407.02 873.26 438.51 c 128,-1,49
 835.66 470 835.66 470 747.3 479.4 c 1,43,-1
EndSplineSet
EndChar

StartChar: percent
Encoding: 37 37 5
Width: 1928
GlyphClass: 2
Flags: W
LayerCount: 2
Fore
SplineSet
1491.78 579.04 m 128,-1,1
 1425.04 579.04 1425.04 579.04 1388.38 521.23 c 128,-1,2
 1351.72 463.42 1351.72 463.42 1351.72 356.26 c 0,3,4
 1351.72 248.16 1351.72 248.16 1387.91 190.35 c 128,-1,5
 1424.1 132.54 1424.1 132.54 1491.78 132.54 c 128,-1,6
 1559.46 132.54 1559.46 132.54 1595.18 190.35 c 128,-1,7
 1630.9 248.16 1630.9 248.16 1630.9 356.26 c 0,8,9
 1630.9 463.42 1630.9 463.42 1594.71 521.23 c 128,-1,0
 1558.52 579.04 1558.52 579.04 1491.78 579.04 c 128,-1,1
1491.78 736.96 m 128,-1,11
 1666.62 736.96 1666.62 736.96 1767.2 635.44 c 128,-1,12
 1867.78 533.92 1867.78 533.92 1867.78 356.26 c 128,-1,13
 1867.78 178.6 1867.78 178.6 1767.2 75.67 c 128,-1,14
 1666.62 -27.26 1666.62 -27.26 1491.78 -27.26 c 128,-1,15
 1316.94 -27.26 1316.94 -27.26 1215.89 75.67 c 128,-1,16
 1114.84 178.6 1114.84 178.6 1114.84 356.26 c 0,17,18
 1114.84 532.98 1114.84 532.98 1215.89 634.97 c 128,-1,10
 1316.94 736.96 1316.94 736.96 1491.78 736.96 c 128,-1,11
629.8 -27.2598 m 1,19,-1
 422.06 -27.2598 l 1,20,-1
 1299.08 1428.8 l 1,21,-1
 1507.76 1428.8 l 1,22,-1
 629.8 -27.2598 l 1,19,-1
437.1 1428.8 m 128,-1,24
 611.94 1428.8 611.94 1428.8 712.05 1326.81 c 128,-1,25
 812.16 1224.82 812.16 1224.82 812.16 1047.16 c 128,-1,26
 812.16 869.5 812.16 869.5 712.05 767.04 c 128,-1,27
 611.94 664.58 611.94 664.58 437.1 664.58 c 128,-1,28
 262.26 664.58 262.26 664.58 162.15 767.04 c 128,-1,29
 62.04 869.5 62.04 869.5 62.04 1047.16 c 128,-1,30
 62.04 1224.82 62.04 1224.82 162.15 1326.81 c 128,-1,23
 262.26 1428.8 262.26 1428.8 437.1 1428.8 c 128,-1,24
437.1 1270.88 m 0,31,32
 369.42 1270.88 369.42 1270.88 332.76 1212.6 c 128,-1,33
 296.1 1154.32 296.1 1154.32 296.1 1047.16 c 0,34,35
 296.1 939.06 296.1 939.06 332.76 880.31 c 128,-1,36
 369.42 821.56 369.42 821.56 437.1 821.56 c 128,-1,37
 504.78 821.56 504.78 821.56 540.97 880.31 c 128,-1,38
 577.16 939.06 577.16 939.06 577.16 1047.16 c 0,39,40
 577.16 1154.32 577.16 1154.32 540.5 1212.6 c 128,-1,41
 503.84 1270.88 503.84 1270.88 437.1 1270.88 c 0,31,32
EndSplineSet
EndChar

StartChar: ampersand
Encoding: 38 38 6
Width: 1678
GlyphClass: 2
Flags: W
LayerCount: 2
Fore
SplineSet
751.06 931.54 m 2,0,-1
 1135.52 508.54 l 1,1,2
 1185.34 574.34 1185.34 574.34 1211.19 656.12 c 128,-1,3
 1237.04 737.9 1237.04 737.9 1241.74 841.3 c 1,4,-1
 1534.08 841.3 l 1,5,6
 1519.98 670.22 1519.98 670.22 1467.81 536.74 c 128,-1,7
 1415.64 403.26 1415.64 403.26 1322.58 302.68 c 1,8,-1
 1598 -7.32422e-06 l 1,9,-1
 1199.44 -7.32422e-06 l 1,10,-1
 1107.32 102.46 l 1,11,12
 1008.62 36.6602 1008.62 36.6602 899.58 4.70019 c 128,-1,13
 790.54 -27.2598 790.54 -27.2598 668.34 -27.2598 c 0,14,15
 421.12 -27.2598 421.12 -27.2598 268.37 102.93 c 128,-1,16
 115.62 233.12 115.62 233.12 115.62 438.98 c 0,17,18
 115.62 576.22 115.62 576.22 182.83 681.97 c 128,-1,19
 250.04 787.72 250.04 787.72 402.32 887.36 c 1,20,21
 362.84 937.18 362.84 937.18 344.04 987 c 128,-1,22
 325.24 1036.82 325.24 1036.82 325.24 1091.34 c 0,23,24
 325.24 1244.56 325.24 1244.56 444.62 1336.68 c 128,-1,25
 564 1428.8 564 1428.8 762.34 1428.8 c 0,26,27
 847.88 1428.8 847.88 1428.8 940.47 1415.17 c 128,-1,28
 1033.06 1401.54 1033.06 1401.54 1133.64 1374.28 c 1,29,-1
 1133.64 1112.96 l 1,30,31
 1045.28 1158.08 1045.28 1158.08 966.32 1179.7 c 128,-1,32
 887.36 1201.32 887.36 1201.32 812.16 1201.32 c 0,33,34
 739.78 1201.32 739.78 1201.32 699.83 1173.59 c 128,-1,35
 659.88 1145.86 659.88 1145.86 659.88 1095.1 c 0,36,37
 659.88 1063.14 659.88 1063.14 682.91 1022.25 c 128,-1,38
 705.94 981.36 705.94 981.36 751.06 931.54 c 2,0,-1
564 698.42 m 1,39,40
 502.9 654.24 502.9 654.24 471.88 598.31 c 128,-1,41
 440.86 542.38 440.86 542.38 440.86 475.64 c 0,42,43
 440.86 367.54 440.86 367.54 520.76 291.4 c 128,-1,44
 600.66 215.26 600.66 215.26 712.52 215.26 c 0,45,46
 775.5 215.26 775.5 215.26 830.02 234.53 c 128,-1,47
 884.54 253.8 884.54 253.8 931.54 292.34 c 1,48,-1
 564 698.42 l 1,39,40
EndSplineSet
EndChar

StartChar: quotesingle
Encoding: 39 39 7
Width: 589
GlyphClass: 2
Flags: W
LayerCount: 2
Fore
SplineSet
406.08 1403.42 m 1,0,-1
 406.08 881.72 l 1,1,-1
 183.3 881.72 l 1,2,-1
 183.3 1403.42 l 1,3,-1
 406.08 1403.42 l 1,0,-1
EndSplineSet
EndChar

StartChar: parenleft
Encoding: 40 40 8
Width: 879
GlyphClass: 2
Flags: W
GlyphCompositionVertical: 3  uni239D%0,0,44,2703 uni239C%1,44,44,2731 uni239B%0,44,0,2740
LayerCount: 2
Fore
SplineSet
725.68 -253.8 m 1,0,-1
 446.5 -253.8 l 1,1,2
 302.68 -21.62 302.68 -21.62 234.06 187.53 c 128,-1,3
 165.44 396.68 165.44 396.68 165.44 602.54 c 128,-1,4
 165.44 808.4 165.44 808.4 234.53 1019.43 c 128,-1,5
 303.62 1230.46 303.62 1230.46 446.5 1460.76 c 1,6,-1
 725.68 1460.76 l 1,7,8
 605.36 1237.98 605.36 1237.98 545.2 1025.07 c 128,-1,9
 485.04 812.16 485.04 812.16 485.04 604.42 c 128,-1,10
 485.04 396.68 485.04 396.68 544.73 183.3 c 128,-1,11
 604.42 -30.08 604.42 -30.08 725.68 -253.8 c 1,0,-1
EndSplineSet
EndChar

StartChar: parenright
Encoding: 41 41 9
Width: 879
GlyphClass: 2
Flags: W
GlyphCompositionVertical: 3  uni23A0%0,0,44,2703 uni239F%1,44,44,2731 uni239E%0,44,0,2740
LayerCount: 2
Fore
SplineSet
154.16 -253.8 m 0,0,1
 274.48 -30.08 274.48 -30.08 334.64 183.3 c 128,-1,2
 394.8 396.68 394.8 396.68 394.8 604.42 c 128,-1,3
 394.8 812.16 394.8 812.16 334.64 1025.07 c 128,-1,4
 274.48 1237.98 274.48 1237.98 154.16 1460.76 c 1,5,-1
 433.34 1460.76 l 1,6,7
 576.22 1230.46 576.22 1230.46 645.31 1019.43 c 128,-1,8
 714.4 808.4 714.4 808.4 714.4 602.54 c 128,-1,9
 714.4 396.68 714.4 396.68 645.78 187.53 c 128,-1,10
 577.16 -21.6201 577.16 -21.6201 433.34 -253.8 c 1,11,-1
 154.16 -253.8 l 0,0,1
EndSplineSet
EndChar

StartChar: asterisk
Encoding: 42 42 10
Width: 1006
GlyphClass: 2
Flags: W
LayerCount: 2
Fore
SplineSet
968.2 1143.98 m 1,0,-1
 658 981.36 l 1,1,-1
 968.2 817.8 l 1,2,-1
 896.76 685.26 l 1,3,-1
 583.74 858.22 l 1,4,-1
 583.74 534.86 l 1,5,-1
 423.94 534.86 l 1,6,-1
 423.94 858.22 l 1,7,-1
 109.98 685.26 l 1,8,-1
 38.54 817.8 l 1,9,-1
 352.5 981.36 l 1,10,-1
 38.54 1143.98 l 1,11,-1
 109.98 1276.52 l 1,12,-1
 423.94 1105.44 l 1,13,-1
 423.94 1428.8 l 1,14,-1
 583.74 1428.8 l 1,15,-1
 583.74 1105.44 l 1,16,-1
 896.76 1276.52 l 1,17,-1
 968.2 1143.98 l 1,0,-1
EndSplineSet
EndChar

StartChar: plus
Encoding: 43 43 11
Width: 1613
GlyphClass: 2
Flags: W
LayerCount: 2
Fore
SplineSet
918.38 1206.96 m 1,0,-1
 918.38 714.4 l 1,1,-1
 1409.06 714.4 l 1,2,-1
 1409.06 492.56 l 1,3,-1
 918.38 492.56 l 1,4,-1
 918.38 -3.2959e-05 l 1,5,-1
 694.66 -3.2959e-05 l 1,6,-1
 694.66 492.56 l 1,7,-1
 203.98 492.56 l 1,8,-1
 203.98 714.4 l 1,9,-1
 694.66 714.4 l 1,10,-1
 694.66 1206.96 l 1,11,-1
 918.38 1206.96 l 1,0,-1
EndSplineSet
EndChar

StartChar: comma
Encoding: 44 44 12
Width: 731
GlyphClass: 2
Flags: W
LayerCount: 2
Fore
SplineSet
196.46 363.78 m 1,0,-1
 534.86 363.78 l 1,1,-1
 534.86 77.08 l 1,2,-1
 302.68 -273.54 l 1,3,-1
 102.46 -273.54 l 1,4,-1
 196.46 77.08 l 1,5,-1
 196.46 363.78 l 1,0,-1
EndSplineSet
EndChar

StartChar: hyphen
Encoding: 45 45 13
Width: 799
GlyphClass: 2
Flags: W
LayerCount: 2
Fore
SplineSet
104.34 690.9 m 1,0,-1
 694.66 690.9 l 1,1,-1
 694.66 417.36 l 1,2,-1
 104.34 417.36 l 1,3,-1
 104.34 690.9 l 1,0,-1
EndSplineSet
EndChar

StartChar: period
Encoding: 46 46 14
Width: 731
GlyphClass: 2
Flags: W
LayerCount: 2
Fore
SplineSet
196.46 363.78 m 1,0,-1
 534.86 363.78 l 1,1,-1
 534.86 -1.2207e-06 l 1,2,-1
 196.46 -1.2207e-06 l 1,3,-1
 196.46 363.78 l 1,0,-1
EndSplineSet
EndChar

StartChar: slash
Encoding: 47 47 15
Width: 703
GlyphClass: 2
Flags: W
LayerCount: 2
Fore
SplineSet
494.44 1403.42 m 1,0,-1
 703.12 1403.42 l 1,1,-1
 207.74 -178.6 l 1,2,-1
 -9.76562e-06 -178.6 l 1,3,-1
 494.44 1403.42 l 1,0,-1
EndSplineSet
EndChar

StartChar: colon
Encoding: 58 58 16
Width: 769
GlyphClass: 2
Flags: W
LayerCount: 2
Fore
SplineSet
215.26 1052.8 m 1,0,-1
 554.6 1052.8 l 1,1,-1
 554.6 689.02 l 1,2,-1
 215.26 689.02 l 1,3,-1
 215.26 1052.8 l 1,0,-1
215.26 363.78 m 1,4,-1
 554.6 363.78 l 1,5,-1
 554.6 -1.2207e-06 l 1,6,-1
 215.26 -1.2207e-06 l 1,7,-1
 215.26 363.78 l 1,4,-1
EndSplineSet
EndChar

StartChar: semicolon
Encoding: 59 59 17
Width: 769
GlyphClass: 2
Flags: W
LayerCount: 2
Fore
SplineSet
215.26 363.78 m 1,0,-1
 554.6 363.78 l 1,1,-1
 554.6 77.08 l 1,2,-1
 321.48 -273.54 l 1,3,-1
 121.26 -273.54 l 1,4,-1
 215.26 77.08 l 1,5,-1
 215.26 363.78 l 1,0,-1
215.26 1052.8 m 1,6,-1
 554.6 1052.8 l 1,7,-1
 554.6 689.02 l 1,8,-1
 215.26 689.02 l 1,9,-1
 215.26 1052.8 l 1,6,-1
EndSplineSet
EndChar

StartChar: less
Encoding: 60 60 18
Width: 1613
GlyphClass: 2
Flags: W
LayerCount: 2
Fore
SplineSet
1409.06 914.62 m 1,0,-1
 502.9 602.54 l 1,1,-1
 1409.06 292.34 l 1,2,-1
 1409.06 57.34 l 1,3,-1
 203.98 492.56 l 1,4,-1
 203.98 714.4 l 1,5,-1
 1409.06 1149.62 l 1,6,-1
 1409.06 914.62 l 1,0,-1
EndSplineSet
EndChar

StartChar: equal
Encoding: 61 61 19
Width: 1613
GlyphClass: 2
Flags: W
GlyphCompositionHorizontal: 2  equal%0,0,44,1433 equal%1,44,0,1433
LayerCount: 2
Fore
SplineSet
203.98 927.78 m 1,0,-1
 1409.06 927.78 l 1,1,-1
 1409.06 706.88 l 1,2,-1
 203.98 706.88 l 1,3,-1
 203.98 927.78 l 1,0,-1
203.98 500.08 m 1,4,-1
 1409.06 500.08 l 1,5,-1
 1409.06 277.3 l 1,6,-1
 203.98 277.3 l 1,7,-1
 203.98 500.08 l 1,4,-1
EndSplineSet
EndChar

StartChar: greater
Encoding: 62 62 20
Width: 1613
GlyphClass: 2
Flags: W
LayerCount: 2
Fore
SplineSet
203.98 914.62 m 1,0,-1
 203.98 1149.62 l 1,1,-1
 1409.06 714.4 l 1,2,-1
 1409.06 492.56 l 1,3,-1
 203.98 57.34 l 1,4,-1
 203.98 292.34 l 1,5,-1
 1111.08 602.54 l 1,6,-1
 203.98 914.62 l 1,0,-1
EndSplineSet
EndChar

StartChar: question
Encoding: 63 63 21
Width: 1116
GlyphClass: 2
Flags: W
LayerCount: 2
Fore
SplineSet
666.46 473.76 m 1,0,-1
 327.12 473.76 l 1,1,-1
 327.12 519.82 l 2,2,3
 327.12 596.9 327.12 596.9 358.14 656.59 c 128,-1,4
 389.16 716.28 389.16 716.28 488.8 808.4 c 1,5,-1
 548.96 862.92 l 2,6,7
 602.54 911.8 602.54 911.8 627.45 955.04 c 128,-1,8
 652.36 998.28 652.36 998.28 652.36 1041.52 c 0,9,10
 652.36 1107.32 652.36 1107.32 607.24 1144.45 c 128,-1,11
 562.12 1181.58 562.12 1181.58 481.28 1181.58 c 0,12,13
 405.14 1181.58 405.14 1181.58 316.78 1150.09 c 128,-1,14
 228.42 1118.6 228.42 1118.6 132.54 1056.56 c 1,15,-1
 132.54 1351.72 l 1,16,17
 246.28 1391.2 246.28 1391.2 340.28 1410 c 128,-1,18
 434.28 1428.8 434.28 1428.8 521.7 1428.8 c 0,19,20
 751.06 1428.8 751.06 1428.8 871.38 1335.27 c 128,-1,21
 991.7 1241.74 991.7 1241.74 991.7 1062.2 c 0,22,23
 991.7 970.08 991.7 970.08 955.04 897.23 c 128,-1,24
 918.38 824.38 918.38 824.38 830.02 740.72 c 1,25,-1
 769.86 687.14 l 1,26,27
 705.94 628.86 705.94 628.86 686.2 593.61 c 128,-1,28
 666.46 558.36 666.46 558.36 666.46 516.06 c 2,29,-1
 666.46 473.76 l 1,0,-1
327.12 334.64 m 1,30,-1
 666.46 334.64 l 1,31,-1
 666.46 1.46484e-05 l 1,32,-1
 327.12 1.46484e-05 l 1,33,-1
 327.12 334.64 l 1,30,-1
EndSplineSet
EndChar

StartChar: at
Encoding: 64 64 22
Width: 1925
GlyphClass: 2
Flags: W
LayerCount: 2
Fore
SplineSet
781.14 506.66 m 0,0,1
 781.14 391.04 781.14 391.04 830.49 324.3 c 128,-1,2
 879.84 257.56 879.84 257.56 964.44 257.56 c 0,3,4
 1048.1 257.56 1048.1 257.56 1097.92 324.77 c 128,-1,5
 1147.74 391.98 1147.74 391.98 1147.74 506.66 c 0,6,7
 1147.74 620.4 1147.74 620.4 1097.45 686.67 c 128,-1,8
 1047.16 752.94 1047.16 752.94 962.56 752.94 c 0,9,10
 879.84 752.94 879.84 752.94 830.49 686.67 c 128,-1,11
 781.14 620.4 781.14 620.4 781.14 506.66 c 0,0,1
1166.54 223.72 m 1,12,13
 1138.34 156.98 1138.34 156.98 1075.83 119.85 c 128,-1,14
 1013.32 82.7197 1013.32 82.7197 929.66 82.7197 c 0,15,16
 767.98 82.7197 767.98 82.7197 666.93 199.75 c 128,-1,17
 565.88 316.78 565.88 316.78 565.88 504.78 c 128,-1,18
 565.88 692.78 565.88 692.78 667.4 810.28 c 128,-1,19
 768.92 927.78 768.92 927.78 929.66 927.78 c 0,20,21
 1013.32 927.78 1013.32 927.78 1075.83 890.18 c 128,-1,22
 1138.34 852.58 1138.34 852.58 1166.54 785.84 c 1,23,-1
 1166.54 908.98 l 1,24,-1
 1363 908.98 l 1,25,-1
 1363 257.56 l 1,26,27
 1479.56 275.42 1479.56 275.42 1546.3 369.89 c 128,-1,28
 1613.04 464.36 1613.04 464.36 1613.04 611.94 c 0,29,30
 1613.04 705.94 1613.04 705.94 1585.78 788.19 c 128,-1,31
 1558.52 870.44 1558.52 870.44 1503.06 939.06 c 1,32,33
 1413.76 1053.74 1413.76 1053.74 1279.81 1115.78 c 128,-1,34
 1145.86 1177.82 1145.86 1177.82 989.82 1177.82 c 0,35,36
 880.78 1177.82 880.78 1177.82 781.14 1149.15 c 128,-1,37
 681.5 1120.48 681.5 1120.48 596.9 1065.02 c 0,38,39
 457.78 972.9 457.78 972.9 380.23 826.73 c 128,-1,40
 302.68 680.56 302.68 680.56 302.68 510.42 c 0,41,42
 302.68 370.36 302.68 370.36 352.97 247.69 c 128,-1,43
 403.26 125.02 403.26 125.02 498.2 31.0187 c 0,44,45
 592.2 -61.1004 592.2 -61.1004 713.93 -109.511 c 128,-1,46
 835.66 -157.921 835.66 -157.921 973.84 -157.921 c 0,47,48
 1092.28 -157.921 1092.28 -157.921 1210.72 -113.741 c 128,-1,49
 1329.16 -69.5612 1329.16 -69.5612 1412.82 5.63869 c 1,50,-1
 1513.4 -146.641 l 1,51,52
 1395.9 -237.821 1395.9 -237.821 1257.25 -286.231 c 128,-1,53
 1118.6 -334.641 1118.6 -334.641 975.72 -334.641 c 0,54,55
 801.82 -334.641 801.82 -334.641 647.66 -273.071 c 128,-1,56
 493.5 -211.501 493.5 -211.501 373.18 -94.0013 c 128,-1,57
 252.86 23.4987 252.86 23.4987 189.88 178.129 c 128,-1,58
 126.9 332.759 126.9 332.759 126.9 510.419 c 0,59,60
 126.9 681.499 126.9 681.499 190.82 836.599 c 128,-1,61
 254.74 991.699 254.74 991.699 373.18 1109.2 c 0,62,63
 491.62 1225.76 491.62 1225.76 649.07 1289.68 c 128,-1,64
 806.52 1353.6 806.52 1353.6 975.72 1353.6 c 0,65,66
 1186.28 1353.6 1186.28 1353.6 1358.3 1273.23 c 128,-1,67
 1530.32 1192.86 1530.32 1192.86 1645.94 1041.52 c 0,68,69
 1716.44 949.399 1716.44 949.399 1752.63 841.769 c 128,-1,70
 1788.82 734.139 1788.82 734.139 1788.82 615.699 c 0,71,72
 1788.82 360.959 1788.82 360.959 1635.6 219.959 c 128,-1,73
 1482.38 78.9587 1482.38 78.9587 1203.2 78.9587 c 2,74,-1
 1166.54 78.9587 l 1,75,-1
 1166.54 223.72 l 1,12,13
EndSplineSet
EndChar

StartChar: bracketleft
Encoding: 91 91 23
Width: 879
GlyphClass: 2
Flags: W
GlyphCompositionVertical: 3  uni23A3%0,0,44,2703 uni23A2%1,44,44,2731 uni23A1%0,44,0,2699
LayerCount: 2
Fore
SplineSet
165.44 1462.64 m 1,0,-1
 749.18 1462.64 l 1,1,-1
 749.18 1251.14 l 1,2,-1
 485.04 1251.14 l 1,3,-1
 485.04 -42.3 l 1,4,-1
 749.18 -42.3 l 1,5,-1
 749.18 -253.8 l 1,6,-1
 165.44 -253.8 l 1,7,-1
 165.44 1462.64 l 1,0,-1
EndSplineSet
EndChar

StartChar: backslash
Encoding: 92 92 24
Width: 703
GlyphClass: 2
Flags: W
LayerCount: 2
Fore
SplineSet
494.44 -178.6 m 1,0,-1
 2.44141e-06 1403.42 l 1,1,-1
 207.74 1403.42 l 1,2,-1
 703.12 -178.6 l 1,3,-1
 494.44 -178.6 l 1,0,-1
EndSplineSet
EndChar

StartChar: bracketright
Encoding: 93 93 25
Width: 879
GlyphClass: 2
Flags: W
GlyphCompositionVertical: 3  uni23A6%0,0,44,2687 uni23A5%1,44,44,2713 uni23A4%0,44,0,2699
LayerCount: 2
Fore
SplineSet
714.4 -253.8 m 1,0,-1
 130.66 -253.8 l 1,1,-1
 130.66 -42.3 l 1,2,-1
 394.8 -42.3 l 1,3,-1
 394.8 1251.14 l 1,4,-1
 130.66 1251.14 l 1,5,-1
 130.66 1462.64 l 1,6,-1
 714.4 1462.64 l 1,7,-1
 714.4 -253.8 l 1,0,-1
EndSplineSet
EndChar

StartChar: asciicircum
Encoding: 94 94 26
Width: 1613
GlyphClass: 2
Flags: W
LayerCount: 2
Fore
SplineSet
922.14 1403.42 m 1,0,-1
 1418.46 879.84 l 1,1,-1
 1191.92 879.84 l 1,2,-1
 806.52 1162.78 l 1,3,-1
 422.06 879.84 l 1,4,-1
 194.58 879.84 l 1,5,-1
 690.9 1403.42 l 1,6,-1
 922.14 1403.42 l 1,0,-1
EndSplineSet
EndChar

StartChar: underscore
Encoding: 95 95 27
Width: 962
GlyphClass: 2
Flags: W
GlyphCompositionHorizontal: 2  underscore%0,0,44,1188 underscore%1,44,0,1188
LayerCount: 2
Fore
SplineSet
962.56 -275.42 m 1,0,-1
 962.56 -454.02 l 1,1,-1
 -2.44141e-06 -454.02 l 1,2,-1
 -2.44141e-06 -275.42 l 1,3,-1
 962.56 -275.42 l 1,0,-1
EndSplineSet
EndChar

StartChar: grave
Encoding: 96 96 28
Width: 962
GlyphClass: 2
Flags: W
LayerCount: 2
Fore
SplineSet
354.38 1539.72 m 1,0,-1
 619.46 1186.28 l 1,1,-1
 435.22 1186.28 l 1,2,-1
 88.36 1539.72 l 1,3,-1
 354.38 1539.72 l 1,0,-1
EndSplineSet
EndChar

StartChar: braceleft
Encoding: 123 123 29
Width: 1370
GlyphClass: 2
Flags: W
GlyphCompositionVertical: 5  uni23A9%0,0,44,2700 uni23AA%1,44,44,2742 uni23A8%0,44,44,2727 uni23AA%1,44,44,2742 uni23A7%0,44,0,2719
LayerCount: 2
Fore
SplineSet
1129.88 -102.46 m 1,0,-1
 1129.88 -313.96 l 1,1,-1
 925.9 -313.96 l 2,2,3
 720.98 -313.96 720.98 -313.96 626.98 -231.24 c 128,-1,4
 532.98 -148.52 532.98 -148.52 532.98 32.9 c 2,5,-1
 532.98 213.38 l 2,6,7
 532.98 354.38 532.98 354.38 482.22 409.37 c 128,-1,8
 431.46 464.36 431.46 464.36 297.98 464.36 c 2,9,-1
 240.64 464.36 l 1,10,-1
 240.64 673.98 l 1,11,-1
 297.98 673.98 l 2,12,13
 431.46 673.98 431.46 673.98 482.22 728.5 c 128,-1,14
 532.98 783.02 532.98 783.02 532.98 924.02 c 2,15,-1
 532.98 1116.72 l 2,16,17
 532.98 1298.14 532.98 1298.14 626.98 1380.39 c 128,-1,18
 720.98 1462.64 720.98 1462.64 925.9 1462.64 c 2,19,-1
 1129.88 1462.64 l 1,20,-1
 1129.88 1251.14 l 1,21,-1
 1065.02 1251.14 l 2,22,23
 932.48 1251.14 932.48 1251.14 892.53 1210.25 c 128,-1,24
 852.58 1169.36 852.58 1169.36 852.58 1035.88 c 2,25,-1
 852.58 879.84 l 2,26,27
 852.58 732.26 852.58 732.26 810.28 665.52 c 128,-1,28
 767.98 598.78 767.98 598.78 664.58 575.28 c 1,29,30
 768.92 549.9 768.92 549.9 810.75 483.16 c 128,-1,31
 852.58 416.42 852.58 416.42 852.58 269.78 c 2,32,-1
 852.58 113.74 l 2,33,34
 852.58 -20.68 852.58 -20.68 892.53 -61.57 c 128,-1,35
 932.48 -102.46 932.48 -102.46 1065.02 -102.46 c 2,36,-1
 1129.88 -102.46 l 1,0,-1
EndSplineSet
EndChar

StartChar: bar
Encoding: 124 124 30
Width: 703
GlyphClass: 2
Flags: W
GlyphCompositionVertical: 2  bar%0,0,44,2287 bar%1,44,0,2287
LayerCount: 2
Fore
SplineSet
457.78 1471.1 m 1,0,-1
 457.78 -454.02 l 1,1,-1
 244.4 -454.02 l 1,2,-1
 244.4 1471.1 l 1,3,-1
 457.78 1471.1 l 1,0,-1
EndSplineSet
EndChar

StartChar: braceright
Encoding: 125 125 31
Width: 1370
GlyphClass: 2
Flags: W
GlyphCompositionVertical: 5  uni23AD%0,0,44,2700 uni23AA%1,44,44,2742 uni23AC%0,44,44,2727 uni23AA%1,44,44,2742 uni23AB%0,44,0,2719
LayerCount: 2
Fore
SplineSet
240.64 -102.46 m 1,0,-1
 306.44 -102.46 l 2,1,2
 438.04 -102.46 438.04 -102.46 477.99 -61.5703 c 128,-1,3
 517.94 -20.6797 517.94 -20.6797 517.94 113.74 c 2,4,-1
 517.94 269.78 l 2,5,6
 517.94 416.42 517.94 416.42 560.24 483.16 c 128,-1,7
 602.54 549.9 602.54 549.9 706.88 575.28 c 1,8,9
 602.54 598.78 602.54 598.78 560.24 665.52 c 128,-1,10
 517.94 732.26 517.94 732.26 517.94 879.84 c 2,11,-1
 517.94 1035.88 l 2,12,13
 517.94 1169.36 517.94 1169.36 477.99 1210.25 c 128,-1,14
 438.04 1251.14 438.04 1251.14 306.44 1251.14 c 2,15,-1
 240.64 1251.14 l 1,16,-1
 240.64 1462.64 l 1,17,-1
 444.62 1462.64 l 2,18,19
 649.54 1462.64 649.54 1462.64 743.54 1380.39 c 128,-1,20
 837.54 1298.14 837.54 1298.14 837.54 1116.72 c 2,21,-1
 837.54 924.02 l 2,22,23
 837.54 783.02 837.54 783.02 888.3 728.5 c 128,-1,24
 939.06 673.98 939.06 673.98 1072.54 673.98 c 2,25,-1
 1129.88 673.98 l 1,26,-1
 1129.88 464.36 l 1,27,-1
 1072.54 464.36 l 2,28,29
 939.06 464.36 939.06 464.36 888.3 409.37 c 128,-1,30
 837.54 354.38 837.54 354.38 837.54 213.38 c 2,31,-1
 837.54 32.8997 l 2,32,33
 837.54 -148.52 837.54 -148.52 743.54 -231.24 c 128,-1,34
 649.54 -313.96 649.54 -313.96 444.62 -313.96 c 2,35,-1
 240.64 -313.96 l 1,36,-1
 240.64 -102.46 l 1,0,-1
EndSplineSet
EndChar

StartChar: asciitilde
Encoding: 126 126 32
Width: 1613
GlyphClass: 2
Flags: W
LayerCount: 2
Fore
SplineSet
1409.06 799 m 1,0,-1
 1409.06 569.64 l 1,1,2
 1309.42 494.44 1309.42 494.44 1225.29 462.01 c 128,-1,3
 1141.16 429.58 1141.16 429.58 1050.92 429.58 c 0,4,5
 950.34 429.58 950.34 429.58 815.92 484.1 c 0,6,7
 802.76 489.74 802.76 489.74 795.24 492.56 c 0,8,9
 788.66 495.38 788.66 495.38 774.56 501.02 c 0,10,11
 628.86 558.36 628.86 558.36 540.5 558.36 c 0,12,13
 457.78 558.36 457.78 558.36 376.94 522.17 c 128,-1,14
 296.1 485.98 296.1 485.98 203.98 407.96 c 1,15,-1
 203.98 637.32 l 1,16,17
 304.56 712.52 304.56 712.52 388.22 744.95 c 128,-1,18
 471.88 777.38 471.88 777.38 562.12 777.38 c 0,19,20
 662.7 777.38 662.7 777.38 797.12 722.86 c 0,21,22
 811.22 717.22 811.22 717.22 817.8 714.4 c 128,-1,23
 824.38 711.58 824.38 711.58 838.48 705.94 c 0,24,25
 984.18 648.6 984.18 648.6 1072.54 648.6 c 0,26,27
 1153.38 648.6 1153.38 648.6 1232.81 683.85 c 128,-1,28
 1312.24 719.1 1312.24 719.1 1409.06 799 c 1,0,-1
EndSplineSet
EndChar

StartChar: afii57388
Encoding: 1548 1548 34
Width: 743
GlyphClass: 2
Flags: W
LayerCount: 2
Fore
SplineSet
203.706 102.999 m 0,0,1
 191.25 161.217 191.25 161.217 212.745 254.832 c 0,2,3
 251.683 424.416 251.683 424.416 429.767 593.39 c 2,4,-1
 439.896 603 l 1,5,-1
 658.632 603 l 1,6,-1
 582.521 540.885 l 2,7,8
 435.566 420.951 435.566 420.951 411.03 284.902 c 1,9,10
 483.515 275.378 483.515 275.378 519.393 225.453 c 128,-1,11
 555.271 175.528 555.271 175.528 550.762 97.084 c 0,12,13
 547.06 31.8857 547.06 31.8857 499.069 -1.5576 c 128,-1,14
 451.08 -35 451.08 -35 373.818 -35 c 0,15,16
 306.831 -35 306.831 -35 262.295 1.1553 c 128,-1,17
 217.759 37.3105 217.759 37.3105 203.706 102.999 c 0,0,1
EndSplineSet
EndChar

StartChar: uni0615
Encoding: 1557 1557 35
Width: 0
GlyphClass: 4
Flags: W
LayerCount: 2
Fore
SplineSet
466.096 1456.96 m 1,0,-1
 552.12 1456.96 l 2,1,2
 639.138 1456.96 639.138 1456.96 665.862 1472.75 c 0,3,4
 697.288 1492.32 697.288 1492.32 713.059 1508.3 c 128,-1,5
 728.83 1524.27 728.83 1524.27 728.83 1541.65 c 0,6,7
 728.83 1583.09 728.83 1583.09 689.03 1604.94 c 1,8,9
 681.399 1607.6 681.399 1607.6 672.751 1605.46 c 128,-1,10
 664.102 1603.31 664.102 1603.31 640.309 1592.64 c 128,-1,11
 616.515 1581.97 616.515 1581.97 601.865 1576.19 c 0,12,13
 543.049 1552.44 543.049 1552.44 483.147 1478.12 c 2,14,-1
 466.096 1456.96 l 1,0,-1
576.73 1374.89 m 2,15,-1
 282.64 1374.89 l 1,16,-1
 282.64 1456.96 l 1,17,-1
 369.31 1456.96 l 1,18,-1
 369.31 1883.89 l 1,19,-1
 452.45 1883.89 l 1,20,-1
 452.45 1497.67 l 1,21,-1
 477.109 1547.67 l 2,22,23
 513.381 1621.22 513.381 1621.22 619.878 1662.18 c 0,24,25
 682.718 1686.12 682.718 1686.12 752.956 1660.03 c 0,26,27
 814.11 1636.51 814.11 1636.51 814.11 1557.7 c 0,28,29
 814.11 1466.67 814.11 1466.67 750.648 1417.09 c 0,30,31
 696.384 1374.89 696.384 1374.89 576.73 1374.89 c 2,15,-1
EndSplineSet
EndChar

StartChar: uni061B
Encoding: 1563 1563 36
Width: 698
GlyphClass: 2
Flags: W
LayerCount: 2
Fore
SplineSet
149.834 630.936 m 0,0,1
 137.377 689.153 137.377 689.153 158.873 782.769 c 0,2,3
 197.811 952.353 197.811 952.353 375.895 1121.33 c 2,4,-1
 386.023 1130.94 l 1,5,-1
 604.76 1130.94 l 1,6,-1
 528.648 1068.82 l 2,7,8
 381.693 948.888 381.693 948.888 357.158 812.839 c 1,9,10
 429.643 803.314 429.643 803.314 465.52 753.39 c 128,-1,11
 501.398 703.465 501.398 703.465 496.889 625.021 c 0,12,13
 493.188 559.822 493.188 559.822 445.197 526.379 c 128,-1,14
 397.207 492.937 397.207 492.937 319.945 492.937 c 0,15,16
 252.959 492.937 252.959 492.937 208.422 529.092 c 128,-1,17
 163.887 565.247 163.887 565.247 149.834 630.936 c 0,0,1
184.55 334.903 m 1,18,-1
 468.214 334.903 l 1,19,-1
 468.214 7.99002 l 1,20,-1
 184.55 7.99002 l 1,21,-1
 184.55 334.903 l 1,18,-1
EndSplineSet
EndChar

StartChar: uni061F
Encoding: 1567 1567 37
Width: 1093
GlyphClass: 2
Flags: W
LayerCount: 2
Fore
SplineSet
739.78 334.903 m 1,0,-1
 739.78 7.99002 l 1,1,-1
 464.162 7.99002 l 1,2,-1
 464.162 334.903 l 1,3,-1
 739.78 334.903 l 1,0,-1
470.197 411.315 m 1,4,-1
 470.197 570.749 l 2,5,6
 470.197 621.269 470.197 621.269 467.357 649.671 c 0,7,8
 464.747 675.774 464.747 675.774 459.658 694.151 c 0,9,10
 453.108 713.826 453.108 713.826 437.419 735.147 c 0,11,12
 419.406 759.626 419.406 759.626 374.188 804.845 c 2,13,-1
 285.971 891.058 l 1,14,15
 191.359 981.463 191.359 981.463 152.44 1055.53 c 0,16,17
 112.133 1132.23 112.133 1132.23 112.133 1217.48 c 0,18,19
 112.133 1393.66 112.133 1393.66 236.553 1501.91 c 0,20,21
 358.777 1608.25 358.777 1608.25 557.213 1608.25 c 0,22,23
 665.881 1608.25 665.881 1608.25 767.822 1578.66 c 0,24,25
 865.845 1550.22 865.845 1550.22 961.761 1493.16 c 2,26,-1
 985.195 1479.22 l 1,27,-1
 985.195 1203.53 l 1,28,-1
 910.773 1252.85 l 2,29,30
 826.293 1308.83 826.293 1308.83 748.884 1339.11 c 0,31,32
 665.156 1371.85 665.156 1371.85 592.416 1371.85 c 0,33,34
 496.794 1371.85 496.794 1371.85 440.881 1324.9 c 0,35,36
 387.75 1280.29 387.75 1280.29 387.75 1207.42 c 0,37,38
 387.75 1167.21 387.75 1167.21 409.073 1127.9 c 0,39,40
 431.935 1085.77 431.935 1085.77 485.384 1036.06 c 1,41,-1
 576.067 946.392 l 1,42,43
 671.775 854.736 671.775 854.736 702.669 783.022 c 0,44,45
 733.745 710.884 733.745 710.884 733.745 601.929 c 2,46,-1
 733.745 411.315 l 1,47,-1
 470.197 411.315 l 1,4,-1
EndSplineSet
EndChar

StartChar: uni0621
Encoding: 1569 1569 38
Width: 754
VWidth: 2181
GlyphClass: 2
Flags: W
AnchorPoint: "Anchor-7" 356 -148 basechar 0
AnchorPoint: "Anchor-10" 308.5 1043.5 basechar 0
LayerCount: 2
Fore
SplineSet
40.1709 -9.9082 m 1,0,-1
 40.1709 212.732 l 1,1,-1
 77.4658 223.137 l 2,2,3
 109.12 231.968 109.12 231.968 193.678 258.13 c 1,4,5
 120.488 295.395 120.488 295.395 82.1279 360.744 c 128,-1,6
 43.7676 426.095 43.7676 426.095 43.7676 511.414 c 0,7,8
 43.7676 604.663 43.7676 604.663 81.9834 677.736 c 128,-1,9
 120.199 750.809 120.199 750.809 194.423 796.546 c 0,10,11
 338.433 885.283 338.433 885.283 554.049 837.569 c 2,12,-1
 594.029 828.722 l 1,13,-1
 594.029 591.146 l 1,14,-1
 529.174 609.453 l 2,15,16
 459.546 629.107 459.546 629.107 411.147 627.725 c 0,17,18
 375.686 627.058 375.686 627.058 339.73 609.081 c 0,19,20
 306.192 592.312 306.192 592.312 291.757 568.037 c 128,-1,21
 277.321 543.763 277.321 543.763 277.684 503.243 c 0,22,23
 277.684 455.713 277.684 455.713 299.18 432.075 c 128,-1,24
 320.676 408.438 320.676 408.438 376.467 398.488 c 0,25,26
 384.384 397.076 384.384 397.076 392.814 396.055 c 0,27,28
 444.742 389.946 444.742 389.946 513.061 396.587 c 0,29,30
 534.017 398.623 534.017 398.623 588.863 427.102 c 2,31,-1
 663.365 465.784 l 1,32,-1
 663.365 226.349 l 1,33,-1
 639.84 211.306 l 2,34,35
 557.405 158.592 557.405 158.592 384.491 91.1133 c 0,36,37
 198.784 18.7559 198.784 18.7559 100.24 0.947266 c 2,38,-1
 40.1709 -9.9082 l 1,0,-1
EndSplineSet
EndChar

StartChar: uni0627
Encoding: 1575 1575 44
Width: 540
VWidth: 2181
GlyphClass: 2
Flags: W
AnchorPoint: "Anchor-10" 257.5 1404 basechar 0
AnchorPoint: "Anchor-7" 312.5 -173.5 basechar 0
LayerCount: 2
Fore
SplineSet
382.353 1227 m 2,0,1
 420.082 992.445 420.082 992.445 415.997 648.365 c 0,2,3
 413.524 394.401 413.524 394.401 392.864 244.142 c 128,-1,4
 372.203 93.8828 372.203 93.8828 323.988 23.6387 c 2,5,-1
 308.792 1.5 l 1,6,-1
 103.358 1.5 l 1,7,-1
 113.825 61.293 l 2,8,9
 175.591 414.166 175.591 414.166 172.005 678.225 c 0,10,11
 168.06 973.987 168.06 973.987 145.229 1214.07 c 2,12,-1
 139.92 1269.9 l 1,13,-1
 375.451 1269.9 l 1,14,-1
 382.353 1227 l 2,0,1
EndSplineSet
Substitution2: "'fina' Terminal Forms in Arabic lookup 9 subtable" uniFE8E
EndChar

StartChar: uni062D
Encoding: 1581 1581 50
Width: 1327
VWidth: 2181
GlyphClass: 2
Flags: W
AnchorPoint: "Anchor-10" 461.5 1197 basechar 0
AnchorPoint: "Anchor-7" 538.84 -704.5 basechar 0
LayerCount: 2
Fore
SplineSet
707.931 526.069 m 0,0,1
 494.537 428.461 494.537 428.461 391.091 301.528 c 128,-1,2
 287.646 174.596 287.646 174.596 284.396 15.2031 c 0,3,4
 282.62 -52.877 282.62 -52.877 311.389 -103.412 c 128,-1,5
 340.156 -153.947 340.156 -153.947 404.396 -193.522 c 0,6,7
 551.818 -284.344 551.818 -284.344 797.146 -253.995 c 0,8,9
 917.044 -239.162 917.044 -239.162 1141.04 -136.841 c 2,10,-1
 1198.84 -110.438 l 1,11,-1
 1252.82 -363.288 l 1,12,-1
 1219.09 -381.415 l 2,13,14
 1045.4 -474.759 1045.4 -474.759 876.314 -500.405 c 0,15,16
 718.776 -524.54 718.776 -524.54 595.553 -513.165 c 0,17,18
 306.504 -486.483 306.504 -486.483 157.993 -318.117 c 0,19,20
 30.002 -173.015 30.002 -173.015 41.4834 40.1338 c 0,21,22
 52.3408 241.703 52.3408 241.703 176.845 411.013 c 128,-1,23
 301.349 580.323 301.349 580.323 535.35 685.151 c 5,24,25
 513.533 702.146 513.533 702.146 418.35 703.151 c 0,26,27
 311.465 704.28 311.465 704.28 214.35 580.323 c 2,28,-1
 183.175 540.532 l 1,29,-1
 21.8789 658.051 l 1,30,-1
 49.1592 697.869 l 2,31,32
 138.263 827.924 138.263 827.924 223.454 886.15 c 0,33,34
 300.764 938.989 300.764 938.989 419.802 932.98 c 0,35,36
 518.555 927.995 518.555 927.995 632.662 894.962 c 2,37,-1
 982.831 793.59 l 1,38,-1
 944.679 565.939 l 1,39,-1
 906.264 561.774 l 2,40,41
 747.843 544.598 747.843 544.598 707.931 526.069 c 0,0,1
EndSplineSet
Substitution2: "'fina' Terminal Forms in Arabic lookup 9 subtable" uniFEA2
Substitution2: "'medi' Medial Forms in Arabic lookup 11 subtable" uniFEA4
Substitution2: "'init' Initial Forms in Arabic lookup 13 subtable" uniFEA3
EndChar

StartChar: uni062F
Encoding: 1583 1583 52
Width: 1019
VWidth: 2181
GlyphClass: 2
Flags: W
AnchorPoint: "Anchor-10" 346.935 1168.81 basechar 0
AnchorPoint: "Anchor-7" 396.059 -142.422 basechar 0
LayerCount: 2
Fore
SplineSet
405.945 270.411 m 0,0,1
 473.668 274.285 473.668 274.285 524.64 285.687 c 128,-1,2
 575.611 297.087 575.611 297.087 597.645 308.312 c 128,-1,3
 619.678 319.537 619.678 319.537 625.717 329.844 c 0,4,5
 674.261 412.69 674.261 412.69 602.527 526.939 c 0,6,7
 500.596 689.268 500.596 689.268 375.119 769.562 c 2,8,-1
 330.64 798.026 l 1,9,-1
 490.376 1029.48 l 1,10,-1
 533.022 996.101 l 2,11,12
 859.885 740.275 859.885 740.275 879.911 424.819 c 0,13,14
 891.296 253.129 891.296 253.129 818.97 154.068 c 0,15,16
 710.362 3.36328 710.362 3.36328 407.805 -2.42285 c 0,17,18
 187.056 -6.64551 187.056 -6.64551 73.9629 34.6553 c 2,19,-1
 40.458 46.8906 l 1,20,-1
 40.458 318.871 l 1,21,-1
 103.634 303.339 l 2,22,23
 272.197 261.898 272.197 261.898 405.945 270.411 c 0,0,1
EndSplineSet
Substitution2: "'fina' Terminal Forms in Arabic lookup 9 subtable" uniFEAA
EndChar

StartChar: uni0631
Encoding: 1585 1585 54
Width: 763
VWidth: 2186
GlyphClass: 2
Flags: W
AnchorPoint: "Anchor-7" 391 -580.5 basechar 0
AnchorPoint: "Anchor-10" 308.81 993.01 basechar 0
LayerCount: 2
Fore
SplineSet
685.045 125.83 m 0,0,1
 644.707 -154.321 644.707 -154.321 495.816 -316.801 c 128,-1,2
 346.914 -479.292 346.914 -479.292 96.1133 -512.275 c 2,3,-1
 65.082 -516.356 l 1,4,-1
 -69.6719 -319.689 l 1,5,-1
 4.8457 -303.828 l 2,6,7
 206.863 -260.829 206.863 -260.829 314.465 -143.412 c 128,-1,8
 422.064 -25.9971 422.064 -25.9971 443.864 174.606 c 0,9,10
 451.162 241.772 451.162 241.772 437.528 510.706 c 6,11,-1
 435.095 558.71 l 5,12,-1
 681.697 585.921 l 5,13,-1
 684.399 531.834 l 6,14,15
 699.624 227.098 699.624 227.098 685.045 125.83 c 0,0,1
EndSplineSet
PairPos2: "'kern' Horizontal Kerning lookup 15-1" uniFB58 dx=70 dy=0 dh=70 dv=0 dx=0 dy=0 dh=0 dv=0
PairPos2: "'kern' Horizontal Kerning lookup 15-1" uniFEF3 dx=70 dy=0 dh=70 dv=0 dx=0 dy=0 dh=0 dv=0
PairPos2: "'kern' Horizontal Kerning lookup 15-1" uniFBFE dx=70 dy=0 dh=70 dv=0 dx=0 dy=0 dh=0 dv=0
PairPos2: "'kern' Horizontal Kerning lookup 15-1" uniFEDF dx=-150 dy=0 dh=-150 dv=0 dx=0 dy=0 dh=0 dv=0
PairPos2: "'kern' Horizontal Kerning lookup 15-1" uniFBAC dx=-150 dy=0 dh=-150 dv=0 dx=0 dy=0 dh=0 dv=0
PairPos2: "'kern' Horizontal Kerning lookup 15-1" uniFB90 dx=-150 dy=0 dh=-150 dv=0 dx=0 dy=0 dh=0 dv=0
PairPos2: "'kern' Horizontal Kerning lookup 15-1" uni06A9 dx=-150 dy=0 dh=-150 dv=0 dx=0 dy=0 dh=0 dv=0
PairPos2: "'kern' Horizontal Kerning lookup 15-1" uni0649 dx=-100 dy=0 dh=-100 dv=0 dx=0 dy=0 dh=0 dv=0
PairPos2: "'kern' Horizontal Kerning lookup 15-1" uni0647 dx=-150 dy=0 dh=-150 dv=0 dx=0 dy=0 dh=0 dv=0
PairPos2: "'kern' Horizontal Kerning lookup 15-1" uniFEE7 dx=-150 dy=0 dh=-150 dv=0 dx=0 dy=0 dh=0 dv=0
PairPos2: "'kern' Horizontal Kerning lookup 15-1" uniFEE3 dx=-150 dy=0 dh=-150 dv=0 dx=0 dy=0 dh=0 dv=0
PairPos2: "'kern' Horizontal Kerning lookup 15-1" uni0645 dx=-150 dy=0 dh=-150 dv=0 dx=0 dy=0 dh=0 dv=0
PairPos2: "'kern' Horizontal Kerning lookup 15-1" uni0644 dx=-70 dy=0 dh=-70 dv=0 dx=0 dy=0 dh=0 dv=0
PairPos2: "'kern' Horizontal Kerning lookup 15-1" uniFEDB dx=-150 dy=0 dh=-150 dv=0 dx=0 dy=0 dh=0 dv=0
PairPos2: "'kern' Horizontal Kerning lookup 15-1" uniFED7 dx=-150 dy=0 dh=-150 dv=0 dx=0 dy=0 dh=0 dv=0
PairPos2: "'kern' Horizontal Kerning lookup 15-1" uni0642 dx=-70 dy=0 dh=-70 dv=0 dx=0 dy=0 dh=0 dv=0
PairPos2: "'kern' Horizontal Kerning lookup 15-1" uniFED3 dx=-150 dy=0 dh=-150 dv=0 dx=0 dy=0 dh=0 dv=0
PairPos2: "'kern' Horizontal Kerning lookup 15-1" uni0641 dx=-150 dy=0 dh=-150 dv=0 dx=0 dy=0 dh=0 dv=0
PairPos2: "'kern' Horizontal Kerning lookup 15-1" uniFECF dx=-70 dy=0 dh=-70 dv=0 dx=0 dy=0 dh=0 dv=0
PairPos2: "'kern' Horizontal Kerning lookup 15-1" uniFECB dx=-70 dy=0 dh=-70 dv=0 dx=0 dy=0 dh=0 dv=0
PairPos2: "'kern' Horizontal Kerning lookup 15-1" uniFEC7 dx=-150 dy=0 dh=-150 dv=0 dx=0 dy=0 dh=0 dv=0
PairPos2: "'kern' Horizontal Kerning lookup 15-1" uni0638 dx=-150 dy=0 dh=-150 dv=0 dx=0 dy=0 dh=0 dv=0
PairPos2: "'kern' Horizontal Kerning lookup 15-1" uniFEC3 dx=-150 dy=0 dh=-150 dv=0 dx=0 dy=0 dh=0 dv=0
PairPos2: "'kern' Horizontal Kerning lookup 15-1" uni0637 dx=-150 dy=0 dh=-150 dv=0 dx=0 dy=0 dh=0 dv=0
PairPos2: "'kern' Horizontal Kerning lookup 15-1" uniFEBF dx=-150 dy=0 dh=-150 dv=0 dx=0 dy=0 dh=0 dv=0
PairPos2: "'kern' Horizontal Kerning lookup 15-1" uni0636 dx=-150 dy=0 dh=-150 dv=0 dx=0 dy=0 dh=0 dv=0
PairPos2: "'kern' Horizontal Kerning lookup 15-1" uniFEBB dx=-150 dy=0 dh=-150 dv=0 dx=0 dy=0 dh=0 dv=0
PairPos2: "'kern' Horizontal Kerning lookup 15-1" uni0635 dx=-150 dy=0 dh=-150 dv=0 dx=0 dy=0 dh=0 dv=0
PairPos2: "'kern' Horizontal Kerning lookup 15-1" uniFEB7 dx=-150 dy=0 dh=-150 dv=0 dx=0 dy=0 dh=0 dv=0
PairPos2: "'kern' Horizontal Kerning lookup 15-1" uni0634 dx=-150 dy=0 dh=-150 dv=0 dx=0 dy=0 dh=0 dv=0
PairPos2: "'kern' Horizontal Kerning lookup 15-1" uniFEB3 dx=-150 dy=0 dh=-150 dv=0 dx=0 dy=0 dh=0 dv=0
PairPos2: "'kern' Horizontal Kerning lookup 15-1" uni0633 dx=-150 dy=0 dh=-150 dv=0 dx=0 dy=0 dh=0 dv=0
PairPos2: "'kern' Horizontal Kerning lookup 15-1" uni0630 dx=-150 dy=0 dh=-150 dv=0 dx=0 dy=0 dh=0 dv=0
PairPos2: "'kern' Horizontal Kerning lookup 15-1" uni062F dx=-150 dy=0 dh=-150 dv=0 dx=0 dy=0 dh=0 dv=0
PairPos2: "'kern' Horizontal Kerning lookup 15-1" uniFEA7 dx=-70 dy=0 dh=-70 dv=0 dx=0 dy=0 dh=0 dv=0
PairPos2: "'kern' Horizontal Kerning lookup 15-1" uniFEA3 dx=-70 dy=0 dh=-70 dv=0 dx=0 dy=0 dh=0 dv=0
PairPos2: "'kern' Horizontal Kerning lookup 15-1" uniFE9F dx=-70 dy=0 dh=-70 dv=0 dx=0 dy=0 dh=0 dv=0
PairPos2: "'kern' Horizontal Kerning lookup 15-1" uniFE9B dx=-150 dy=0 dh=-150 dv=0 dx=0 dy=0 dh=0 dv=0
PairPos2: "'kern' Horizontal Kerning lookup 15-1" uni062B dx=-150 dy=0 dh=-150 dv=0 dx=0 dy=0 dh=0 dv=0
PairPos2: "'kern' Horizontal Kerning lookup 15-1" uniFE97 dx=-150 dy=0 dh=-150 dv=0 dx=0 dy=0 dh=0 dv=0
PairPos2: "'kern' Horizontal Kerning lookup 15-1" uni062A dx=-150 dy=0 dh=-150 dv=0 dx=0 dy=0 dh=0 dv=0
PairPos2: "'kern' Horizontal Kerning lookup 15-1" uni0629 dx=-70 dy=0 dh=-70 dv=0 dx=0 dy=0 dh=0 dv=0
PairPos2: "'kern' Horizontal Kerning lookup 15-1" uniFE91 dx=-70 dy=0 dh=-70 dv=0 dx=0 dy=0 dh=0 dv=0
PairPos2: "'kern' Horizontal Kerning lookup 15-1" uni0628 dx=-150 dy=0 dh=-150 dv=0 dx=0 dy=0 dh=0 dv=0
PairPos2: "'kern' Horizontal Kerning lookup 15-1" uni0627 dx=-170 dy=0 dh=-170 dv=0 dx=0 dy=0 dh=0 dv=0
PairPos2: "'kern' Horizontal Kerning lookup 15-1" uni0622 dx=-170 dy=0 dh=-170 dv=0 dx=0 dy=0 dh=0 dv=0
PairPos2: "'kern' Horizontal Kerning lookup 15-1" uniFB94 dx=-70 dy=0 dh=-70 dv=0 dx=0 dy=0 dh=0 dv=0
PairPos2: "'kern' Horizontal Kerning lookup 15-1" afii57509 dx=-70 dy=0 dh=-70 dv=0 dx=0 dy=0 dh=0 dv=0
PairPos2: "'kern' Horizontal Kerning lookup 15-1" uniFB56 dx=-70 dy=0 dh=-70 dv=0 dx=0 dy=0 dh=0 dv=0
PairPos2: "'kern' Horizontal Kerning lookup 15-1" afii57506 dx=-70 dy=0 dh=-70 dv=0 dx=0 dy=0 dh=0 dv=0
Substitution2: "'fina' Terminal Forms in Arabic lookup 9 subtable" uniFEAE
EndChar

StartChar: uni0633
Encoding: 1587 1587 56
Width: 2319
VWidth: 2186
GlyphClass: 2
Flags: W
AnchorPoint: "Anchor-7" 344.5 -613.03 basechar 0
AnchorPoint: "Anchor-10" 536.51 897.5 basechar 0
LayerCount: 2
Fore
SplineSet
1840.06 259.633 m 2,0,1
 1868.21 259.633 1868.21 259.633 1895.76 276.609 c 0,2,3
 2041.17 366.214 2041.17 366.214 1909.07 673.634 c 2,4,-1
 1890.2 717.561 l 1,5,-1
 2098.18 823.313 l 1,6,-1
 2120.3 775.004 l 2,7,8
 2277.2 432.299 2277.2 432.299 2146.58 178.606 c 0,9,10
 2101.71 91.459 2101.71 91.459 2025.39 45.4863 c 128,-1,11
 1949.08 -0.485352 1949.08 -0.485352 1850.51 -0.994141 c 1,12,13
 1657.98 -17.2109 1657.98 -17.2109 1586.34 68.7725 c 0,14,15
 1580.43 76.0342 1580.43 76.0342 1575.37 82.8096 c 1,16,17
 1507.69 1.29297 1507.69 1.29297 1385.81 0.00292969 c 0,18,19
 1318.23 -0.711914 1318.23 -0.711914 1270.86 17.9834 c 1,20,21
 1241.74 -160.526 1241.74 -160.526 1149.05 -275.816 c 0,22,23
 1003.11 -457.342 1003.11 -457.342 679.838 -469.959 c 0,24,25
 404.275 -480.816 404.275 -480.816 247.716 -378.704 c 0,26,27
 139.843 -308.347 139.843 -308.347 87.1025 -202.866 c 128,-1,28
 34.3623 -97.3857 34.3623 -97.3857 39.6162 36.0195 c 0,29,30
 52.8438 371.844 52.8438 371.844 318.832 640.37 c 2,31,-1
 350.021 671.855 l 1,32,-1
 535.351 533.675 l 1,33,-1
 503.267 492.573 l 2,34,35
 182.041 81.0645 182.041 81.0645 351.146 -122.99 c 0,36,37
 428.383 -216.701 428.383 -216.701 682.66 -214.815 c 0,38,39
 863.132 -213.499 863.132 -213.499 949.035 -139.02 c 128,-1,40
 1034.94 -64.54 1034.94 -64.54 1043.13 93.0928 c 0,41,42
 1056.31 349.977 1056.31 349.977 1028.92 448.858 c 2,43,-1
 1017.83 488.887 l 1,44,-1
 1282.91 624.923 l 1,45,-1
 1281.05 539.367 l 2,46,47
 1277.05 355.276 1277.05 355.276 1290.62 309.674 c 2,48,-1
 1291.37 307.159 l 1,49,-1
 1291.86 304.58 l 2,50,51
 1293.25 297.214 1293.25 297.214 1296 291.759 c 0,52,53
 1310.26 263.493 1310.26 263.493 1381.3 264.485 c 0,54,55
 1440.72 265.789 1440.72 265.789 1481.45 349.193 c 0,56,57
 1485.39 357.253 1485.39 357.253 1489.18 366.127 c 2,58,-1
 1578.41 575.447 l 1,59,-1
 1779.66 575.447 l 1,60,61
 1777.9 566.21 1777.9 566.21 1774.59 546.113 c 128,-1,62
 1771.29 526.017 1771.29 526.017 1769.32 515.744 c 2,63,-1
 1742.26 359.486 l 2,64,65
 1736.99 329.058 1736.99 329.058 1739.1 307.277 c 0,66,67
 1742.11 276.191 1742.11 276.191 1760.22 264.96 c 128,-1,68
 1778.33 253.729 1778.33 253.729 1835 259.381 c 2,69,-1
 1837.52 259.633 l 1,70,-1
 1840.06 259.633 l 2,0,1
EndSplineSet
Substitution2: "'fina' Terminal Forms in Arabic lookup 9 subtable" uniFEB2
Substitution2: "'medi' Medial Forms in Arabic lookup 11 subtable" uniFEB4
Substitution2: "'init' Initial Forms in Arabic lookup 13 subtable" uniFEB3
EndChar

StartChar: uni0635
Encoding: 1589 1589 58
Width: 2394
VWidth: 2181
GlyphClass: 2
Flags: W
AnchorPoint: "Anchor-10" 660.84 961.5 basechar 0
AnchorPoint: "Anchor-7" 405.84 -650.5 basechar 0
LayerCount: 2
Fore
SplineSet
1564.94 282.009 m 1,0,-1
 1631.74 282.009 l 2,1,2
 1849.34 282.009 1849.34 282.009 1950.07 321.487 c 0,3,4
 2036.51 355.346 2036.51 355.346 2050.52 414.034 c 1,5,6
 2055.67 459.145 2055.67 459.145 2034.17 498.425 c 0,7,8
 2017.85 528.244 2017.85 528.244 1961.46 531.171 c 0,9,10
 1896.2 534.557 1896.2 534.557 1782.08 468.495 c 1,11,12
 1666.12 389.776 1666.12 389.776 1564.94 282.009 c 1,0,-1
1285.82 331.832 m 1,13,14
 1506.71 641.826 1506.71 641.826 1761.25 755.971 c 0,15,16
 1985.54 856.84 1985.54 856.84 2149.2 758.407 c 0,17,18
 2246.61 699.831 2246.61 699.831 2287.01 600.903 c 128,-1,19
 2327.42 501.976 2327.42 501.976 2310.18 373.337 c 0,20,21
 2289.94 220.54 2289.94 220.54 2142.55 116.782 c 0,22,23
 1977.85 -0 1977.85 -0 1689.52 0 c 2,24,-1
 1386.92 0 l 2,25,26
 1323.19 0 1323.19 0 1273.68 26.5938 c 1,27,28
 1245.97 -156.513 1245.97 -156.513 1150.05 -275.816 c 0,29,30
 1004.11 -457.342 1004.11 -457.342 680.838 -469.959 c 0,31,32
 405.275 -480.816 405.275 -480.816 248.716 -378.704 c 0,33,34
 140.821 -308.332 140.821 -308.332 88.0918 -202.868 c 128,-1,35
 35.3613 -97.4033 35.3613 -97.4033 40.6201 36.1006 c 0,36,37
 54.9639 372.975 54.9639 372.975 319.832 640.37 c 2,38,-1
 351.021 671.855 l 1,39,-1
 536.351 533.675 l 1,40,-1
 504.267 492.573 l 2,41,42
 183.041 81.0645 183.041 81.0645 352.146 -122.99 c 0,43,44
 429.383 -216.701 429.383 -216.701 683.66 -214.815 c 0,45,46
 864.132 -213.499 864.132 -213.499 950.035 -139.02 c 128,-1,47
 1035.94 -64.54 1035.94 -64.54 1044.13 93.0928 c 0,48,49
 1057.31 349.977 1057.31 349.977 1029.92 448.858 c 2,50,-1
 1018.83 488.887 l 1,51,-1
 1283.91 624.923 l 1,52,-1
 1282.05 539.367 l 2,53,54
 1278.87 393.191 1278.87 393.191 1285.82 331.832 c 1,13,14
EndSplineSet
Substitution2: "'fina' Terminal Forms in Arabic lookup 9 subtable" uniFEBA
Substitution2: "'medi' Medial Forms in Arabic lookup 11 subtable" uniFEBC
Substitution2: "'init' Initial Forms in Arabic lookup 13 subtable" uniFEBB
EndChar

StartChar: uni0637
Encoding: 1591 1591 60
Width: 1473
VWidth: 2181
GlyphClass: 2
Flags: W
AnchorPoint: "Anchor-10" 326.72 1428.47 basechar 0
AnchorPoint: "Anchor-7" 745.72 -207 basechar 0
LayerCount: 2
Fore
SplineSet
636.318 282.009 m 1,0,-1
 703.115 282.009 l 2,1,2
 920.723 282.009 920.723 282.009 1021.45 321.487 c 0,3,4
 1107.89 355.348 1107.89 355.348 1121.9 414.037 c 1,5,6
 1127.04 459.152 1127.04 459.152 1105.55 498.425 c 0,7,8
 1089.23 528.244 1089.23 528.244 1032.84 531.171 c 0,9,10
 967.579 534.557 967.579 534.557 853.459 468.495 c 1,11,12
 737.5 389.771 737.5 389.771 636.318 282.009 c 1,0,-1
760.898 0 m 2,13,-1
 548.304 0 l 2,14,15
 438.691 0 438.691 0 358.696 57.0039 c 1,16,17
 295.012 0 295.012 0 169.304 0 c 2,18,-1
 39.75 0 l 1,19,-1
 39.75 270.979 l 5,20,-1
 191.68 270.979 l 1,21,22
 166.467 410.097 166.467 410.097 165.305 650.453 c 0,23,24
 163.707 979.557 163.707 979.557 194.698 1227.33 c 2,25,-1
 200.326 1272.33 l 1,26,-1
 436.47 1270.61 l 1,27,-1
 433.21 1216.91 l 2,28,29
 404.312 740.729 404.312 740.729 404.304 678.783 c 0,30,31
 402.879 508.96 402.879 508.96 412.471 405.706 c 1,32,33
 609.521 655.913 609.521 655.913 832.613 755.961 c 0,34,35
 1056.92 856.839 1056.92 856.839 1220.43 758.497 c 0,36,37
 1318.01 700.697 1318.01 700.697 1358.44 601.67 c 128,-1,38
 1398.87 502.643 1398.87 502.643 1381.55 373.236 c 0,39,40
 1361.34 220.538 1361.34 220.538 1213.94 116.788 c 0,41,42
 1049.2 -0 1049.2 -0 760.898 0 c 2,13,-1
EndSplineSet
Substitution2: "'fina' Terminal Forms in Arabic lookup 9 subtable" uniFEC2
Substitution2: "'medi' Medial Forms in Arabic lookup 11 subtable" uniFEC4
Substitution2: "'init' Initial Forms in Arabic lookup 13 subtable" uniFEC3
EndChar

StartChar: uni0639
Encoding: 1593 1593 62
Width: 1310
VWidth: 2181
GlyphClass: 2
Flags: W
AnchorPoint: "Anchor-10" 520.325 1398.51 basechar 0
AnchorPoint: "Anchor-7" 441.235 -655.76 basechar 0
LayerCount: 2
Fore
SplineSet
666.001 -248.469 m 0,0,1
 915.92 -236.68 915.92 -236.68 1106.92 -139.793 c 2,2,-1
 1166.03 -109.807 l 1,3,-1
 1220.98 -367.212 l 1,4,-1
 1184.7 -384.552 l 2,5,6
 1001.54 -472.094 1001.54 -472.094 778.333 -496.89 c 0,7,8
 641.71 -512.39 641.71 -512.39 522.864 -500.772 c 0,9,10
 274.808 -477.537 274.808 -477.537 147.08 -322.482 c 0,11,12
 17.5107 -165.497 17.5107 -165.497 36.4971 72.6543 c 0,13,14
 55.4824 315.241 55.4824 315.241 330.932 521.402 c 1,15,16
 328.555 522.596 328.555 522.596 326.018 523.89 c 0,17,18
 242.177 567.595 242.177 567.595 197.86 641.859 c 128,-1,19
 153.545 716.124 153.545 716.124 152.257 813.454 c 0,20,21
 150.107 956.89 150.107 956.89 218.138 1053.54 c 128,-1,22
 286.169 1150.2 286.169 1150.2 417.809 1188.01 c 0,23,24
 615.416 1244.81 615.416 1244.81 847.08 1129.08 c 0,25,26
 853.007 1125.84 853.007 1125.84 865.88 1119.55 c 128,-1,27
 878.754 1113.27 878.754 1113.27 885.271 1110.01 c 1,28,-1
 818.774 884.174 l 1,29,-1
 765.479 908.075 l 2,30,31
 645.828 961.734 645.828 961.734 552.649 964.016 c 0,32,33
 467.643 966.097 467.643 966.097 432.09 935.895 c 128,-1,34
 396.537 905.691 396.537 905.691 392.834 832.426 c 0,35,36
 390.243 781.169 390.243 781.169 407.312 751.335 c 128,-1,37
 424.379 721.501 424.379 721.501 464.932 703.061 c 0,38,39
 557.94 661.688 557.94 661.688 619.277 669.024 c 2,40,-1
 994.04 715.038 l 1,41,-1
 994.04 460.652 l 1,42,-1
 948.198 455.992 l 2,43,44
 684.417 429.178 684.417 429.178 535.823 344.354 c 0,45,46
 308.97 213.298 308.97 213.298 301.545 44.9814 c 0,47,48
 295.383 -102.717 295.383 -102.717 389.999 -174.185 c 0,49,50
 499.889 -255.984 499.889 -255.984 666.001 -248.469 c 0,0,1
EndSplineSet
Substitution2: "'fina' Terminal Forms in Arabic lookup 9 subtable" uniFECA
Substitution2: "'medi' Medial Forms in Arabic lookup 11 subtable" uniFECC
Substitution2: "'init' Initial Forms in Arabic lookup 13 subtable" uniFECB
EndChar

StartChar: afii57440
Encoding: 1600 1600 64
Width: 642
VWidth: 2181
GlyphClass: 2
Flags: W
AnchorPoint: "Anchor-10" 321 1325.5 basechar 0
AnchorPoint: "Anchor-7" 321 -65.5 basechar 0
LayerCount: 2
Fore
SplineSet
-54.4004 0 m 1,0,-1
 -54.4004 270.979 l 1,1,-1
 696.4 270.979 l 5,2,-1
 696.4 0 l 1,3,-1
 -54.4004 0 l 1,0,-1
EndSplineSet
EndChar

StartChar: uni0643
Encoding: 1603 1603 67
Width: 1785
VWidth: 2181
GlyphClass: 2
Flags: W
AnchorPoint: "Anchor-10" 531 1445.5 basechar 0
AnchorPoint: "Anchor-7" 479 -172.5 basechar 0
LayerCount: 2
Fore
SplineSet
873.334 2.00098 m 0,0,1
 510.236 -0.0869141 510.236 -0.0869141 317.131 85.1973 c 0,2,3
 191 141.583 191 141.583 121.137 238.86 c 128,-1,4
 51.2734 336.137 51.2734 336.137 43.4102 467.862 c 0,5,6
 30.2656 688.037 30.2656 688.037 180.333 881.155 c 2,7,-1
 201.019 907.776 l 1,8,-1
 434.838 846.083 l 1,9,-1
 390.399 785.68 l 2,10,11
 282.793 639.415 282.793 639.415 289.271 491.119 c 0,12,13
 292.775 410.546 292.775 410.546 358.32 358.914 c 128,-1,14
 423.865 307.282 423.865 307.282 569.55 284.782 c 0,15,16
 642.34 273.561 642.34 273.561 808.092 273.014 c 1,17,18
 1007.45 265.889 1007.45 265.889 1125.87 278.187 c 0,19,20
 1296.26 295.878 1296.26 295.878 1375.65 338.69 c 128,-1,21
 1455.03 381.503 1455.03 381.503 1460.89 437.366 c 2,22,-1
 1466.97 495.413 l 1,23,-1
 1467.25 496.727 l 1,24,25
 1470.56 529.018 1470.56 529.018 1472.33 787.814 c 0,26,27
 1474.53 1056.56 1474.53 1056.56 1438.82 1313.69 c 2,28,-1
 1430.89 1370.77 l 1,29,-1
 1670.66 1374.65 l 1,30,-1
 1678.46 1332.17 l 2,31,32
 1702.81 1199.55 1702.81 1199.55 1713.32 753.604 c 0,33,34
 1717.35 591.008 1717.35 591.008 1688.43 399.363 c 0,35,36
 1669.12 271.941 1669.12 271.941 1580.04 183.487 c 128,-1,37
 1490.97 95.0332 1490.97 95.0332 1341.27 48.5684 c 0,38,39
 1197.22 3.86328 1197.22 3.86328 873.334 2.00098 c 0,0,1
1095.77 1286.4 m 1,40,-1
 1095.77 1132.74 l 1,41,-1
 1048.51 1129.26 l 2,42,43
 986.002 1124.66 986.002 1124.66 954.382 1113 c 0,44,45
 934.38 1105.5 934.38 1105.5 918.909 1096.74 c 128,-1,46
 903.438 1087.98 903.438 1087.98 897.602 1083.03 c 128,-1,47
 891.765 1078.07 891.765 1078.07 890.334 1075.59 c 1,48,49
 890.605 1058.7 890.605 1058.7 897.26 1049.07 c 1,50,51
 913.426 1039.41 913.426 1039.41 962.711 1032.16 c 0,52,53
 1027.56 1022.62 1027.56 1022.62 1064.01 989.321 c 0,54,55
 1105.05 951.844 1105.05 951.844 1105.05 889.298 c 0,56,57
 1105.05 828.158 1105.05 828.158 1075.02 778.82 c 128,-1,58
 1044.98 729.482 1044.98 729.482 989.944 698.358 c 0,59,60
 909.612 652.928 909.612 652.928 801.926 651.929 c 0,61,62
 737.523 651.929 737.523 651.929 680.746 661.412 c 2,63,-1
 638.148 668.526 l 1,64,-1
 638.148 828.331 l 1,65,-1
 695.812 820.729 l 2,66,67
 753.256 813.158 753.256 813.158 792.059 813.158 c 0,68,69
 857.19 813.158 857.19 813.158 896.611 828.678 c 0,70,71
 948.45 848.587 948.45 848.587 948.45 867.898 c 1,72,73
 949.605 884.885 949.605 884.885 893.576 894.014 c 0,74,75
 820.173 905.199 820.173 905.199 777.499 948.845 c 0,76,77
 731.684 995.704 731.684 995.704 733.387 1074.08 c 0,78,79
 734.652 1125.26 734.652 1125.26 761.045 1165.93 c 128,-1,80
 787.438 1206.59 787.438 1206.59 833.85 1230.11 c 0,81,82
 923.539 1275.48 923.539 1275.48 1041.54 1282.96 c 2,83,-1
 1095.77 1286.4 l 1,40,-1
EndSplineSet
Substitution2: "'fina' Terminal Forms in Arabic lookup 9 subtable" uniFEDA
Substitution2: "'medi' Medial Forms in Arabic lookup 11 subtable" uniFEDC
Substitution2: "'init' Initial Forms in Arabic lookup 13 subtable" uniFEDB
EndChar

StartChar: uni0644
Encoding: 1604 1604 68
Width: 1451
VWidth: 2186
GlyphClass: 2
Flags: W
AnchorPoint: "Anchor-10" 589.1 1107 basechar 0
AnchorPoint: "Anchor-7" 426.24 -635.116 basechar 0
LayerCount: 2
Fore
SplineSet
1305.59 79.7695 m 1,0,1
 1253.62 -175.08 1253.62 -175.08 1134.9 -289.041 c 0,2,3
 957.807 -459.03 957.807 -459.03 680.838 -469.959 c 0,4,5
 405.275 -480.816 405.275 -480.816 248.716 -378.704 c 0,6,7
 140.843 -308.347 140.843 -308.347 88.1025 -202.866 c 128,-1,8
 35.3623 -97.3857 35.3623 -97.3857 40.6162 36.0195 c 0,9,10
 53.8438 371.856 53.8438 371.856 319.832 640.37 c 2,11,-1
 351.021 671.855 l 1,12,-1
 536.351 533.675 l 1,13,-1
 504.267 492.573 l 2,14,15
 183.041 81.0645 183.041 81.0645 352.143 -122.987 c 0,16,17
 386.109 -164.198 386.109 -164.198 469.25 -188.987 c 128,-1,18
 552.392 -213.775 552.392 -213.775 684.45 -214.815 c 0,19,20
 842.144 -216.11 842.144 -216.11 932.245 -148.575 c 128,-1,21
 1022.35 -81.04 1022.35 -81.04 1057.1 62.8867 c 0,22,23
 1114.66 304.81 1114.66 304.81 1106.65 675.427 c 1,24,25
 1101.06 988.851 1101.06 988.851 1079.87 1211.57 c 2,26,-1
 1074.56 1267.4 l 1,27,-1
 1310.31 1267.4 l 1,28,-1
 1317.03 1224.25 l 2,29,30
 1353.54 989.896 1353.54 989.896 1350.64 751.765 c 0,31,32
 1343.95 275.823 1343.95 275.823 1305.59 79.7695 c 1,0,1
EndSplineSet
Substitution2: "'fina' Terminal Forms in Arabic lookup 9 subtable" uniFEDE
Substitution2: "'medi' Medial Forms in Arabic lookup 11 subtable" uniFEE0
Substitution2: "'init' Initial Forms in Arabic lookup 13 subtable" uniFEDF
EndChar

StartChar: uni0645
Encoding: 1605 1605 69
Width: 1368
VWidth: 2181
GlyphClass: 2
Flags: W
AnchorPoint: "Anchor-10" 635.5 1057.31 basechar 0
AnchorPoint: "Anchor-7" 222.631 -678.952 basechar 0
LayerCount: 2
Fore
SplineSet
595.571 517.635 m 1,0,1
 787.596 790.549 787.596 790.549 1005.25 761.057 c 0,2,3
 1144.16 741.841 1144.16 741.841 1212.16 632.117 c 128,-1,4
 1280.16 522.394 1280.16 522.394 1277.36 342.052 c 0,5,6
 1275.98 246.55 1275.98 246.55 1232.22 156.436 c 1,7,8
 1178.58 42.9609 1178.58 42.9609 1027.85 20.4199 c 0,9,10
 817.049 -10.5781 817.049 -10.5781 622.998 139.823 c 1,11,12
 541.105 -1.99707 541.105 -1.99707 458.58 -84.1426 c 0,13,14
 334.619 -207.552 334.619 -207.552 120.056 -285.722 c 2,15,-1
 71.002 -303.593 l 1,16,-1
 -12.2207 -57.3926 l 1,17,-1
 38.3486 -42.2256 l 2,18,19
 188.861 2.91602 188.861 2.91602 299.501 120.194 c 0,20,21
 418.396 246.224 418.396 246.224 595.571 517.635 c 1,0,1
854.706 296.883 m 0,22,23
 889.881 283.626 889.881 283.626 919.544 277.669 c 128,-1,24
 949.207 271.713 949.207 271.713 965.191 272.138 c 128,-1,25
 981.177 272.562 981.177 272.562 989.815 276.389 c 0,26,27
 1007.11 284.837 1007.11 284.837 1016.24 298.146 c 128,-1,28
 1025.37 311.455 1025.37 311.455 1029.18 336.441 c 0,29,30
 1033.33 362.068 1033.33 362.068 1034.66 383.914 c 0,31,32
 1038.78 451.137 1038.78 451.137 1023.13 474.352 c 128,-1,33
 1007.48 497.567 1007.48 497.567 968.365 499.91 c 0,34,35
 911.826 502.942 911.826 502.942 864.438 455.019 c 1,36,37
 804.493 392.268 804.493 392.268 772.36 337.089 c 1,38,39
 804.802 315.692 804.802 315.692 854.706 296.883 c 0,22,23
EndSplineSet
Substitution2: "'init' Initial Forms in Arabic lookup 13 subtable" uniFEE3
Substitution2: "'medi' Medial Forms in Arabic lookup 11 subtable" uniFEE4
Substitution2: "'fina' Terminal Forms in Arabic lookup 9 subtable" uniFEE2
EndChar

StartChar: uni0647
Encoding: 1607 1607 71
Width: 976
VWidth: 2181
GlyphClass: 2
Flags: W
AnchorPoint: "Anchor-10" 423.924 1200.58 basechar 0
AnchorPoint: "Anchor-7" 332.864 -130.56 basechar 0
LayerCount: 2
Fore
SplineSet
316.06 399.097 m 0,0,1
 296.593 345.172 296.593 345.172 311.433 317.494 c 0,2,3
 329.675 283.473 329.675 283.473 388.301 259.618 c 0,4,5
 453.221 233.511 453.221 233.511 541.517 253.077 c 0,6,7
 571.873 259.539 571.873 259.539 586.649 272.439 c 128,-1,8
 601.427 285.339 601.427 285.339 608.299 309.028 c 0,9,10
 620.254 350.236 620.254 350.236 592.875 428.227 c 1,11,12
 541.566 530.587 541.566 530.587 459.216 608.195 c 1,13,14
 346.504 487.814 346.504 487.814 316.06 399.097 c 0,0,1
120.014 581.224 m 0,15,16
 181.294 680.91 181.294 680.91 265.994 773.066 c 1,17,-1
 228.857 804.999 l 1,18,-1
 397.855 985.774 l 1,19,-1
 434.286 959.451 l 2,20,21
 721.367 752.009 721.367 752.009 818.047 545.578 c 0,22,23
 867.419 441.061 867.419 441.061 874.296 349.977 c 128,-1,24
 881.172 258.894 881.172 258.894 842.397 183.441 c 128,-1,25
 803.623 107.99 803.623 107.99 719.245 56.8447 c 0,26,27
 628.828 2.03906 628.828 2.03906 467.821 3.53223 c 0,28,29
 318.651 4.93555 318.651 4.93555 233.762 45.498 c 0,30,31
 74.9092 121.537 74.9092 121.537 47.2197 267.544 c 0,32,33
 18.917 416.78 18.917 416.78 120.014 581.224 c 0,15,16
EndSplineSet
Substitution2: "'fina' Terminal Forms in Arabic lookup 9 subtable" uniFEEA
Substitution2: "'medi' Medial Forms in Arabic lookup 11 subtable" uniFEEC
Substitution2: "'init' Initial Forms in Arabic lookup 13 subtable" uniFEEB
EndChar

StartChar: uni0648
Encoding: 1608 1608 72
Width: 873
VWidth: 2181
GlyphClass: 2
Flags: W
AnchorPoint: "Anchor-10" 351.282 1083.17 basechar 0
AnchorPoint: "Anchor-7" 516.191 -538.443 basechar 0
LayerCount: 2
Fore
SplineSet
463.369 516.799 m 0,0,1
 409.468 515.408 409.468 515.408 374.402 478.106 c 128,-1,2
 339.338 440.804 339.338 440.804 319.895 352.433 c 0,3,4
 309.049 302.442 309.049 302.442 324 281.206 c 128,-1,5
 338.951 259.97 338.951 259.97 394.132 250.133 c 0,6,7
 496.724 231.165 496.724 231.165 551.086 259.608 c 1,8,9
 551.184 297.9 551.184 297.9 534.917 387.078 c 0,10,11
 527.354 427.629 527.354 427.629 517.405 455.498 c 128,-1,12
 507.456 483.367 507.456 483.367 497.214 495.648 c 128,-1,13
 486.972 507.929 486.972 507.929 479.062 512.464 c 128,-1,14
 471.154 517 471.154 517 463.369 516.799 c 0,0,1
752.326 -19.1279 m 0,15,16
 726.172 -124.523 726.172 -124.523 669.184 -219.927 c 0,17,18
 518.744 -471.771 518.744 -471.771 196.419 -513.59 c 2,19,-1
 166.147 -517.517 l 1,20,-1
 24.1104 -319.029 l 1,21,-1
 102.181 -303.94 l 2,22,23
 253.362 -274.722 253.362 -274.722 351.899 -198.82 c 128,-1,24
 450.437 -122.919 450.437 -122.919 503.036 2.875 c 1,25,26
 470.921 -0.110352 470.921 -0.110352 425.99 -1.24316 c 0,27,28
 225.221 -4.31641 225.221 -4.31641 140.488 113.442 c 1,29,30
 69.124 214.988 69.124 214.988 84.6533 346.043 c 0,31,32
 106.604 531.275 106.604 531.275 223.574 659.169 c 0,33,34
 284.645 725.941 284.645 725.941 358.857 753.312 c 128,-1,35
 433.069 780.683 433.069 780.683 514.229 764.305 c 128,-1,36
 595.418 747.735 595.418 747.735 652.178 697.492 c 128,-1,37
 708.937 647.249 708.937 647.249 735.403 568.606 c 0,38,39
 775.663 449.083 775.663 449.083 784.975 325.406 c 0,40,41
 786.348 307.156 786.348 307.156 787.049 288.775 c 0,42,43
 792.44 146.165 792.44 146.165 752.326 -19.1279 c 0,15,16
EndSplineSet
Substitution2: "'fina' Terminal Forms in Arabic lookup 9 subtable" uniFEEE
EndChar

StartChar: uni0649
Encoding: 1609 1609 73
Width: 1314
VWidth: 2181
GlyphClass: 2
Flags: W
AnchorPoint: "Anchor-10" 358.722 983.334 basechar 0
AnchorPoint: "Anchor-7" 307.423 -560.472 basechar 0
LayerCount: 2
Fore
SplineSet
1157.24 774.042 m 1,0,-1
 1239.56 773.527 l 1,1,-1
 1239.56 493.562 l 1,2,-1
 1134.56 492.502 l 2,3,4
 1069.38 491.843 1069.38 491.843 1005.33 412.071 c 0,5,6
 985.511 387.1 985.511 387.1 981.943 372.076 c 1,7,8
 982.951 371.28 982.951 371.28 984.203 370.469 c 0,9,10
 1002.87 358.374 1002.87 358.374 1054.7 352.663 c 0,11,12
 1085.09 349.313 1085.09 349.313 1109.74 340.555 c 0,13,14
 1227.24 298.796 1227.24 298.796 1191.48 101.351 c 0,15,16
 1158.21 -87.3711 1158.21 -87.3711 959.987 -228.212 c 0,17,18
 749.742 -377.592 749.742 -377.592 488.068 -375.636 c 0,19,20
 298.423 -374.224 298.423 -374.224 182.348 -286.391 c 128,-1,21
 66.2725 -198.558 66.2725 -198.558 39.1299 -30.9443 c 0,22,23
 16.9453 100.878 16.9453 100.878 66.0068 266.541 c 0,24,25
 146.348 537.825 146.348 537.825 386.804 836.311 c 2,26,-1
 421.793 879.743 l 1,27,-1
 602.916 734.659 l 1,28,-1
 569.628 694.714 l 2,29,30
 519.011 633.973 519.011 633.973 422.817 478.526 c 0,31,32
 241.077 184.842 241.077 184.842 280.951 25.6309 c 0,33,34
 298.773 -47.0566 298.773 -47.0566 351.014 -82.2227 c 128,-1,35
 403.253 -117.389 403.253 -117.389 504.061 -118.641 c 0,36,37
 742.759 -121.504 742.759 -121.504 889.013 -1.28125 c 0,38,39
 956.306 54.2588 956.306 54.2588 967.136 118.688 c 0,40,41
 968.938 130.481 968.938 130.481 963.236 136.275 c 0,42,43
 956.415 141.741 956.415 141.741 933.535 145.905 c 0,44,45
 862.76 158.785 862.76 158.785 813.279 194.868 c 128,-1,46
 763.8 230.95 763.8 230.95 744.509 289.073 c 0,47,48
 708.264 394.473 708.264 394.473 754.745 494.489 c 1,49,50
 816.404 623.371 816.404 623.371 918.071 694.507 c 128,-1,51
 1019.74 765.643 1019.74 765.643 1155.53 773.938 c 2,52,-1
 1157.24 774.042 l 1,0,-1
EndSplineSet
Substitution2: "'fina' Terminal Forms in Arabic lookup 9 subtable" uniFEF0
Substitution2: "'medi' Medial Forms in Arabic lookup 11 subtable" uniFBE9
Substitution2: "'init' Initial Forms in Arabic lookup 13 subtable" uniFBE8
EndChar

StartChar: uni064B
Encoding: 1611 1611 75
Width: 0
VWidth: 2186
GlyphClass: 4
Flags: W
AnchorPoint: "Anchor-10" 547.84 1041.5 mark 0
AnchorPoint: "Anchor-9" 547.84 1041.5 mark 0
AnchorPoint: "Anchor-1" 547.84 1576.5 basemark 0
AnchorPoint: "Anchor-1" 547.84 1041.5 mark 0
LayerCount: 2
Fore
SplineSet
269.4 977.41 m 5,0,-1
 269.4 1104.48 l 5,1,-1
 827.28 1332.79 l 5,2,-1
 827.28 1205.72 l 5,3,-1
 269.4 977.41 l 5,0,-1
269.4 1234.21 m 5,4,-1
 269.4 1361.28 l 5,5,-1
 827.28 1589.59 l 5,6,-1
 827.28 1462.52 l 5,7,-1
 269.4 1234.21 l 5,4,-1
EndSplineSet
EndChar

StartChar: uni064C
Encoding: 1612 1612 76
Width: 0
VWidth: 2186
GlyphClass: 4
Flags: W
AnchorPoint: "Anchor-10" 554.386 1155.44 mark 0
AnchorPoint: "Anchor-9" 554.386 1155.44 mark 0
AnchorPoint: "Anchor-1" 546.386 1810.94 basemark 0
AnchorPoint: "Anchor-1" 554.386 1155.44 mark 0
LayerCount: 2
Fore
SplineSet
567.219 1298.72 m 0,0,1
 608.391 1338.78 608.391 1338.78 631.845 1385.69 c 2,2,-1
 639.364 1400.73 l 1,3,-1
 622.913 1404.22 l 2,4,5
 589.558 1411.29 589.558 1411.29 566.532 1424.31 c 0,6,7
 457.736 1481.73 457.736 1481.73 457.736 1574.47 c 0,8,9
 457.736 1661.08 457.736 1661.08 526.365 1712.8 c 0,10,11
 552.86 1732.67 552.86 1732.67 615.937 1732.67 c 0,12,13
 688.759 1732.67 688.759 1732.67 727.738 1694.66 c 0,14,15
 782.696 1640.71 782.696 1640.71 782.696 1561.63 c 0,16,17
 782.696 1521.9 782.696 1521.9 770.46 1483.15 c 2,18,-1
 765.402 1467.14 l 1,19,-1
 782.175 1466.26 l 2,20,21
 802.247 1465.2 802.247 1465.2 817.806 1465.17 c 0,22,23
 831.205 1464.45 831.205 1464.45 845.826 1464.2 c 1,24,-1
 845.826 1372.44 l 1,25,26
 806.232 1372.69 806.232 1372.69 788.381 1374.48 c 2,27,-1
 723.27 1380.74 l 1,28,-1
 719.537 1371.99 l 2,29,30
 692.652 1308.91 692.652 1308.91 614.12 1227.24 c 1,31,32
 527.043 1139.14 527.043 1139.14 431.896 1139.14 c 0,33,34
 319.02 1139.14 319.02 1139.14 262.205 1295.39 c 0,35,36
 247.89 1334.51 247.89 1334.51 246.994 1442.7 c 1,37,-1
 317.299 1442.7 l 1,38,39
 318.143 1347.11 318.143 1347.11 331.307 1318.59 c 0,40,41
 372.26 1230.84 372.26 1230.84 431.896 1230.84 c 0,42,43
 497.076 1230.84 497.076 1230.84 567.219 1298.72 c 0,0,1
669.292 1482.64 m 1,44,-1
 680.316 1508.36 l 2,45,46
 690.996 1533.28 690.996 1533.28 690.996 1561.63 c 0,47,48
 690.996 1604.15 690.996 1604.15 668.07 1623.02 c 0,49,50
 646.28 1640.97 646.28 1640.97 620.217 1640.97 c 0,51,52
 591.787 1640.97 591.787 1640.97 575.875 1628.63 c 0,53,54
 551.576 1610.34 551.576 1610.34 551.576 1574.47 c 0,55,56
 551.576 1526.08 551.576 1526.08 607.898 1503.55 c 0,57,58
 629.803 1494.79 629.803 1494.79 658.123 1486.08 c 2,59,-1
 669.292 1482.64 l 1,44,-1
EndSplineSet
EndChar

StartChar: uni064D
Encoding: 1613 1613 77
Width: 0
VWidth: 2186
GlyphClass: 4
Flags: W
AnchorPoint: "Anchor-7" 531.84 75.5 mark 0
AnchorPoint: "Anchor-6" 531.84 75.5 mark 0
AnchorPoint: "Anchor-0" 547.84 -439.5 basemark 0
AnchorPoint: "Anchor-0" 531.84 75.5 mark 0
LayerCount: 2
Fore
SplineSet
270.96 -512.18 m 5,0,-1
 270.96 -385.109 l 5,1,-1
 828.84 -156.8 l 5,2,-1
 828.84 -283.87 l 5,3,-1
 270.96 -512.18 l 5,0,-1
270.96 -255.38 m 5,4,-1
 270.96 -128.31 l 5,5,-1
 828.84 100 l 5,6,-1
 828.84 -27.0703 l 5,7,-1
 270.96 -255.38 l 5,4,-1
EndSplineSet
EndChar

StartChar: uni064E
Encoding: 1614 1614 78
Width: 0
VWidth: 2186
GlyphClass: 4
Flags: W
AnchorPoint: "Anchor-10" 517.84 1279.5 mark 0
AnchorPoint: "Anchor-9" 517.84 1279.5 mark 0
AnchorPoint: "Anchor-1" 517.84 1600.5 basemark 0
AnchorPoint: "Anchor-1" 517.84 1279.5 mark 0
LayerCount: 2
Fore
SplineSet
237.4 1237.41 m 1,0,-1
 237.4 1364.48 l 1,1,-1
 795.28 1592.79 l 5,2,-1
 795.28 1465.72 l 1,3,-1
 237.4 1237.41 l 1,0,-1
EndSplineSet
EndChar

StartChar: uni064F
Encoding: 1615 1615 79
Width: 0
VWidth: 2186
GlyphClass: 4
Flags: W
AnchorPoint: "Anchor-10" 531.84 1205.5 mark 0
AnchorPoint: "Anchor-9" 531.84 1205.5 mark 0
AnchorPoint: "Anchor-1" 547.84 1825 basemark 0
AnchorPoint: "Anchor-1" 531.84 1205.5 mark 0
LayerCount: 2
Fore
SplineSet
594.529 1426.81 m 6,0,1
 586.598 1428.57 586.598 1428.57 567.734 1438.5 c 4,2,3
 459.19 1494.78 459.19 1494.78 459.19 1588.53 c 4,4,5
 459.19 1675.14 459.19 1675.14 527.819 1726.86 c 4,6,7
 554.314 1746.73 554.314 1746.73 617.39 1746.73 c 4,8,9
 690.212 1746.73 690.212 1746.73 729.192 1708.72 c 4,10,11
 784.15 1654.77 784.15 1654.77 784.15 1575.69 c 4,12,13
 784.15 1543.43 784.15 1543.43 769.757 1497.16 c 6,14,-1
 764.821 1481.3 l 5,15,-1
 781.407 1480.32 l 6,16,17
 799.81 1479.24 799.81 1479.24 819.259 1478.7 c 4,18,19
 832.229 1478.34 832.229 1478.34 847.28 1478.21 c 5,20,-1
 847.28 1386.53 l 5,21,22
 817.029 1386.85 817.029 1386.85 789.455 1388.57 c 4,23,24
 757.6 1390.7 757.6 1390.7 727.915 1393.88 c 6,25,-1
 720.312 1394.69 l 5,26,-1
 715.905 1388.44 l 6,27,28
 671.45 1325.37 671.45 1325.37 599.88 1281.81 c 4,29,30
 398.294 1157.85 398.294 1157.85 248.4 1152.36 c 5,31,-1
 248.4 1244.01 l 5,32,33
 408.671 1248.65 408.671 1248.65 554.781 1363.22 c 4,34,35
 580.142 1383.07 580.142 1383.07 601.135 1405.16 c 6,36,-1
 616.962 1421.83 l 5,37,-1
 594.529 1426.81 l 6,0,1
670.746 1496.7 m 5,38,-1
 681.77 1522.42 l 6,39,40
 692.45 1547.34 692.45 1547.34 692.45 1575.69 c 4,41,42
 692.45 1618.21 692.45 1618.21 669.524 1637.08 c 4,43,44
 647.734 1655.03 647.734 1655.03 621.67 1655.03 c 4,45,46
 593.241 1655.03 593.241 1655.03 577.329 1642.69 c 4,47,48
 553.03 1624.4 553.03 1624.4 553.03 1588.53 c 4,49,50
 553.03 1540.14 553.03 1540.14 609.352 1517.61 c 4,51,52
 631.256 1508.85 631.256 1508.85 659.577 1500.14 c 6,53,-1
 670.746 1496.7 l 5,38,-1
EndSplineSet
EndChar

StartChar: uni0650
Encoding: 1616 1616 80
Width: 0
VWidth: 2186
GlyphClass: 4
Flags: W
AnchorPoint: "Anchor-7" 467.84 -12.5 mark 0
AnchorPoint: "Anchor-6" 467.84 -12.5 mark 0
AnchorPoint: "Anchor-0" 556.84 -311.5 basemark 0
AnchorPoint: "Anchor-0" 467.84 -12.5 mark 0
LayerCount: 2
Fore
SplineSet
267.96 -356.836 m 1,0,-1
 267.96 -229.766 l 1,1,-1
 825.84 -1.45605 l 1,2,-1
 825.84 -128.526 l 1,3,-1
 267.96 -356.836 l 1,0,-1
EndSplineSet
EndChar

StartChar: uni0651
Encoding: 1617 1617 81
Width: 0
VWidth: 2186
GlyphClass: 4
Flags: W
AnchorPoint: "Anchor-10" 547.84 1316.5 mark 0
AnchorPoint: "Anchor-9" 547.84 1316.5 mark 0
AnchorPoint: "Anchor-1" 535.84 1818.5 basemark 0
AnchorPoint: "Anchor-1" 547.84 1316.5 mark 0
LayerCount: 2
Fore
SplineSet
507.838 1339.09 m 128,-1,1
 469.58 1294.39 469.58 1294.39 378.78 1294.39 c 0,2,3
 301.302 1294.39 301.302 1294.39 261.261 1355.91 c 0,4,5
 227 1408.31 227 1408.31 227 1486.07 c 0,6,7
 227 1527.41 227 1527.41 242.222 1626.56 c 1,8,-1
 320.73 1626.56 l 1,9,10
 310.14 1502.98 310.14 1502.98 310.14 1459.89 c 0,11,12
 310.14 1394.86 310.14 1394.86 398.84 1393.09 c 0,13,14
 497.128 1391.16 497.128 1391.16 506.266 1518.54 c 0,15,16
 508.184 1545.08 508.184 1545.08 508.4 1680.83 c 1,17,-1
 586.06 1680.83 l 1,18,19
 588.34 1645.85 588.34 1645.85 588.34 1597.53 c 0,20,21
 588.34 1452.09 588.34 1452.09 700.84 1452.09 c 4,22,23
 785.54 1452.09 785.54 1452.09 785.54 1599.06 c 4,24,25
 785.54 1708.64 785.54 1708.64 774.521 1770.1 c 5,26,-1
 857.705 1770.1 l 5,27,28
 868.68 1694.87 868.68 1694.87 868.68 1580.87 c 4,29,30
 868.68 1511.69 868.68 1511.69 841.188 1456.65 c 4,31,32
 796.118 1367.27 796.118 1367.27 722.84 1358.99 c 4,33,34
 657.525 1351.76 657.525 1351.76 616.258 1379.33 c 4,35,36
 556.63 1418.62 556.63 1418.62 554.84 1431.09 c 1,37,38
 546.096 1383.79 546.096 1383.79 507.838 1339.09 c 128,-1,1
EndSplineSet
EndChar

StartChar: uni0652
Encoding: 1618 1618 82
Width: 0
VWidth: 2186
GlyphClass: 4
Flags: W
AnchorPoint: "Anchor-10" 565.84 1128.5 mark 0
AnchorPoint: "Anchor-9" 565.84 1128.5 mark 0
AnchorPoint: "Anchor-1" 551.84 1702 basemark 0
AnchorPoint: "Anchor-1" 565.84 1128.5 mark 0
LayerCount: 2
Fore
SplineSet
674.569 1383.62 m 0,0,1
 674.569 1428.15 674.569 1428.15 643.439 1459.28 c 128,-1,2
 612.312 1490.41 612.312 1490.41 567.126 1490.41 c 0,3,4
 521.285 1490.41 521.285 1490.41 490.485 1459.61 c 128,-1,5
 459.685 1428.81 459.685 1428.81 459.685 1383.62 c 0,6,7
 459.685 1337.78 459.685 1337.78 490.485 1306.98 c 128,-1,8
 521.285 1276.18 521.285 1276.18 567.126 1276.18 c 0,9,10
 612.314 1276.18 612.314 1276.18 643.439 1307.31 c 128,-1,11
 674.569 1338.44 674.569 1338.44 674.569 1383.62 c 0,0,1
750.396 1383.73 m 128,-1,13
 750.396 1306.88 750.396 1306.88 697.316 1253.46 c 128,-1,14
 644.259 1200.07 644.259 1200.07 567.436 1200.07 c 128,-1,15
 490.613 1200.07 490.613 1200.07 437.557 1253.46 c 128,-1,16
 384.476 1306.88 384.476 1306.88 384.476 1383.73 c 128,-1,17
 384.476 1460.56 384.476 1460.56 437.537 1513.63 c 128,-1,18
 490.596 1566.69 490.596 1566.69 567.436 1566.69 c 128,-1,19
 644.276 1566.69 644.276 1566.69 697.335 1513.63 c 128,-1,12
 750.396 1460.56 750.396 1460.56 750.396 1383.73 c 128,-1,13
EndSplineSet
EndChar

StartChar: uni0653
Encoding: 1619 1619 83
Width: 0
VWidth: 2186
GlyphClass: 4
Flags: W
AnchorPoint: "Anchor-10" 442.84 1264.52 mark 0
AnchorPoint: "Anchor-9" 442.84 1264.52 mark 0
AnchorPoint: "Anchor-1" 442.84 1600.5 basemark 0
AnchorPoint: "Anchor-1" 442.84 1264.52 mark 0
LayerCount: 2
Fore
SplineSet
109.638 1365.05 m 5,0,1
 212.289 1479.87 212.289 1479.87 287.73 1453.49 c 4,2,3
 442.183 1397.9 442.183 1397.9 515.207 1405.97 c 4,4,5
 587.354 1413.79 587.354 1413.79 656.914 1479.92 c 5,6,-1
 704.93 1408.22 l 5,7,8
 617.699 1349.9 617.699 1349.9 559.504 1324.21 c 4,9,10
 491.236 1295.05 491.236 1295.05 293.235 1356.78 c 4,11,12
 239.766 1372.07 239.766 1372.07 165.102 1302.38 c 5,13,-1
 109.638 1365.05 l 5,0,1
EndSplineSet
EndChar

StartChar: uni0657
Encoding: 1623 1623 86
Width: 0
VWidth: 2186
GlyphClass: 4
Flags: W
AnchorPoint: "Anchor-10" 547.84 1279.5 mark 0
AnchorPoint: "Anchor-9" 547.84 1279.5 mark 0
AnchorPoint: "Anchor-1" 547.84 1975 basemark 0
AnchorPoint: "Anchor-1" 547.84 1279.5 mark 0
LayerCount: 2
Fore
SplineSet
501.148 1675.55 m 2,0,1
 509.083 1673.79 509.083 1673.79 527.945 1663.86 c 0,2,3
 636.49 1607.58 636.49 1607.58 636.49 1513.83 c 0,4,5
 636.49 1427.22 636.49 1427.22 567.86 1375.5 c 0,6,7
 541.366 1355.63 541.366 1355.63 478.29 1355.63 c 0,8,9
 405.468 1355.63 405.468 1355.63 366.487 1393.64 c 0,10,11
 311.53 1447.59 311.53 1447.59 311.53 1526.67 c 0,12,13
 311.53 1558.94 311.53 1558.94 325.923 1605.2 c 2,14,-1
 330.858 1621.06 l 1,15,-1
 314.272 1622.04 l 2,16,17
 295.871 1623.12 295.871 1623.12 276.421 1623.66 c 0,18,19
 263.452 1624.02 263.452 1624.02 248.4 1624.15 c 1,20,-1
 248.4 1715.83 l 1,21,22
 278.631 1715.51 278.631 1715.51 306.226 1713.79 c 0,23,24
 338.082 1711.66 338.082 1711.66 367.766 1708.48 c 2,25,-1
 375.369 1707.67 l 1,26,-1
 379.775 1713.92 l 2,27,28
 424.231 1776.99 424.231 1776.99 495.801 1820.55 c 0,29,30
 697.387 1944.51 697.387 1944.51 847.28 1950 c 1,31,-1
 847.28 1858.35 l 1,32,33
 687.009 1853.71 687.009 1853.71 540.898 1739.14 c 0,34,35
 515.54 1719.29 515.54 1719.29 494.545 1697.2 c 2,36,-1
 478.72 1680.54 l 1,37,-1
 501.148 1675.55 l 2,0,1
424.935 1605.66 m 1,38,-1
 413.911 1579.94 l 2,39,40
 403.23 1555.02 403.23 1555.02 403.23 1526.67 c 0,41,42
 403.23 1484.16 403.23 1484.16 426.155 1465.28 c 0,43,44
 447.946 1447.33 447.946 1447.33 474.01 1447.33 c 0,45,46
 502.438 1447.33 502.438 1447.33 518.352 1459.67 c 0,47,48
 542.65 1477.96 542.65 1477.96 542.65 1513.83 c 0,49,50
 542.65 1562.22 542.65 1562.22 486.328 1584.75 c 0,51,52
 464.442 1593.51 464.442 1593.51 436.104 1602.22 c 2,53,-1
 424.935 1605.66 l 1,38,-1
EndSplineSet
EndChar

StartChar: uni065A
Encoding: 1626 1626 87
Width: 1095
VWidth: 2186
GlyphClass: 4
Flags: W
AnchorPoint: "Anchor-10" 547.84 1279.5 mark 0
AnchorPoint: "Anchor-9" 547.84 1279.5 mark 0
AnchorPoint: "Anchor-1" 545.7 1761 basemark 0
AnchorPoint: "Anchor-1" 547.84 1279.5 mark 0
LayerCount: 2
Fore
SplineSet
476.032 1358.84 m 1,0,-1
 282.934 1681.66 l 1,1,-1
 401.783 1681.66 l 1,2,-1
 547.84 1462.57 l 1,3,-1
 693.896 1681.66 l 1,4,-1
 812.746 1681.66 l 1,5,-1
 619.646 1358.84 l 1,6,-1
 476.032 1358.84 l 1,0,-1
EndSplineSet
EndChar

StartChar: afii57392
Encoding: 1632 1632 88
Width: 1177
VWidth: 2181
GlyphClass: 2
Flags: W
LayerCount: 2
Fore
SplineSet
548.74 654.61 m 128,-1,1
 548.74 634.037 548.74 634.037 563.683 619.094 c 128,-1,2
 578.627 604.15 578.627 604.15 599.2 604.15 c 128,-1,3
 619.771 604.15 619.771 604.15 634.715 619.094 c 128,-1,4
 649.66 634.039 649.66 634.039 649.66 654.61 c 128,-1,5
 649.66 675.18 649.66 675.18 634.714 690.126 c 128,-1,6
 619.771 705.07 619.771 705.07 599.2 705.07 c 128,-1,7
 578.628 705.07 578.628 705.07 563.684 690.126 c 128,-1,0
 548.74 675.182 548.74 675.182 548.74 654.61 c 128,-1,1
306.267 651.562 m 128,-1,9
 306.267 774.352 306.267 774.352 392.935 861.525 c 128,-1,10
 479.678 948.775 479.678 948.775 601.947 948.775 c 128,-1,11
 724.221 948.775 724.221 948.775 810.961 861.524 c 128,-1,12
 897.626 774.35 897.626 774.35 897.626 651.562 c 128,-1,13
 897.626 528.765 897.626 528.765 810.959 441.599 c 128,-1,14
 724.211 354.351 724.211 354.351 601.947 354.351 c 128,-1,15
 479.677 354.351 479.677 354.351 392.936 441.599 c 128,-1,8
 306.267 528.771 306.267 528.771 306.267 651.562 c 128,-1,9
EndSplineSet
EndChar

StartChar: afii57393
Encoding: 1633 1633 89
Width: 1177
VWidth: 2181
GlyphClass: 2
Flags: W
LayerCount: 2
Fore
SplineSet
782.177 8.5 m 1,0,-1
 523.482 8.5 l 1,1,-1
 523.386 59.4033 l 2,2,3
 522.57 490.753 522.57 490.753 480.407 752.818 c 1,4,5
 434.906 1056.21 434.906 1056.21 309.578 1325.1 c 2,6,-1
 288.395 1370.55 l 1,7,-1
 514.66 1480.73 l 1,8,-1
 538.769 1440.92 l 2,9,10
 651.371 1254.96 651.371 1254.96 728.639 899.483 c 0,11,12
 779.775 664.226 779.775 664.226 781.989 59.6865 c 2,13,-1
 782.177 8.5 l 1,0,-1
EndSplineSet
EndChar

StartChar: afii57394
Encoding: 1634 1634 90
Width: 1177
VWidth: 2181
GlyphClass: 2
Flags: W
LayerCount: 2
Fore
SplineSet
335.69 1434.49 m 2,0,1
 395.153 1294.93 395.153 1294.93 403.361 1277.43 c 2,2,-1
 404.503 1275.12 l 2,3,4
 435.179 1212.97 435.179 1212.97 478.131 1182.95 c 128,-1,5
 521.084 1152.93 521.084 1152.93 582.025 1149.42 c 0,6,7
 753.229 1139.73 753.229 1139.73 799.262 1229.6 c 0,8,9
 837.229 1303.72 837.229 1303.72 852.563 1420.96 c 2,10,-1
 859.984 1477.71 l 1,11,12
 870.21 1475.21 870.21 1475.21 888.746 1470.55 c 128,-1,13
 907.281 1465.89 907.281 1465.89 915.5 1463.83 c 2,14,-1
 1106.01 1416.2 l 1,15,-1
 1097.28 1369.06 l 2,16,17
 1086.85 1312.78 1086.85 1312.78 1066.24 1238.59 c 0,18,19
 1018.71 1070.56 1018.71 1070.56 910.543 978.443 c 128,-1,20
 802.38 886.324 802.38 886.324 641.32 879.545 c 0,21,22
 580.682 876.993 580.682 876.993 517.092 889.188 c 1,23,24
 540.507 789.854 540.507 789.854 557.872 631.047 c 0,25,26
 566.194 554.982 566.194 554.982 572.267 60.124 c 2,27,-1
 572.898 8.5 l 1,28,-1
 313.754 8.5 l 1,29,-1
 313.664 59.4102 l 2,30,31
 312.896 493.287 312.896 493.287 274.515 726.373 c 0,32,33
 222.79 1040.49 222.79 1040.49 103.934 1295.99 c 2,34,-1
 85.8955 1334.76 l 1,35,-1
 311.044 1492.34 l 1,36,-1
 335.69 1434.49 l 2,0,1
EndSplineSet
EndChar

StartChar: afii57395
Encoding: 1635 1635 91
Width: 1177
VWidth: 2181
GlyphClass: 2
Flags: W
LayerCount: 2
Fore
SplineSet
290.69 1434.49 m 2,0,1
 351.214 1292.45 351.214 1292.45 358.83 1276.43 c 0,2,3
 395.825 1208.03 395.825 1208.03 429.302 1176.4 c 128,-1,4
 462.779 1144.76 462.779 1144.76 487.331 1142.57 c 0,5,6
 594.288 1133.92 594.288 1133.92 605.523 1179.12 c 0,7,8
 612.297 1206.25 612.297 1206.25 612.297 1369.75 c 2,9,-1
 612.297 1421.13 l 1,10,-1
 829.798 1419.5 l 1,11,-1
 830.396 1369.49 l 2,12,13
 831.02 1317.37 831.02 1317.37 834.986 1271.97 c 128,-1,14
 838.953 1226.56 838.953 1226.56 842.776 1205.09 c 128,-1,15
 846.6 1183.62 846.6 1183.62 849.031 1179.29 c 0,16,17
 860.284 1161.16 860.284 1161.16 873.871 1154.55 c 128,-1,18
 887.457 1147.95 887.457 1147.95 912.255 1149.63 c 0,19,20
 916.985 1149.95 916.985 1149.95 923.455 1155.92 c 128,-1,21
 929.925 1161.9 929.925 1161.9 938.841 1179.56 c 128,-1,22
 947.757 1197.22 947.757 1197.22 955.229 1223.79 c 128,-1,23
 962.699 1250.35 962.699 1250.35 968.535 1297.49 c 128,-1,24
 974.371 1344.63 974.371 1344.63 975.58 1403.92 c 2,25,-1
 976.78 1462.73 l 1,26,-1
 1169.99 1431.03 l 1,27,-1
 1176.55 1427.9 l 2,28,29
 1194.23 1419.46 1194.23 1419.46 1203.93 1404.41 c 128,-1,30
 1213.62 1389.37 1213.62 1389.37 1215.95 1372.95 c 128,-1,31
 1218.28 1356.53 1218.28 1356.53 1215.87 1333.25 c 128,-1,32
 1213.46 1309.98 1213.46 1309.98 1209.12 1291.26 c 128,-1,33
 1204.78 1272.53 1204.78 1272.53 1198.8 1246.29 c 128,-1,34
 1192.83 1220.05 1192.83 1220.05 1190.22 1203.88 c 0,35,36
 1167.42 1062.6 1167.42 1062.6 1099.2 981.293 c 128,-1,37
 1030.99 899.989 1030.99 899.989 919.183 896.077 c 0,38,39
 820.317 892.617 820.317 892.617 740.077 958.925 c 1,40,41
 672.99 895.154 672.99 895.154 555.155 887.848 c 0,42,43
 513.72 885.278 513.72 885.278 469.936 891.638 c 1,44,45
 495.439 774.018 495.439 774.018 524.042 533.908 c 0,46,47
 533.382 455.503 533.382 455.503 529.268 58.9707 c 2,48,-1
 528.743 8.5 l 1,49,-1
 268.754 8.5 l 1,50,-1
 268.664 59.4102 l 2,51,52
 267.896 493.287 267.896 493.287 229.515 726.373 c 0,53,54
 177.79 1040.49 177.79 1040.49 58.9336 1295.99 c 2,55,-1
 40.8955 1334.76 l 1,56,-1
 266.044 1492.34 l 1,57,-1
 290.69 1434.49 l 2,0,1
EndSplineSet
EndChar

StartChar: afii57396
Encoding: 1636 1636 92
Width: 1177
VWidth: 2181
GlyphClass: 2
Flags: W
LayerCount: 2
Fore
SplineSet
809.844 1471.95 m 1,0,-1
 794.81 1231.12 l 1,1,-1
 742.36 1236.11 l 2,2,3
 631.62 1246.65 631.62 1246.65 560.415 1214.99 c 0,4,5
 517.418 1194.94 517.418 1194.94 501.456 1169.09 c 128,-1,6
 485.494 1143.23 485.494 1143.23 488.72 1102.09 c 0,7,8
 492.234 1057.85 492.234 1057.85 514.347 1029.95 c 128,-1,9
 536.459 1002.05 536.459 1002.05 584.135 984.001 c 0,10,11
 616.652 971.691 616.652 971.691 747.885 958.464 c 2,12,-1
 793.77 953.839 l 1,13,-1
 793.77 722.097 l 1,14,-1
 752.286 714.218 l 2,15,16
 607.987 686.812 607.987 686.812 526.396 633.253 c 0,17,18
 426.577 566.922 426.577 566.922 412.631 446.447 c 0,19,20
 408.422 410.062 408.422 410.062 412.437 380.782 c 0,21,22
 417.7 342.415 417.7 342.415 436.77 316.076 c 128,-1,23
 455.839 289.737 455.839 289.737 494.989 271.852 c 128,-1,24
 534.139 253.966 534.139 253.966 595.215 252.168 c 128,-1,25
 656.29 250.37 656.29 250.37 745.567 261.085 c 1,26,27
 820.319 271.381 820.319 271.381 936.985 326.93 c 2,28,-1
 1009.91 361.652 l 1,29,-1
 1009.91 77.4717 l 1,30,-1
 977.729 64.6953 l 2,31,32
 846.87 12.7422 846.87 12.7422 675.288 0.873047 c 0,33,34
 473.26 -12.6064 473.26 -12.6064 343.778 53.4102 c 128,-1,35
 214.296 119.427 214.296 119.427 174.639 267.055 c 0,36,37
 154.25 342.96 154.25 342.96 154.25 450.24 c 0,38,39
 154.25 605.601 154.25 605.601 276.541 751.889 c 0,40,41
 324.356 807.796 324.356 807.796 383.307 839.9 c 1,42,43
 272.199 907.381 272.199 907.381 244.847 1036.18 c 0,44,45
 216.932 1168.83 216.932 1168.83 263.523 1267.2 c 128,-1,46
 310.115 1365.57 310.115 1365.57 427.015 1414.58 c 0,47,48
 555.673 1468.51 555.673 1468.51 754.821 1471.21 c 2,49,-1
 809.844 1471.95 l 1,0,-1
EndSplineSet
EndChar

StartChar: afii57397
Encoding: 1637 1637 93
Width: 1177
VWidth: 2181
GlyphClass: 2
Flags: W
LayerCount: 2
Fore
SplineSet
570.648 1027.55 m 1,0,1
 469.123 957.472 469.123 957.472 392.666 807.608 c 0,2,3
 318.064 661.38 318.064 661.38 312.913 550.451 c 0,4,5
 306.055 402.752 306.055 402.752 382.011 340.285 c 0,6,7
 456.672 278.869 456.672 278.869 613.091 278.155 c 0,8,9
 778.775 277.399 778.775 277.399 830.749 366.331 c 0,10,11
 879.163 450.543 879.163 450.543 868.601 580.229 c 0,12,13
 857.891 718.864 857.891 718.864 738.846 876.802 c 0,14,15
 657.936 984.157 657.936 984.157 570.648 1027.55 c 1,0,1
289.425 1182.9 m 1,16,-1
 402.596 1394.14 l 1,17,-1
 441.023 1384.71 l 2,18,19
 626.281 1339.23 626.281 1339.23 751.73 1255.28 c 1,20,21
 920.949 1138.94 920.949 1138.94 1024.21 952.303 c 1,22,23
 1128.35 768.297 1128.35 768.297 1137.94 571.32 c 0,24,25
 1151.65 295.555 1151.65 295.555 1033.13 169.602 c 0,26,27
 888.075 16.835 888.075 16.835 594.154 17.958 c 1,28,29
 295.991 17.958 295.991 17.958 155.078 169.913 c 0,30,31
 9.26074 328.21 9.26074 328.21 39.8691 574.7 c 0,32,33
 63.5928 763.644 63.5928 763.644 158.592 925.315 c 0,34,35
 244.44 1071.41 244.44 1071.41 338.914 1164.34 c 1,36,-1
 289.425 1182.9 l 1,16,-1
EndSplineSet
EndChar

StartChar: afii57398
Encoding: 1638 1638 94
Width: 1177
VWidth: 2181
GlyphClass: 2
Flags: W
LayerCount: 2
Fore
SplineSet
938.271 1409.99 m 2,0,1
 939.711 1107.55 939.711 1107.55 977.631 745.786 c 0,2,3
 1007.5 460.518 1007.5 460.518 1106.89 72.1445 c 2,4,-1
 1123.18 8.5 l 1,5,-1
 845.407 8.5 l 1,6,-1
 835.517 46.7256 l 2,7,8
 746.732 389.872 746.732 389.872 714.006 739.261 c 0,9,10
 687.841 1017.67 687.841 1017.67 682.809 1162.22 c 1,11,12
 587.781 1141.4 587.781 1141.4 460.1 1141.4 c 0,13,14
 272.177 1141.4 272.177 1141.4 94.8613 1192.36 c 2,15,-1
 57.9502 1202.97 l 1,16,-1
 57.9502 1475.08 l 1,17,-1
 121.88 1458.32 l 2,18,19
 298.618 1412 298.618 1412 460.1 1412 c 0,20,21
 669.139 1412 669.139 1412 875.861 1459.46 c 2,22,-1
 937.968 1473.71 l 1,23,-1
 938.271 1409.99 l 2,0,1
EndSplineSet
EndChar

StartChar: afii57399
Encoding: 1639 1639 95
Width: 1177
VWidth: 2181
GlyphClass: 2
Flags: W
LayerCount: 2
Fore
SplineSet
458.077 55.4795 m 2,0,1
 443.107 244.785 443.107 244.785 337.139 632.616 c 0,2,3
 230.973 1021.17 230.973 1021.17 63.1396 1309.87 c 2,4,-1
 36.0166 1356.53 l 1,5,-1
 285.661 1483.34 l 1,6,-1
 308.487 1437.06 l 2,7,8
 471.243 1107.03 471.243 1107.03 566.729 772.816 c 0,9,10
 578.914 730.152 578.914 730.152 588.5 696.391 c 1,11,12
 598.192 730.483 598.192 730.483 610.271 772.816 c 0,13,14
 705.772 1107.09 705.772 1107.09 868.514 1437.06 c 2,15,-1
 891.349 1483.36 l 1,16,-1
 1141 1356.42 l 1,17,-1
 1113.62 1309.71 l 2,18,19
 948.058 1027.3 948.058 1027.3 839.675 631.976 c 0,20,21
 752.152 312.736 752.152 312.736 719.478 53.1309 c 2,22,-1
 713.86 8.5 l 1,23,-1
 461.792 8.5 l 1,24,-1
 458.077 55.4795 l 2,0,1
EndSplineSet
EndChar

StartChar: afii57400
Encoding: 1640 1640 96
Width: 1177
VWidth: 2181
GlyphClass: 2
Flags: W
LayerCount: 2
Fore
SplineSet
461.792 1465.5 m 1,0,-1
 713.86 1465.5 l 1,1,-1
 719.478 1420.87 l 2,2,3
 754.875 1139.63 754.875 1139.63 839.534 842.532 c 0,4,5
 963.479 407.663 963.479 407.663 1125.79 149.659 c 2,6,-1
 1159.12 96.6729 l 1,7,-1
 888.919 -4.43262 l 1,8,-1
 868.514 36.9414 l 2,9,10
 705.771 366.92 705.771 366.92 610.271 701.184 c 0,11,12
 598.611 741.994 598.611 741.994 588.5 779.428 c 1,13,14
 578.389 741.987 578.389 741.987 566.729 701.184 c 0,15,16
 471.229 366.919 471.229 366.919 308.486 36.9414 c 2,17,-1
 288.087 -4.4209 l 1,18,-1
 19.1914 96.1064 l 1,19,-1
 50.3994 148.572 l 2,20,21
 173.809 356.039 173.809 356.039 338.003 844.22 c 0,22,23
 435.438 1132.2 435.438 1132.2 458.077 1418.52 c 2,24,-1
 461.792 1465.5 l 1,0,-1
EndSplineSet
EndChar

StartChar: afii57401
Encoding: 1641 1641 97
Width: 1177
VWidth: 2181
GlyphClass: 2
Flags: W
LayerCount: 2
Fore
SplineSet
563.136 667.374 m 0,0,1
 293.127 684.018 293.127 684.018 173.821 816.525 c 0,2,3
 74 926.648 74 926.648 74 1059.65 c 0,4,5
 74 1232.38 74 1232.38 183.322 1341.79 c 0,6,7
 327.646 1487.33 327.646 1487.33 499.862 1486.2 c 1,8,9
 701.504 1486.2 701.504 1486.2 799.716 1391.51 c 0,10,11
 932.439 1262.4 932.439 1262.4 947.759 1056.74 c 0,12,13
 958.395 913.122 958.395 913.122 977.559 753.417 c 0,14,15
 1017.39 436.771 1017.39 436.771 1107.02 71.6553 c 2,16,-1
 1122.52 8.5 l 1,17,-1
 843.965 8.5 l 1,18,-1
 835.515 49.1104 l 2,19,20
 754.664 437.627 754.664 437.627 723.833 665.579 c 1,21,22
 645.066 662.283 645.066 662.283 563.136 667.374 c 0,0,1
693.53 923.441 m 1,23,-1
 693.53 974.05 l 2,24,25
 693.53 1079.13 693.53 1079.13 654.916 1138.58 c 1,26,27
 593.287 1224.6 593.287 1224.6 505.04 1224.6 c 0,28,29
 433.838 1224.6 433.838 1224.6 382.425 1175 c 0,30,31
 335.647 1129.9 335.647 1129.9 332.55 1062.74 c 0,32,33
 330.465 1013.8 330.465 1013.8 382.832 976.006 c 0,34,35
 427.918 943.464 427.918 943.464 477.713 931.973 c 0,36,37
 559.301 913.146 559.301 913.146 693.53 923.441 c 1,23,-1
EndSplineSet
EndChar

StartChar: afii57381
Encoding: 1642 1642 98
Width: 1177
VWidth: 2186
GlyphClass: 2
Flags: W
LayerCount: 2
Fore
SplineSet
788.04 352 m 1,0,-1
 1056.64 352 l 1,1,-1
 1056.64 8.5 l 1,2,-1
 788.04 8.5 l 1,3,-1
 788.04 352 l 1,0,-1
119.29 1475.5 m 1,4,-1
 387.89 1475.5 l 1,5,-1
 387.89 1132 l 1,6,-1
 119.29 1132 l 1,7,-1
 119.29 1475.5 l 1,4,-1
840.389 1475.5 m 1,8,-1
 1097.2 1475.5 l 1,9,-1
 336.611 8.5 l 1,10,-1
 79.8047 8.5 l 1,11,-1
 840.389 1475.5 l 1,8,-1
EndSplineSet
EndChar

StartChar: uni066B
Encoding: 1643 1643 99
Width: 711
VWidth: 2186
GlyphClass: 2
Flags: W
LayerCount: 2
Fore
SplineSet
443.218 502.139 m 1,0,-1
 568.799 501.203 l 1,1,2
 342.799 113.203 342.799 113.203 130 -230.265 c 1,3,-1
 1.59766 -228.502 l 1,4,5
 94.7988 -78.7969 94.7988 -78.7969 443.218 502.139 c 1,0,-1
EndSplineSet
EndChar

StartChar: uni066C
Encoding: 1644 1644 100
Width: 696
VWidth: 2186
GlyphClass: 2
Flags: W
LayerCount: 2
Fore
SplineSet
291.2 1580.01 m 1,0,-1
 490.97 1580.01 l 1,1,-1
 490.97 1433.52 l 1,2,-1
 320.557 1102.04 l 1,3,-1
 207.225 1102.04 l 1,4,-1
 291.2 1428.73 l 1,5,-1
 291.2 1580.01 l 1,0,-1
EndSplineSet
EndChar

StartChar: afii63167
Encoding: 1645 1645 101
Width: 1194
VWidth: 2186
GlyphClass: 2
Flags: W
LayerCount: 2
Fore
SplineSet
132.901 794.63 m 1,0,-1
 486.633 794.63 l 1,1,-1
 597.061 1130.84 l 1,2,-1
 707.487 794.63 l 1,3,-1
 1061.22 794.63 l 1,4,-1
 775.453 585.725 l 1,5,-1
 884.797 249.809 l 1,6,-1
 597.061 457.729 l 1,7,-1
 309.323 249.809 l 1,8,-1
 418.667 585.725 l 1,9,-1
 132.901 794.63 l 1,0,-1
EndSplineSet
EndChar

StartChar: uni066E
Encoding: 1646 1646 102
Width: 1755
VWidth: 2181
GlyphClass: 2
Flags: W
AnchorPoint: "Anchor-10" 763.22 1102.5 basechar 0
AnchorPoint: "Anchor-7" 533.22 -158 basechar 0
LayerCount: 2
Fore
SplineSet
868.974 0.980469 m 2,0,1
 509.82 0.0966797 509.82 0.0966797 317.131 85.1973 c 0,2,3
 191 141.583 191 141.583 121.137 238.86 c 128,-1,4
 51.2734 336.137 51.2734 336.137 43.4102 467.862 c 0,5,6
 30.2656 688.037 30.2656 688.037 180.333 881.155 c 2,7,-1
 201.019 907.776 l 1,8,-1
 434.838 846.083 l 1,9,-1
 390.399 785.68 l 2,10,11
 282.793 639.415 282.793 639.415 289.271 491.119 c 0,12,13
 292.775 410.544 292.775 410.544 358.319 358.913 c 128,-1,14
 423.863 307.283 423.863 307.283 569.563 284.78 c 0,15,16
 641.919 273.605 641.919 273.605 813.5 273.02 c 1,17,18
 934.552 276.26 934.552 276.26 986.086 281.615 c 0,19,20
 1236.96 309.057 1236.96 309.057 1356.55 398.969 c 128,-1,21
 1476.13 488.882 1476.13 488.882 1483.55 641.382 c 2,22,-1
 1486.22 696.332 l 1,23,-1
 1703.9 669.122 l 5,24,-1
 1705.46 625.728 l 6,25,26
 1710.51 484.491 1710.51 484.491 1652.73 369.774 c 128,-1,27
 1594.95 255.057 1594.95 255.057 1477.71 173.101 c 0,28,29
 1273.77 30.1338 1273.77 30.1338 873.751 1.15918 c 2,30,-1
 871.368 0.987305 l 1,31,-1
 868.974 0.980469 l 2,0,1
EndSplineSet
Substitution2: "'init' Initial Forms in Arabic lookup 13 subtable" uni066E.init
Substitution2: "'medi' Medial Forms in Arabic lookup 11 subtable" uni066E.medi
Substitution2: "'fina' Terminal Forms in Arabic lookup 9 subtable" uni066E.fina
EndChar

StartChar: uni066F
Encoding: 1647 1647 103
Width: 1528
VWidth: 2181
GlyphClass: 2
Flags: W
AnchorPoint: "Anchor-10" 315 1096.5 basechar 0
AnchorPoint: "Anchor-7" 439 -552 basechar 0
LayerCount: 2
Fore
SplineSet
1456.72 173.388 m 0,0,1
 1382.61 -158.945 1382.61 -158.945 1092.14 -332.739 c 1,2,3
 775.39 -523.976 775.39 -523.976 425.97 -439.561 c 0,4,5
 236.963 -393.503 236.963 -393.503 140.747 -256.855 c 128,-1,6
 44.5303 -120.209 44.5303 -120.209 46.8721 93.6133 c 0,7,8
 49.7559 312.23 49.7559 312.23 227.497 639.364 c 2,9,-1
 246.433 674.217 l 1,10,-1
 500.55 609.621 l 1,11,-1
 465.721 550.963 l 2,12,13
 319.302 304.355 319.302 304.355 312.841 107.328 c 0,14,15
 312.436 94.9678 312.436 94.9678 312.53 83.0947 c 0,16,17
 313.739 -68.0771 313.739 -68.0771 393.019 -137.529 c 128,-1,18
 472.298 -206.981 472.298 -206.981 648.447 -205.529 c 0,19,20
 858.156 -203.802 858.156 -203.802 1002.41 -92.5801 c 0,21,22
 1162.83 30.1934 1162.83 30.1934 1199.7 129.599 c 1,23,24
 1156.53 129.316 1156.53 129.316 1084.89 129.239 c 0,25,26
 884.019 128.984 884.019 128.984 794.367 232.399 c 0,27,28
 702.143 339.987 702.143 339.987 719.976 486.398 c 0,29,30
 743.134 682.235 743.134 682.235 865.775 801.062 c 0,31,32
 980.399 912.121 980.399 912.121 1117.18 903.732 c 0,33,34
 1284.51 894.064 1284.51 894.064 1392.23 722.062 c 0,35,36
 1471.14 596.019 1471.14 596.019 1473.99 418.824 c 0,37,38
 1476.57 259.102 1476.57 259.102 1456.72 173.388 c 0,0,1
1100.09 649.651 m 0,39,40
 1053.88 648.597 1053.88 648.597 1023.08 620.491 c 128,-1,41
 992.269 592.386 992.269 592.386 971.716 525.081 c 0,42,43
 963.218 497.769 963.218 497.769 961.532 476.021 c 0,44,45
 958.245 433.614 958.245 433.614 981.156 413.126 c 128,-1,46
 1004.07 392.639 1004.07 392.639 1075.7 387.113 c 0,47,48
 1116.78 383.944 1116.78 383.944 1217.83 387.947 c 1,49,50
 1215.5 464.795 1215.5 464.795 1203.6 522.744 c 0,51,52
 1188.51 596.18 1188.51 596.18 1163.31 623.404 c 128,-1,53
 1138.11 650.629 1138.11 650.629 1100.09 649.651 c 0,39,40
EndSplineSet
Substitution2: "'init' Initial Forms in Arabic lookup 13 subtable" uni066F.init
Substitution2: "'medi' Medial Forms in Arabic lookup 11 subtable" uni066F.medi
Substitution2: "'fina' Terminal Forms in Arabic lookup 9 subtable" uni066F.fina
EndChar

StartChar: uni0670
Encoding: 1648 1648 104
Width: 0
VWidth: 2186
GlyphClass: 4
Flags: W
AnchorPoint: "Anchor-10" 547.84 1279.5 mark 0
AnchorPoint: "Anchor-9" 547.84 1279.5 mark 0
AnchorPoint: "Anchor-1" 547.84 1975 basemark 0
AnchorPoint: "Anchor-1" 547.84 1279.5 mark 0
LayerCount: 2
Fore
SplineSet
501.99 1327.81 m 1,0,-1
 501.99 1926.69 l 1,1,-1
 593.69 1926.69 l 1,2,-1
 593.69 1327.81 l 1,3,-1
 501.99 1327.81 l 1,0,-1
EndSplineSet
EndChar

StartChar: uni0674
Encoding: 1652 1652 105
Width: 639
VWidth: 2186
GlyphClass: 2
Flags: W
LayerCount: 2
Fore
SplineSet
143.54 1515.26 m 1,0,-1
 254.306 1540.82 l 1,1,-1
 219.379 1556.7 l 2,2,3
 176.794 1576.05 176.794 1576.05 161.706 1610 c 0,4,5
 145.68 1647.06 145.68 1647.06 145.68 1692.52 c 0,6,7
 145.68 1788.83 145.68 1788.83 200.568 1830.98 c 0,8,9
 259.108 1876.4 259.108 1876.4 353.1 1876.4 c 0,10,11
 411.842 1876.4 411.842 1876.4 462.08 1846.81 c 1,12,-1
 462.08 1769.8 l 1,13,14
 412.732 1795.4 412.732 1795.4 353.1 1795.4 c 0,15,16
 276.875 1795.4 276.875 1795.4 254.747 1771.97 c 0,17,18
 220.26 1733.92 220.26 1733.92 220.26 1701.08 c 0,19,20
 220.26 1608.9 220.26 1608.9 330.161 1577.33 c 0,21,22
 366.368 1566.36 366.368 1566.36 484.55 1593.69 c 1,23,-1
 484.55 1511.4 l 1,24,-1
 143.54 1434.84 l 1,25,-1
 143.54 1515.26 l 1,0,-1
EndSplineSet
EndChar

StartChar: uni06A1
Encoding: 1697 1697 109
Width: 1747
VWidth: 2181
GlyphClass: 2
Flags: W
AnchorPoint: "Anchor-10" 498.55 1276.28 basechar 0
AnchorPoint: "Anchor-7" 605.55 -101.88 basechar 0
LayerCount: 2
Fore
SplineSet
1371.21 913.033 m 0,0,1
 1331 911.958 1331 911.958 1300.81 875.381 c 128,-1,2
 1270.62 838.805 1270.62 838.805 1251.76 749.395 c 0,3,4
 1247.13 727.675 1247.13 727.675 1248.23 711.438 c 0,5,6
 1249.17 697.585 1249.17 697.585 1254.69 687.998 c 128,-1,7
 1260.21 678.411 1260.21 678.411 1274.63 669.638 c 128,-1,8
 1289.06 660.864 1289.06 660.864 1319.03 657.856 c 128,-1,9
 1349 654.85 1349 654.85 1393.82 657.957 c 0,10,11
 1428.6 659.695 1428.6 659.695 1457.71 661.48 c 1,12,13
 1455.52 738.678 1455.52 738.678 1443.4 797.69 c 0,14,15
 1430.05 866.304 1430.05 866.304 1411.34 889.932 c 128,-1,16
 1392.62 913.56 1392.62 913.56 1371.21 913.033 c 0,0,1
862.56 -1 m 1,17,18
 507.027 0.00585938 507.027 0.00585938 314.235 85.1514 c 0,19,20
 188.146 140.837 188.146 140.837 118.228 238.197 c 128,-1,21
 48.3086 335.557 48.3086 335.557 40.4102 467.862 c 0,22,23
 27.2646 688.036 27.2646 688.036 177.333 881.155 c 2,24,-1
 198.019 907.776 l 1,25,-1
 431.838 846.083 l 1,26,-1
 387.399 785.68 l 2,27,28
 279.793 639.415 279.793 639.415 286.271 491.119 c 0,29,30
 289.817 409.648 289.817 409.648 355.27 358.09 c 128,-1,31
 420.723 306.531 420.723 306.531 566.303 284.82 c 0,32,33
 608.018 278.599 608.018 278.599 809.515 272.997 c 0,34,35
 1123.77 264.262 1123.77 264.262 1306.32 318.102 c 0,36,37
 1398.44 345.116 1398.44 345.116 1430.92 407.021 c 1,38,-1
 1392.95 401.312 l 1,39,-1
 1390.93 401.17 l 2,40,41
 1119.5 382.13 1119.5 382.13 1043.46 529.812 c 0,42,43
 996.973 621.176 996.973 621.176 1010.3 724.532 c 0,44,45
 1038.12 940.555 1038.12 940.555 1164.09 1079.26 c 0,46,47
 1259.18 1184.26 1259.18 1184.26 1407.32 1171.32 c 0,48,49
 1484.44 1164.94 1484.44 1164.94 1542.25 1117.37 c 128,-1,50
 1600.05 1069.8 1600.05 1069.8 1633.88 988.921 c 0,51,52
 1684.61 867.643 1684.61 867.643 1697.68 714.304 c 0,53,54
 1704.32 634.916 1704.32 634.916 1705.1 627.301 c 0,55,56
 1717.01 509.934 1717.01 509.934 1676.67 356.337 c 0,57,58
 1647.14 243.932 1647.14 243.932 1568.15 166.2 c 128,-1,59
 1489.16 88.4688 1489.16 88.4688 1366.7 48.9248 c 0,60,61
 1203.21 -2.97266 1203.21 -2.97266 862.56 -1 c 1,17,18
EndSplineSet
Substitution2: "'init' Initial Forms in Arabic lookup 13 subtable" uni06A1.init
Substitution2: "'medi' Medial Forms in Arabic lookup 11 subtable" uni06A1.medi
Substitution2: "'fina' Terminal Forms in Arabic lookup 9 subtable" uni06A1.fina
EndChar

StartChar: uni06A9
Encoding: 1705 1705 110
Width: 1792
VWidth: 2181
GlyphClass: 2
Flags: W
AnchorPoint: "Anchor-10" 371 1253.34 basechar 0
AnchorPoint: "Anchor-7" 487 -184.68 basechar 0
LayerCount: 2
Fore
SplineSet
860.782 0 m 2,0,1
 507.098 -0.0253906 507.098 -0.0253906 314.131 85.1973 c 0,2,3
 188 141.583 188 141.583 118.137 238.859 c 128,-1,4
 48.2734 336.137 48.2734 336.137 40.4102 467.862 c 0,5,6
 27.2646 688.036 27.2646 688.036 177.333 881.155 c 2,7,-1
 198.019 907.776 l 1,8,-1
 431.838 846.083 l 1,9,-1
 387.399 785.68 l 2,10,11
 279.793 639.415 279.793 639.415 286.271 491.119 c 0,12,13
 289.775 410.544 289.775 410.544 355.319 358.913 c 128,-1,14
 420.863 307.283 420.863 307.283 566.563 284.78 c 0,15,16
 639.213 273.561 639.213 273.561 811.387 273.017 c 2,17,-1
 1058.96 271.004 l 1,18,-1
 1191.41 271.004 l 2,19,20
 1254.63 271.004 1254.63 271.004 1300.71 278.068 c 128,-1,21
 1346.79 285.132 1346.79 285.132 1371.26 297.29 c 128,-1,22
 1395.72 309.447 1395.72 309.447 1407.29 322.321 c 128,-1,23
 1418.86 335.195 1418.86 335.195 1420.96 350.09 c 0,24,25
 1434.27 444.84 1434.27 444.84 1369.68 501.78 c 0,26,27
 1133 711.289 1133 711.289 1012.03 752.941 c 0,28,29
 961.348 769.974 961.348 769.974 934.269 815.779 c 128,-1,30
 907.188 861.585 907.188 861.585 901.723 925.236 c 0,31,32
 891.281 1054.7 891.281 1054.7 1019.68 1163.79 c 0,33,34
 1120.36 1249.32 1120.36 1249.32 1276.37 1332.94 c 0,35,36
 1470.39 1436.94 1470.39 1436.94 1687.23 1499.11 c 2,37,-1
 1752.29 1517.77 l 1,38,-1
 1752.29 1247.21 l 1,39,-1
 1709.67 1240.11 l 2,40,41
 1612.1 1223.87 1612.1 1223.87 1411.88 1130.7 c 0,42,43
 1279.74 1069.89 1279.74 1069.89 1175.93 981.041 c 1,44,45
 1526 786.119 1526 786.119 1641 557.946 c 0,46,47
 1688.32 464.067 1688.32 464.067 1670.1 315.946 c 0,48,49
 1659.3 222.813 1659.3 222.813 1602.18 152.318 c 128,-1,50
 1545.06 81.8232 1545.06 81.8232 1448.32 38.4541 c 0,51,52
 1362.55 0 1362.55 0 1232.74 0 c 2,53,-1
 860.782 0 l 2,0,1
EndSplineSet
Substitution2: "'init' Initial Forms in Arabic lookup 13 subtable" uniFB90
Substitution2: "'medi' Medial Forms in Arabic lookup 11 subtable" uniFB91
Substitution2: "'fina' Terminal Forms in Arabic lookup 9 subtable" uniFB8F
EndChar

StartChar: afii57514
Encoding: 1722 1722 112
Width: 1329
VWidth: 2186
GlyphClass: 2
Flags: W
AnchorPoint: "Anchor-10" 545.734 1103.15 basechar 0
AnchorPoint: "Anchor-7" 407.58 -566.02 basechar 0
LayerCount: 2
Fore
SplineSet
1281.49 242.435 m 1,0,1
 1267.19 -2.10547 1267.19 -2.10547 1150.05 -147.816 c 0,2,3
 1004.11 -329.342 1004.11 -329.342 680.838 -341.959 c 0,4,5
 405.275 -352.816 405.275 -352.816 248.716 -250.704 c 0,6,7
 140.821 -180.332 140.821 -180.332 88.0918 -74.8682 c 128,-1,8
 35.3613 30.5967 35.3613 30.5967 40.6201 164.101 c 0,9,10
 54.9639 500.976 54.9639 500.976 319.832 768.37 c 2,11,-1
 351.021 799.855 l 1,12,-1
 536.351 661.675 l 1,13,-1
 504.267 620.573 l 2,14,15
 183.041 209.063 183.041 209.063 352.146 5.00781 c 0,16,17
 429.386 -88.7051 429.386 -88.7051 683.66 -86.8154 c 0,18,19
 864.132 -85.499 864.132 -85.499 950.035 -11.0195 c 128,-1,20
 1035.94 63.46 1035.94 63.46 1044.13 221.094 c 0,21,22
 1057.31 477.977 1057.31 477.977 1029.92 576.858 c 2,23,-1
 1018.83 616.887 l 1,24,-1
 1276.38 749.06 l 1,25,-1
 1281.93 672.146 l 2,26,27
 1296.3 472.728 1296.3 472.728 1281.49 242.435 c 1,0,1
EndSplineSet
Substitution2: "'init' Initial Forms in Arabic lookup 13 subtable" uni06BA.init
Substitution2: "'medi' Medial Forms in Arabic lookup 11 subtable" uni06BA.medi
Substitution2: "'fina' Terminal Forms in Arabic lookup 9 subtable" uniFB9F
EndChar

StartChar: uni06F4
Encoding: 1780 1780 119
Width: 1177
VWidth: 2181
GlyphClass: 2
Flags: W
LayerCount: 2
Fore
SplineSet
394.545 1263.04 m 1,0,1
 472.211 1417.42 472.211 1417.42 604.397 1455.94 c 0,2,3
 762.982 1502.03 762.982 1502.03 968.225 1459.34 c 2,4,-1
 1008.84 1450.89 l 1,5,-1
 1008.84 1212.39 l 1,6,-1
 943.993 1230.69 l 2,7,8
 907.814 1240.89 907.814 1240.89 827.775 1251.04 c 0,9,10
 688.772 1268.65 688.772 1268.65 622.195 1200.71 c 0,11,12
 576.789 1154.66 576.789 1154.66 569.782 1116.02 c 128,-1,13
 562.775 1077.37 562.775 1077.37 588.243 1038.92 c 0,14,15
 603.31 1014.98 603.31 1014.98 653.327 998.475 c 128,-1,16
 703.346 981.968 703.346 981.968 791.29 981.86 c 0,17,18
 841.331 981.814 841.331 981.814 1007.99 1006.31 c 2,19,-1
 1065.5 1014.77 l 1,20,-1
 1069.21 775.512 l 1,21,-1
 1024.17 769.584 l 2,22,23
 826.669 743.59 826.669 743.59 761.84 743.59 c 0,24,25
 621.184 743.59 621.184 743.59 520.73 788.283 c 1,26,27
 528.553 752.795 528.553 752.795 532.179 729.512 c 0,28,29
 575.532 481.381 575.532 481.381 572.439 59.127 c 2,30,-1
 572.069 8.5 l 1,31,-1
 313.754 8.5 l 1,32,-1
 313.664 59.4102 l 2,33,34
 312.913 483.84 312.913 483.84 274.476 726.615 c 0,35,36
 228.906 1010.53 228.906 1010.53 99.625 1300.44 c 2,37,-1
 81.9854 1339.99 l 1,38,-1
 314.416 1493.01 l 1,39,-1
 336.035 1431.38 l 2,40,41
 372 1328.86 372 1328.86 394.545 1263.04 c 1,0,1
EndSplineSet
EndChar

StartChar: uni06F5
Encoding: 1781 1781 120
Width: 1177
VWidth: 2181
GlyphClass: 2
Flags: W
LayerCount: 2
Fore
SplineSet
699.484 370.299 m 2,0,1
 712.231 322.028 712.231 322.028 735.881 303.556 c 128,-1,2
 759.53 285.083 759.53 285.083 804.814 286.373 c 0,3,4
 836.884 287.139 836.884 287.139 858.807 294.777 c 0,5,6
 877.567 301.316 877.567 301.316 888.971 313.711 c 128,-1,7
 900.375 326.105 900.375 326.105 906.103 349.224 c 128,-1,8
 911.831 372.342 911.831 372.342 905.368 411.596 c 128,-1,9
 898.906 450.85 898.906 450.85 879.938 505.06 c 0,10,11
 774.529 804.396 774.529 804.396 589.421 1049.51 c 1,12,13
 399.875 782.53 399.875 782.53 308.484 500.959 c 0,14,15
 285.365 429.235 285.365 429.235 285.327 380.975 c 0,16,17
 285.285 330.13 285.285 330.13 308.015 310.037 c 128,-1,18
 330.744 289.945 330.744 289.945 395.245 289.945 c 0,19,20
 431.318 289.945 431.318 289.945 454.3 308.472 c 128,-1,21
 477.282 326.999 477.282 326.999 493.842 374.171 c 2,22,-1
 505.815 408.276 l 1,23,-1
 689.456 408.278 l 1,24,-1
 699.484 370.299 l 2,0,1
366.972 8.36426 m 0,25,26
 213.318 8.36426 213.318 8.36426 125.26 91.4092 c 128,-1,27
 37.2012 174.453 37.2012 174.453 29.0723 327.291 c 0,28,29
 18.7305 521.723 18.7305 521.723 138.86 775.857 c 128,-1,30
 258.991 1029.99 258.991 1029.99 507.887 1352.6 c 0,31,32
 519.535 1367.7 519.535 1367.7 532.108 1378.02 c 0,33,34
 558.212 1399.46 558.212 1399.46 588.545 1400.61 c 0,35,36
 636.723 1402.44 636.723 1402.44 676.57 1353.57 c 0,37,38
 930.792 1041.8 930.792 1041.8 1049.43 787.317 c 128,-1,39
 1168.06 532.839 1168.06 532.839 1147.75 328.965 c 0,40,41
 1132.83 178.641 1132.83 178.641 1048.35 95.1104 c 128,-1,42
 963.874 11.5801 963.874 11.5801 820.697 8.87402 c 0,43,44
 669.771 5.81152 669.771 5.81152 591.341 107.402 c 1,45,46
 514.932 8.36621 514.932 8.36621 366.972 8.36426 c 0,25,26
EndSplineSet
EndChar

StartChar: uni06F6
Encoding: 1782 1782 121
Width: 1177
VWidth: 2181
GlyphClass: 2
Flags: W
LayerCount: 2
Fore
SplineSet
196.75 73.3047 m 2,0,1
 273.714 347.031 273.714 347.031 382.166 533.297 c 0,2,3
 449.075 647.979 449.075 647.979 510.175 718.315 c 1,4,5
 410.037 753.2 410.037 753.2 352.272 833.27 c 128,-1,6
 294.507 913.339 294.507 913.339 281.877 1030.04 c 0,7,8
 261.562 1217.51 261.562 1217.51 392.067 1353.33 c 0,9,10
 511.15 1477.27 511.15 1477.27 689.08 1477.27 c 0,11,12
 813.504 1477.27 813.504 1477.27 909.141 1446.76 c 2,13,-1
 944.64 1435.43 l 1,14,-1
 944.64 1181.22 l 1,15,-1
 879.85 1199.42 l 2,16,17
 682.257 1254.91 682.257 1254.91 600.324 1194.47 c 0,18,19
 540.18 1150.64 540.18 1150.64 540.18 1048.37 c 0,20,21
 540.18 980.384 540.18 980.384 588.481 935.597 c 0,22,23
 625.87 900.759 625.87 900.759 722.209 900.541 c 1,24,25
 759.4 905.658 759.4 905.658 964.679 979.025 c 2,26,-1
 1032.84 1003.39 l 1,27,-1
 1032.84 741.923 l 1,28,-1
 999.09 729.794 l 2,29,30
 783.859 652.448 783.859 652.448 641.875 458.562 c 0,31,32
 506.742 274.032 506.742 274.032 450.49 47.2236 c 2,33,-1
 440.887 8.5 l 1,34,-1
 178.529 8.5 l 1,35,-1
 196.75 73.3047 l 2,0,1
EndSplineSet
EndChar

StartChar: uniFB8F
Encoding: 64399 64399 136
Width: 1812
VWidth: 2181
GlyphClass: 2
Flags: W
AnchorPoint: "Anchor-10" 450 1225.5 basechar 0
AnchorPoint: "Anchor-7" 529 -161 basechar 0
LayerCount: 2
Fore
SplineSet
1667.4 296.808 m 1,0,1
 1712.19 270.88 1712.19 270.88 1767.08 270.88 c 2,2,-1
 1879.33 270.88 l 1,3,-1
 1879.33 0 l 1,4,-1
 1781.22 0 l 2,5,6
 1619.45 0 1619.45 0 1527.27 82.6309 c 1,7,8
 1491.89 57.9873 1491.89 57.9873 1448.32 38.4541 c 0,9,10
 1362.55 0 1362.55 0 1232.74 0 c 2,11,-1
 860.782 0 l 2,12,13
 507.098 -0.0253906 507.098 -0.0253906 314.131 85.1973 c 0,14,15
 188 141.583 188 141.583 118.137 238.859 c 128,-1,16
 48.2734 336.137 48.2734 336.137 40.4102 467.862 c 0,17,18
 27.2646 688.036 27.2646 688.036 177.333 881.155 c 2,19,-1
 198.019 907.776 l 1,20,-1
 431.838 846.083 l 1,21,-1
 387.399 785.68 l 2,22,23
 279.793 639.415 279.793 639.415 286.271 491.119 c 0,24,25
 289.775 410.544 289.775 410.544 355.319 358.913 c 128,-1,26
 420.863 307.283 420.863 307.283 566.563 284.78 c 0,27,28
 639.213 273.561 639.213 273.561 811.387 273.017 c 2,29,-1
 1058.96 271.004 l 1,30,-1
 1191.41 271.004 l 2,31,32
 1254.63 271.004 1254.63 271.004 1300.71 278.068 c 128,-1,33
 1346.79 285.132 1346.79 285.132 1371.26 297.29 c 128,-1,34
 1395.72 309.447 1395.72 309.447 1407.29 322.321 c 128,-1,35
 1418.86 335.195 1418.86 335.195 1420.96 350.09 c 0,36,37
 1434.27 444.84 1434.27 444.84 1369.68 501.78 c 0,38,39
 1133 711.289 1133 711.289 1012.03 752.941 c 0,40,41
 961.348 769.974 961.348 769.974 934.269 815.779 c 128,-1,42
 907.188 861.585 907.188 861.585 901.723 925.236 c 0,43,44
 891.281 1054.7 891.281 1054.7 1019.68 1163.79 c 0,45,46
 1120.36 1249.32 1120.36 1249.32 1276.37 1332.94 c 0,47,48
 1470.39 1436.94 1470.39 1436.94 1687.23 1499.11 c 2,49,-1
 1752.29 1517.77 l 1,50,-1
 1752.29 1247.21 l 1,51,-1
 1709.67 1240.11 l 2,52,53
 1612.1 1223.87 1612.1 1223.87 1411.88 1130.7 c 0,54,55
 1279.74 1069.89 1279.74 1069.89 1175.93 981.041 c 1,56,57
 1526 786.119 1526 786.119 1641 557.946 c 0,58,59
 1688.32 464.067 1688.32 464.067 1670.1 315.937 c 0,60,61
 1669.01 306.559 1669.01 306.559 1667.4 296.808 c 1,0,1
EndSplineSet
EndChar

StartChar: uniFB9F
Encoding: 64415 64415 144
Width: 1463
VWidth: 2186
GlyphClass: 2
Flags: W
AnchorPoint: "Anchor-10" 446.092 762.45 basechar 0
AnchorPoint: "Anchor-7" 301.712 -650.104 basechar 0
LayerCount: 2
Fore
SplineSet
1318.18 13.8613 m 1,0,1
 1289.23 -161.152 1289.23 -161.152 1197.05 -275.815 c 0,2,3
 1051.11 -457.342 1051.11 -457.342 727.838 -469.959 c 0,4,5
 452.275 -480.816 452.275 -480.816 295.716 -378.704 c 0,6,7
 187.821 -308.332 187.821 -308.332 135.091 -202.867 c 128,-1,8
 82.3613 -97.4033 82.3613 -97.4033 87.6201 36.0996 c 0,9,10
 101.964 372.986 101.964 372.986 366.832 640.369 c 2,11,-1
 398.021 671.854 l 1,12,-1
 583.351 533.675 l 1,13,-1
 551.267 492.573 l 2,14,15
 230.031 81.0723 230.031 81.0723 399.136 -122.979 c 0,16,17
 476.381 -216.701 476.381 -216.701 730.66 -214.815 c 0,18,19
 911.132 -213.499 911.132 -213.499 997.035 -139.02 c 128,-1,20
 1082.94 -64.54 1082.94 -64.54 1091.13 93.0928 c 0,21,22
 1104.31 349.977 1104.31 349.977 1076.92 448.858 c 2,23,-1
 1065.83 488.887 l 1,24,-1
 1330.91 624.923 l 1,25,-1
 1329.05 539.367 l 2,26,27
 1325.03 354.409 1325.03 354.409 1336.37 311.108 c 0,28,29
 1346.77 271.38 1346.77 271.38 1441.28 271.38 c 2,30,-1
 1534.53 271.38 l 1,31,-1
 1534.53 0.5 l 1,32,-1
 1385.43 0.5 l 2,33,34
 1349.74 0.5 1349.74 0.5 1318.18 13.8613 c 1,0,1
EndSplineSet
EndChar

StartChar: uniFBE8
Encoding: 64488 64488 147
Width: 558
VWidth: 2186
GlyphClass: 2
Flags: W
AnchorPoint: "Anchor-10" 252.93 1067.5 basechar 0
AnchorPoint: "Anchor-7" 284.93 -10.5 basechar 0
LayerCount: 2
Fore
SplineSet
427.626 163.722 m 0,0,1
 340.236 0 340.236 0 90 0 c 2,2,-1
 -50.4004 0 l 1,3,-1
 -50.4004 270.98 l 1,4,-1
 6.0498 270.98 l 2,5,6
 57.6436 270.98 57.6436 270.98 102.453 274.037 c 128,-1,7
 147.263 277.095 147.263 277.095 169.692 282.552 c 0,8,9
 225.339 296.091 225.339 296.091 246.399 358.658 c 4,10,11
 261.193 402.61 261.193 402.61 252.56 485.08 c 128,-1,12
 243.926 567.548 243.926 567.548 206.391 678.414 c 2,13,-1
 192.235 720.224 l 1,14,-1
 398.726 825.219 l 1,15,-1
 419.817 774.28 l 2,16,17
 565.598 422.208 565.598 422.208 427.626 163.722 c 0,0,1
EndSplineSet
EndChar

StartChar: uniFBE9
Encoding: 64489 64489 148
Width: 638
VWidth: 2181
GlyphClass: 2
Flags: W
AnchorPoint: "Anchor-10" 331.93 1015.5 basechar 0
AnchorPoint: "Anchor-7" 313.93 -69.5 basechar 0
LayerCount: 2
Fore
SplineSet
369.827 86.7285 m 1,0,1
 273.474 0 273.474 0 124.9 0 c 2,2,-1
 -37.4004 0 l 1,3,-1
 -37.4004 270.98 l 1,4,-1
 78.0498 270.98 l 2,5,6
 132.659 270.98 132.659 270.98 166.811 279.706 c 0,7,8
 246.589 300.09 246.589 300.09 260.088 400.167 c 2,9,-1
 281.088 555.851 l 5,10,-1
 523.563 597.752 l 1,11,-1
 499.328 375.813 l 2,12,13
 494.828 334.6 494.828 334.6 503.771 313.223 c 128,-1,14
 512.713 291.845 512.713 291.845 534.342 279.518 c 1,15,16
 553.79 270.98 553.79 270.98 630.812 270.98 c 2,17,-1
 709.66 270.98 l 1,18,-1
 709.66 0 l 1,19,-1
 571.96 0 l 2,20,21
 462.625 0 462.625 0 369.827 86.7285 c 1,0,1
EndSplineSet
EndChar

StartChar: uniFE73
Encoding: 65139 65139 156
Width: 573
VWidth: 2186
GlyphClass: 2
Flags: W
AnchorPoint: "Anchor-10" 210.79 1279.5 basechar 0
AnchorPoint: "Anchor-7" 210.79 -111.5 basechar 0
LayerCount: 2
Fore
SplineSet
296.23 350.74 m 2,0,1
 296.23 286.506 296.23 286.506 352.468 230.268 c 0,2,3
 403.354 179.38 403.354 179.38 514.67 179.38 c 2,4,-1
 581.92 179.38 l 1,5,-1
 581.92 8.5 l 1,6,-1
 455.82 8.5 l 2,7,8
 309.266 8.5 309.266 8.5 214.633 103.133 c 0,9,10
 125.35 192.415 125.35 192.415 125.35 337.9 c 2,11,-1
 125.35 370.91 l 1,12,-1
 296.23 370.91 l 1,13,-1
 296.23 350.74 l 2,0,1
EndSplineSet
EndChar

StartChar: uniFE8E
Encoding: 65166 65166 182
Width: 529
VWidth: 2181
GlyphClass: 2
Flags: W
AnchorPoint: "Anchor-10" 267.95 1411 basechar 0
AnchorPoint: "Anchor-7" 276.95 -155.5 basechar 0
LayerCount: 2
Fore
SplineSet
138.504 1268.93 m 1,0,-1
 381.322 1270.65 l 1,1,-1
 376.908 1215.21 l 2,2,3
 341.017 764.419 341.017 764.419 354.933 526.056 c 4,4,5
 369.824 270.98 369.824 270.98 523.83 270.98 c 6,6,-1
 579.08 270.98 l 1,7,-1
 579.08 0.000976562 l 1,8,-1
 526.98 0.000976562 l 2,9,10
 319.108 0.000976562 319.108 0.000976562 223.824 110 c 0,11,12
 132.963 216.465 132.963 216.465 117.214 423.422 c 0,13,14
 91.7991 759.899 91.7991 759.899 134.282 1222.92 c 2,15,-1
 138.504 1268.93 l 1,0,-1
EndSplineSet
EndChar

StartChar: uniFEA2
Encoding: 65186 65186 202
Width: 1247
VWidth: 2181
GlyphClass: 2
Flags: W
AnchorPoint: "Anchor-10" 434.146 1184 basechar 0
AnchorPoint: "Anchor-7" 207.486 -784.14 basechar 0
LayerCount: 2
Fore
SplineSet
534.734 682.151 m 1,0,1
 510.908 696.488 510.908 696.488 426.734 697.151 c 0,2,3
 306.731 698.418 306.731 698.418 213.909 579.942 c 2,4,-1
 182.734 540.151 l 1,5,-1
 21.8789 658.051 l 1,6,-1
 49.1592 697.869 l 2,7,8
 138.263 827.924 138.263 827.924 223.454 886.15 c 0,9,10
 300.764 938.989 300.764 938.989 419.802 932.98 c 0,11,12
 512.657 928.293 512.657 928.293 631.668 895.244 c 1,13,-1
 1006.99 794.473 l 1,14,-1
 974.198 599.118 l 1,15,-1
 928.801 591.436 l 1,16,17
 978.279 423.605 978.279 423.605 1052.08 347.242 c 128,-1,18
 1125.89 270.88 1125.89 270.88 1224.78 270.88 c 2,19,-1
 1317.59 270.88 l 1,20,-1
 1317.59 0 l 1,21,-1
 1248.41 0 l 2,22,23
 1047.42 0 1047.42 0 913.747 134.043 c 128,-1,24
 780.071 268.087 780.071 268.087 717.36 520.871 c 1,25,26
 486.817 424.081 486.817 424.081 382.062 299.417 c 128,-1,27
 277.306 174.752 277.306 174.752 284.357 18.665 c 0,28,29
 288.029 -55.5156 288.029 -55.5156 317.242 -106.672 c 128,-1,30
 346.455 -157.828 346.455 -157.828 404.396 -193.522 c 0,31,32
 551.818 -284.344 551.818 -284.344 797.146 -253.995 c 0,33,34
 917.044 -239.162 917.044 -239.162 1141.04 -136.841 c 2,35,-1
 1198.84 -110.438 l 1,36,-1
 1252.82 -363.288 l 1,37,-1
 1219.09 -381.415 l 2,38,39
 1045.4 -474.759 1045.4 -474.759 876.314 -500.405 c 0,40,41
 718.776 -524.54 718.776 -524.54 595.553 -513.165 c 0,42,43
 306.504 -486.483 306.504 -486.483 157.993 -318.117 c 0,44,45
 30.4969 -173.576 30.4969 -173.576 41.4893 40.2451 c 0,46,47
 63.7346 472.955 63.7346 472.955 534.734 682.151 c 1,0,1
EndSplineSet
EndChar

StartChar: uniFEA3
Encoding: 65187 65187 203
Width: 1278
VWidth: 2181
GlyphClass: 2
Flags: W
AnchorPoint: "Anchor-10" 424 1103.73 basechar 0
AnchorPoint: "Anchor-7" 619 -157.5 basechar 0
LayerCount: 2
Fore
SplineSet
620.381 125.33 m 0,0,1
 402.481 0 402.481 0 50.2549 -0 c 2,2,-1
 -64.4004 0 l 1,3,-1
 -64.4004 270.98 l 1,4,-1
 21.5996 270.98 l 2,5,6
 318.966 270.98 318.966 270.98 454.565 337.354 c 0,7,8
 659.548 436.21 659.548 436.21 783.294 532.032 c 1,9,10
 720.011 553.141 720.011 553.141 637.63 593.207 c 1,11,12
 532.692 645.998 532.692 645.998 477.249 652.541 c 0,13,14
 361.839 666.166 361.839 666.166 210.373 470.928 c 2,15,-1
 179.24 430.798 l 1,16,-1
 -3.87988 571.659 l 1,17,-1
 24.46 611.668 l 2,18,19
 126.998 756.431 126.998 756.431 215.625 829.532 c 0,20,21
 363.025 951.109 363.025 951.109 567.175 897.518 c 0,22,23
 672.945 869.752 672.945 869.752 834.854 781.591 c 1,24,25
 963.215 710.042 963.215 710.042 1185.51 698.412 c 2,26,-1
 1242.99 695.406 l 1,27,-1
 1204.79 476.657 l 1,28,-1
 1168.62 471.078 l 2,29,30
 1107.74 461.688 1107.74 461.688 1067.96 431.066 c 0,31,32
 825.491 244.456 825.491 244.456 620.381 125.33 c 0,0,1
EndSplineSet
EndChar

StartChar: uniFEA4
Encoding: 65188 65188 204
Width: 1224
VWidth: 2181
GlyphClass: 2
Flags: W
AnchorPoint: "Anchor-10" 455 1123.69 basechar 0
AnchorPoint: "Anchor-7" 623 -165.5 basechar 0
LayerCount: 2
Fore
SplineSet
134.24 430.798 m 1,0,-1
 -48.8799 571.659 l 1,1,-1
 -20.54 611.668 l 2,2,3
 81.998 756.431 81.998 756.431 170.625 829.532 c 0,4,5
 318.025 951.109 318.025 951.109 522.175 897.518 c 0,6,7
 635.022 867.895 635.022 867.895 790.078 781.466 c 0,8,9
 918.215 710.042 918.215 710.042 1140.51 698.412 c 2,10,-1
 1199.34 695.335 l 1,11,-1
 1155.92 476.522 l 1,12,-1
 1120.62 471.078 l 2,13,14
 1059.75 461.688 1059.75 461.688 1019.96 431.066 c 0,15,16
 963.581 387.676 963.581 387.676 908.676 347.532 c 1,17,18
 925.56 314.861 925.56 314.861 987.379 293.371 c 128,-1,19
 1049.2 271.88 1049.2 271.88 1161.32 271.88 c 2,20,-1
 1295.94 271.88 l 1,21,-1
 1295.94 0 l 1,22,-1
 1139.92 0 l 2,23,24
 807.409 0 807.409 0 700.518 203.976 c 1,25,26
 634.656 161.499 634.656 161.499 572.376 125.327 c 0,27,28
 354.481 0 354.481 0 32.2549 0 c 2,29,-1
 -82.4004 0 l 1,30,-1
 -82.4004 270.98 l 1,31,-1
 3.59961 270.98 l 2,32,33
 270.966 270.98 270.966 270.98 406.433 337.289 c 0,34,35
 607.985 435.945 607.985 435.945 735.509 532.188 c 1,36,37
 671.939 553.309 671.939 553.309 592.327 593.359 c 0,38,39
 487.693 645.998 487.693 645.998 432.249 652.541 c 0,40,41
 316.839 666.166 316.839 666.166 165.373 470.928 c 2,42,-1
 134.24 430.798 l 1,0,-1
EndSplineSet
EndChar

StartChar: uniFEAA
Encoding: 65194 65194 210
Width: 1051
VWidth: 2181
GlyphClass: 2
Flags: W
AnchorPoint: "Anchor-10" 494.99 1180.65 basechar 0
AnchorPoint: "Anchor-7" 386.5 -185 basechar 0
LayerCount: 2
Fore
SplineSet
586.253 803.566 m 1,0,-1
 838.253 894.286 l 1,1,-1
 842.797 826.826 l 2,2,3
 867.665 457.599 867.665 457.599 881.901 385.505 c 0,4,5
 890.619 344.368 890.619 344.368 925.505 316.13 c 128,-1,6
 960.391 287.891 960.391 287.891 1031.95 271.38 c 1,7,-1
 1122.65 271.38 l 1,8,-1
 1122.65 0.5 l 1,9,-1
 1030.44 0.5 l 2,10,11
 878.226 0.5 878.226 0.5 778.241 98.3418 c 1,12,13
 621.695 -38.9004 621.695 -38.9004 358.247 -24.7041 c 0,14,15
 166.997 -14.9707 166.997 -14.9707 61.1797 58.1562 c 2,16,-1
 39.1748 73.3633 l 1,17,-1
 39.1748 364.53 l 1,18,-1
 114.915 322.512 l 2,19,20
 258.649 242.774 258.649 242.774 378.456 242.632 c 0,21,22
 598.708 242.44 598.708 242.44 615.869 331.233 c 0,23,24
 633.911 421.684 633.911 421.684 591.305 763.084 c 2,25,-1
 586.253 803.566 l 1,0,-1
EndSplineSet
EndChar

StartChar: uniFEAE
Encoding: 65198 65198 214
Width: 852
VWidth: 2186
GlyphClass: 2
Flags: W
AnchorPoint: "Anchor-10" 383 869 basechar 0
AnchorPoint: "Anchor-7" 355.925 -570.55 basechar 0
LayerCount: 2
Fore
SplineSet
444.024 556.754 m 5,0,-1
 701.299 588.042 l 5,1,-1
 699.391 528.599 l 6,2,3
 695.764 415.61 695.764 415.61 708.052 355.145 c 128,-1,4
 720.34 294.68 720.34 294.68 735.72 279.747 c 1,5,6
 756.199 270.98 756.199 270.98 821.84 270.98 c 2,7,-1
 923.6 270.98 l 1,8,-1
 923.6 0.00292969 l 1,9,-1
 872.602 0.000976562 l 2,10,11
 827.562 -0.000748369 827.562 -0.000748369 826.641 0.0078125 c 0,12,13
 739.133 0.188477 739.133 0.188477 683.618 20.1201 c 1,14,15
 627.34 -211.653 627.34 -211.653 481.893 -346.155 c 128,-1,16
 336.44 -480.663 336.44 -480.663 109.016 -510.335 c 2,17,-1
 77.875 -514.398 l 1,18,-1
 -54.8311 -319.025 l 1,19,-1
 20.2725 -303.782 l 2,20,21
 226.044 -262.019 226.044 -262.019 334.103 -145.261 c 128,-1,22
 442.16 -28.5029 442.16 -28.5029 461.75 172.094 c 0,23,24
 473.775 295.223 473.775 295.223 449.744 506.473 c 6,25,-1
 444.024 556.754 l 5,0,-1
EndSplineSet
PairPos2: "'kern' Horizontal Kerning lookup 15-1" uniFB58 dx=70 dy=0 dh=70 dv=0 dx=0 dy=0 dh=0 dv=0
PairPos2: "'kern' Horizontal Kerning lookup 15-1" uniFEF3 dx=70 dy=0 dh=70 dv=0 dx=0 dy=0 dh=0 dv=0
PairPos2: "'kern' Horizontal Kerning lookup 15-1" uniFBFE dx=70 dy=0 dh=70 dv=0 dx=0 dy=0 dh=0 dv=0
PairPos2: "'kern' Horizontal Kerning lookup 15-1" uniFEDF dx=-150 dy=0 dh=-150 dv=0 dx=0 dy=0 dh=0 dv=0
PairPos2: "'kern' Horizontal Kerning lookup 15-1" uniFBAC dx=-150 dy=0 dh=-150 dv=0 dx=0 dy=0 dh=0 dv=0
PairPos2: "'kern' Horizontal Kerning lookup 15-1" uniFB90 dx=-150 dy=0 dh=-150 dv=0 dx=0 dy=0 dh=0 dv=0
PairPos2: "'kern' Horizontal Kerning lookup 15-1" uni06A9 dx=-150 dy=0 dh=-150 dv=0 dx=0 dy=0 dh=0 dv=0
PairPos2: "'kern' Horizontal Kerning lookup 15-1" uni0649 dx=-100 dy=0 dh=-100 dv=0 dx=0 dy=0 dh=0 dv=0
PairPos2: "'kern' Horizontal Kerning lookup 15-1" uni0647 dx=-150 dy=0 dh=-150 dv=0 dx=0 dy=0 dh=0 dv=0
PairPos2: "'kern' Horizontal Kerning lookup 15-1" uniFEE7 dx=-150 dy=0 dh=-150 dv=0 dx=0 dy=0 dh=0 dv=0
PairPos2: "'kern' Horizontal Kerning lookup 15-1" uniFEE3 dx=-150 dy=0 dh=-150 dv=0 dx=0 dy=0 dh=0 dv=0
PairPos2: "'kern' Horizontal Kerning lookup 15-1" uni0645 dx=-150 dy=0 dh=-150 dv=0 dx=0 dy=0 dh=0 dv=0
PairPos2: "'kern' Horizontal Kerning lookup 15-1" uniFEDB dx=-150 dy=0 dh=-150 dv=0 dx=0 dy=0 dh=0 dv=0
PairPos2: "'kern' Horizontal Kerning lookup 15-1" uniFED7 dx=-150 dy=0 dh=-150 dv=0 dx=0 dy=0 dh=0 dv=0
PairPos2: "'kern' Horizontal Kerning lookup 15-1" uniFED3 dx=-150 dy=0 dh=-150 dv=0 dx=0 dy=0 dh=0 dv=0
PairPos2: "'kern' Horizontal Kerning lookup 15-1" uni0641 dx=-150 dy=0 dh=-150 dv=0 dx=0 dy=0 dh=0 dv=0
PairPos2: "'kern' Horizontal Kerning lookup 15-1" uniFECF dx=-70 dy=0 dh=-70 dv=0 dx=0 dy=0 dh=0 dv=0
PairPos2: "'kern' Horizontal Kerning lookup 15-1" uniFECB dx=-70 dy=0 dh=-70 dv=0 dx=0 dy=0 dh=0 dv=0
PairPos2: "'kern' Horizontal Kerning lookup 15-1" uniFEC7 dx=-150 dy=0 dh=-150 dv=0 dx=0 dy=0 dh=0 dv=0
PairPos2: "'kern' Horizontal Kerning lookup 15-1" uni0638 dx=-150 dy=0 dh=-150 dv=0 dx=0 dy=0 dh=0 dv=0
PairPos2: "'kern' Horizontal Kerning lookup 15-1" uniFEC3 dx=-150 dy=0 dh=-150 dv=0 dx=0 dy=0 dh=0 dv=0
PairPos2: "'kern' Horizontal Kerning lookup 15-1" uni0637 dx=-150 dy=0 dh=-150 dv=0 dx=0 dy=0 dh=0 dv=0
PairPos2: "'kern' Horizontal Kerning lookup 15-1" uniFEBF dx=-150 dy=0 dh=-150 dv=0 dx=0 dy=0 dh=0 dv=0
PairPos2: "'kern' Horizontal Kerning lookup 15-1" uni0636 dx=-150 dy=0 dh=-150 dv=0 dx=0 dy=0 dh=0 dv=0
PairPos2: "'kern' Horizontal Kerning lookup 15-1" uniFEBB dx=-150 dy=0 dh=-150 dv=0 dx=0 dy=0 dh=0 dv=0
PairPos2: "'kern' Horizontal Kerning lookup 15-1" uni0635 dx=-150 dy=0 dh=-150 dv=0 dx=0 dy=0 dh=0 dv=0
PairPos2: "'kern' Horizontal Kerning lookup 15-1" uniFEB7 dx=-150 dy=0 dh=-150 dv=0 dx=0 dy=0 dh=0 dv=0
PairPos2: "'kern' Horizontal Kerning lookup 15-1" uni0634 dx=-150 dy=0 dh=-150 dv=0 dx=0 dy=0 dh=0 dv=0
PairPos2: "'kern' Horizontal Kerning lookup 15-1" uniFEB3 dx=-150 dy=0 dh=-150 dv=0 dx=0 dy=0 dh=0 dv=0
PairPos2: "'kern' Horizontal Kerning lookup 15-1" uni0633 dx=-150 dy=0 dh=-150 dv=0 dx=0 dy=0 dh=0 dv=0
PairPos2: "'kern' Horizontal Kerning lookup 15-1" uni0630 dx=-150 dy=0 dh=-150 dv=0 dx=0 dy=0 dh=0 dv=0
PairPos2: "'kern' Horizontal Kerning lookup 15-1" uni062F dx=-150 dy=0 dh=-150 dv=0 dx=0 dy=0 dh=0 dv=0
PairPos2: "'kern' Horizontal Kerning lookup 15-1" uniFEA7 dx=-70 dy=0 dh=-70 dv=0 dx=0 dy=0 dh=0 dv=0
PairPos2: "'kern' Horizontal Kerning lookup 15-1" uniFEA3 dx=-70 dy=0 dh=-70 dv=0 dx=0 dy=0 dh=0 dv=0
PairPos2: "'kern' Horizontal Kerning lookup 15-1" uniFE9F dx=-70 dy=0 dh=-70 dv=0 dx=0 dy=0 dh=0 dv=0
PairPos2: "'kern' Horizontal Kerning lookup 15-1" uniFE9B dx=-150 dy=0 dh=-150 dv=0 dx=0 dy=0 dh=0 dv=0
PairPos2: "'kern' Horizontal Kerning lookup 15-1" uni062B dx=-150 dy=0 dh=-150 dv=0 dx=0 dy=0 dh=0 dv=0
PairPos2: "'kern' Horizontal Kerning lookup 15-1" uniFE97 dx=-150 dy=0 dh=-150 dv=0 dx=0 dy=0 dh=0 dv=0
PairPos2: "'kern' Horizontal Kerning lookup 15-1" uni062A dx=-150 dy=0 dh=-150 dv=0 dx=0 dy=0 dh=0 dv=0
PairPos2: "'kern' Horizontal Kerning lookup 15-1" uni0629 dx=-150 dy=0 dh=-150 dv=0 dx=0 dy=0 dh=0 dv=0
PairPos2: "'kern' Horizontal Kerning lookup 15-1" uni0628 dx=-150 dy=0 dh=-150 dv=0 dx=0 dy=0 dh=0 dv=0
PairPos2: "'kern' Horizontal Kerning lookup 15-1" uni0627 dx=-170 dy=0 dh=-170 dv=0 dx=0 dy=0 dh=0 dv=0
PairPos2: "'kern' Horizontal Kerning lookup 15-1" uni0622 dx=-170 dy=0 dh=-170 dv=0 dx=0 dy=0 dh=0 dv=0
PairPos2: "'kern' Horizontal Kerning lookup 15-1" uniFB94 dx=-150 dy=0 dh=-150 dv=0 dx=0 dy=0 dh=0 dv=0
PairPos2: "'kern' Horizontal Kerning lookup 15-1" afii57509 dx=-150 dy=0 dh=-150 dv=0 dx=0 dy=0 dh=0 dv=0
PairPos2: "'kern' Horizontal Kerning lookup 15-1" uniFB56 dx=-150 dy=0 dh=-150 dv=0 dx=0 dy=0 dh=0 dv=0
PairPos2: "'kern' Horizontal Kerning lookup 15-1" afii57506 dx=-150 dy=0 dh=-150 dv=0 dx=0 dy=0 dh=0 dv=0
EndChar

StartChar: uniFEB2
Encoding: 65202 65202 218
Width: 2380
VWidth: 2186
GlyphClass: 2
Flags: W
AnchorPoint: "Anchor-10" 601 932.5 basechar 0
AnchorPoint: "Anchor-7" 436 -650.5 basechar 0
LayerCount: 2
Fore
SplineSet
2082.17 88.8955 m 1,0,1
 1992.75 -0.243164 1992.75 -0.243164 1850.51 -0.994141 c 1,2,3
 1657.98 -17.2109 1657.98 -17.2109 1586.34 68.7725 c 0,4,5
 1580.43 76.0342 1580.43 76.0342 1575.37 82.8096 c 1,6,7
 1507.69 1.29297 1507.69 1.29297 1385.81 0.00292969 c 0,8,9
 1318.23 -0.711914 1318.23 -0.711914 1270.86 17.9834 c 1,10,11
 1241.74 -160.526 1241.74 -160.526 1149.05 -275.816 c 0,12,13
 1003.11 -457.342 1003.11 -457.342 679.838 -469.959 c 0,14,15
 404.275 -480.816 404.275 -480.816 247.716 -378.704 c 0,16,17
 139.843 -308.347 139.843 -308.347 87.1025 -202.866 c 128,-1,18
 34.3623 -97.3857 34.3623 -97.3857 39.6162 36.0195 c 0,19,20
 52.8438 371.844 52.8438 371.844 318.832 640.37 c 2,21,-1
 350.021 671.855 l 1,22,-1
 535.351 533.675 l 1,23,-1
 503.267 492.573 l 2,24,25
 182.041 81.0645 182.041 81.0645 351.146 -122.99 c 0,26,27
 428.383 -216.701 428.383 -216.701 682.66 -214.815 c 0,28,29
 863.132 -213.499 863.132 -213.499 949.035 -139.02 c 128,-1,30
 1034.94 -64.54 1034.94 -64.54 1043.13 93.0928 c 0,31,32
 1056.31 349.977 1056.31 349.977 1028.92 448.858 c 2,33,-1
 1017.83 488.887 l 1,34,-1
 1282.91 624.923 l 1,35,-1
 1281.05 539.367 l 2,36,37
 1277.05 355.276 1277.05 355.276 1290.62 309.674 c 2,38,-1
 1291.37 307.159 l 1,39,-1
 1291.86 304.58 l 2,40,41
 1293.25 297.214 1293.25 297.214 1296 291.759 c 0,42,43
 1310.26 263.493 1310.26 263.493 1381.3 264.485 c 0,44,45
 1440.72 265.789 1440.72 265.789 1481.45 349.193 c 0,46,47
 1485.39 357.253 1485.39 357.253 1489.18 366.127 c 2,48,-1
 1578.41 575.447 l 1,49,-1
 1779.66 575.447 l 1,50,51
 1777.9 566.21 1777.9 566.21 1774.59 546.113 c 128,-1,52
 1771.29 526.017 1771.29 526.017 1769.32 515.744 c 2,53,-1
 1742.26 359.486 l 2,54,55
 1736.99 329.058 1736.99 329.058 1739.1 307.277 c 0,56,57
 1742.11 276.191 1742.11 276.191 1760.22 264.96 c 128,-1,58
 1778.33 253.729 1778.33 253.729 1835 259.381 c 2,59,-1
 1837.52 259.633 l 1,60,-1
 1840.06 259.633 l 2,61,62
 1871.27 259.633 1871.27 259.633 1893.48 275.119 c 0,63,64
 1959.7 320.654 1959.7 320.654 1971.3 383.534 c 128,-1,65
 1982.89 446.414 1982.89 446.414 1938.24 550.35 c 1,66,-1
 1918.22 594.721 l 1,67,-1
 2121 697.828 l 1,68,-1
 2145.83 658.592 l 2,69,70
 2214.74 549.684 2214.74 549.684 2201.9 361.036 c 0,71,72
 2201.78 359.707 2201.78 359.707 2201.65 358.351 c 0,73,74
 2199.37 339.614 2199.37 339.614 2208.24 325.081 c 128,-1,75
 2217.12 310.549 2217.12 310.549 2246.22 294.123 c 0,76,77
 2286.52 271.38 2286.52 271.38 2367.46 271.38 c 2,78,-1
 2450.33 271.38 l 1,79,-1
 2450.33 0.5 l 1,80,-1
 2338.92 0.5 l 2,81,82
 2170.68 0.5 2170.68 0.5 2082.17 88.8955 c 1,0,1
EndSplineSet
EndChar

StartChar: uniFEB3
Encoding: 65203 65203 219
Width: 1563
VWidth: 2186
GlyphClass: 2
Flags: W
AnchorPoint: "Anchor-10" 652.5 1004.5 basechar 0
AnchorPoint: "Anchor-7" 672.5 -139 basechar 0
LayerCount: 2
Fore
SplineSet
1081.89 260.633 m 2,0,1
 1110.04 260.633 1110.04 260.633 1137.59 277.609 c 0,2,3
 1282.97 367.195 1282.97 367.195 1150.9 674.634 c 2,4,-1
 1132.03 718.561 l 1,5,-1
 1340.01 824.313 l 1,6,-1
 1362.13 776.003 l 2,7,8
 1519.58 432.135 1519.58 432.135 1388.69 180.146 c 0,9,10
 1296.13 1.58496 1296.13 1.58496 1092.59 0.00585938 c 1,11,12
 906.886 -17.5303 906.886 -17.5303 836.395 68.9414 c 0,13,14
 828.906 78.0938 828.906 78.0938 822.094 87.5615 c 1,15,16
 749.125 13.1191 749.125 13.1191 605.085 0.21582 c 0,17,18
 374.933 -21.1084 374.933 -21.1084 287.761 87.0664 c 1,19,20
 198.188 0 198.188 0 34.3887 0 c 2,21,-1
 -54.4004 0 l 1,22,-1
 -54.4004 270.98 l 1,23,-1
 15.8477 270.98 l 2,24,25
 83.5933 270.98 83.5933 270.98 130.045 309.583 c 0,26,27
 174.937 346.89 174.937 346.89 207.447 436.17 c 2,28,-1
 259.258 578.453 l 1,29,-1
 480.794 578.453 l 1,30,-1
 441.987 408.301 l 2,31,32
 436.622 384.779 436.622 384.779 436.358 364.107 c 0,33,34
 435.723 314.423 435.723 314.423 469.863 290.005 c 128,-1,35
 504.003 265.587 504.003 265.587 598.003 264.495 c 0,36,37
 645.663 263.939 645.663 263.939 677.486 284.236 c 128,-1,38
 709.311 304.533 709.311 304.533 732.675 351.59 c 0,39,40
 736.445 359.186 736.445 359.186 739.365 366.133 c 2,41,-1
 828.601 578.453 l 5,42,-1
 1029.85 578.453 l 5,43,-1
 992.451 359.492 l 2,44,45
 986.826 326.559 986.826 326.559 989.222 304.062 c 0,46,47
 992.368 274.521 992.368 274.521 1008.38 264.54 c 128,-1,48
 1024.39 254.562 1024.39 254.562 1076.26 260.321 c 2,49,-1
 1079.07 260.633 l 1,50,-1
 1081.89 260.633 l 2,0,1
EndSplineSet
EndChar

StartChar: uniFEB4
Encoding: 65204 65204 220
Width: 1652
VWidth: 2186
GlyphClass: 2
Flags: W
AnchorPoint: "Anchor-10" 720.5 999.5 basechar 0
AnchorPoint: "Anchor-7" 780.5 -159 basechar 0
LayerCount: 2
Fore
SplineSet
1445.2 383.743 m 1,0,1
 1457.09 336.167 1457.09 336.167 1481.19 312.522 c 128,-1,2
 1505.28 288.879 1505.28 288.879 1547.81 281.176 c 0,3,4
 1598.67 271.88 1598.67 271.88 1621.45 271.88 c 2,5,-1
 1724.64 271.88 l 1,6,-1
 1724.64 0 l 1,7,-1
 1576.66 0 l 2,8,9
 1421.15 0 1421.15 0 1335.38 99.9766 c 1,10,11
 1247.28 1.16895 1247.28 1.16895 1092.58 0.00488281 c 1,12,13
 906.886 -17.5303 906.886 -17.5303 836.395 68.9414 c 0,14,15
 828.906 78.0938 828.906 78.0938 822.094 87.5615 c 1,16,17
 749.125 13.1191 749.125 13.1191 605.085 0.21582 c 0,18,19
 374.933 -21.1084 374.933 -21.1084 287.761 87.0664 c 1,20,21
 198.188 0 198.188 0 34.3887 0 c 2,22,-1
 -54.4004 0 l 1,23,-1
 -54.4004 270.98 l 1,24,-1
 15.8477 270.98 l 2,25,26
 83.5933 270.98 83.5933 270.98 130.045 309.583 c 0,27,28
 175.891 347.683 175.891 347.683 207.447 436.17 c 2,29,-1
 259.258 581.453 l 1,30,-1
 480.794 581.453 l 1,31,-1
 441.987 408.301 l 2,32,33
 436.617 384.34 436.617 384.34 436.358 364.107 c 0,34,35
 435.723 314.423 435.723 314.423 469.863 290.005 c 128,-1,36
 504.003 265.587 504.003 265.587 598.003 264.495 c 0,37,38
 645.663 263.939 645.663 263.939 677.486 284.236 c 128,-1,39
 709.311 304.533 709.311 304.533 732.675 351.59 c 0,40,41
 736.254 358.8 736.254 358.8 739.365 366.133 c 2,42,-1
 828.601 576.453 l 5,43,-1
 1029.85 576.453 l 5,44,-1
 992.451 359.492 l 2,45,46
 986.806 326.745 986.806 326.745 989.222 304.062 c 0,47,48
 992.368 274.521 992.368 274.521 1008.38 264.54 c 128,-1,49
 1024.39 254.562 1024.39 254.562 1076.26 260.321 c 2,50,-1
 1079.07 260.633 l 1,51,-1
 1081.89 260.633 l 2,52,53
 1110.04 260.633 1110.04 260.633 1137.59 277.609 c 0,54,55
 1173.03 299.445 1173.03 299.445 1191.05 334.031 c 128,-1,56
 1209.06 368.617 1209.06 368.617 1208.68 426.373 c 128,-1,57
 1208.29 484.157 1208.29 484.157 1185.18 562.976 c 2,58,-1
 1173.27 603.597 l 1,59,-1
 1380.45 708.941 l 1,60,-1
 1400.08 654.667 l 2,61,62
 1443.06 535.834 1443.06 535.834 1445.2 383.743 c 1,0,1
EndSplineSet
EndChar

StartChar: uniFEBA
Encoding: 65210 65210 226
Width: 2473
VWidth: 2181
GlyphClass: 2
Flags: W
AnchorPoint: "Anchor-10" 628 1032.5 basechar 0
AnchorPoint: "Anchor-7" 415 -622.5 basechar 0
LayerCount: 2
Fore
SplineSet
1564.94 282.009 m 1,0,-1
 1631.74 282.009 l 2,1,2
 1849.34 282.009 1849.34 282.009 1950.07 321.487 c 0,3,4
 2036.51 355.346 2036.51 355.346 2050.52 414.034 c 1,5,6
 2055.67 459.145 2055.67 459.145 2034.17 498.425 c 0,7,8
 2017.85 528.244 2017.85 528.244 1961.46 531.171 c 0,9,10
 1896.2 534.557 1896.2 534.557 1782.08 468.495 c 1,11,12
 1666.12 389.776 1666.12 389.776 1564.94 282.009 c 1,0,-1
2129.72 107.986 m 1,13,14
 1966.08 -0 1966.08 -0 1689.52 0 c 2,15,-1
 1386.92 0 l 2,16,17
 1323.19 0 1323.19 0 1273.68 26.5938 c 1,18,19
 1245.97 -156.513 1245.97 -156.513 1150.05 -275.816 c 0,20,21
 1004.11 -457.342 1004.11 -457.342 680.838 -469.959 c 0,22,23
 405.275 -480.816 405.275 -480.816 248.716 -378.704 c 0,24,25
 140.843 -308.347 140.843 -308.347 88.1025 -202.866 c 128,-1,26
 35.3623 -97.3857 35.3623 -97.3857 40.6162 36.0195 c 0,27,28
 53.8438 371.844 53.8438 371.844 319.832 640.37 c 2,29,-1
 351.021 671.855 l 1,30,-1
 536.351 533.675 l 1,31,-1
 504.267 492.573 l 2,32,33
 183.041 81.0645 183.041 81.0645 352.146 -122.99 c 0,34,35
 429.383 -216.701 429.383 -216.701 683.66 -214.815 c 0,36,37
 864.132 -213.499 864.132 -213.499 950.035 -139.02 c 128,-1,38
 1035.94 -64.54 1035.94 -64.54 1044.13 93.0928 c 0,39,40
 1057.31 349.977 1057.31 349.977 1029.92 448.858 c 2,41,-1
 1018.83 488.887 l 1,42,-1
 1283.91 624.923 l 1,43,-1
 1282.05 539.367 l 2,44,45
 1278.87 393.191 1278.87 393.191 1285.82 331.832 c 1,46,47
 1506.71 641.826 1506.71 641.826 1761.25 755.971 c 0,48,49
 1985.54 856.84 1985.54 856.84 2149.2 758.407 c 0,50,51
 2246.62 699.824 2246.62 699.824 2287.02 600.904 c 128,-1,52
 2327.42 501.984 2327.42 501.984 2310.18 373.293 c 0,53,54
 2307.5 353.055 2307.5 353.055 2302.26 332.573 c 1,55,56
 2362.77 270.881 2362.77 270.881 2452.25 270.881 c 2,57,-1
 2546.54 270.881 l 1,58,-1
 2546.54 0 l 1,59,-1
 2430.85 0 l 2,60,61
 2219.29 0 2219.29 0 2129.72 107.986 c 1,13,14
EndSplineSet
EndChar

StartChar: uniFEBB
Encoding: 65211 65211 227
Width: 1634
VWidth: 2181
GlyphClass: 2
Flags: W
AnchorPoint: "Anchor-10" 548.3 1120.8 basechar 0
AnchorPoint: "Anchor-7" 667.3 -202 basechar 0
LayerCount: 2
Fore
SplineSet
805.583 282.009 m 1,0,-1
 872.379 282.009 l 2,1,2
 1089.98 282.009 1089.98 282.009 1190.71 321.487 c 0,3,4
 1277.15 355.346 1277.15 355.346 1291.16 414.037 c 1,5,6
 1296.3 459.153 1296.3 459.153 1274.81 498.431 c 0,7,8
 1258.5 528.242 1258.5 528.242 1202.1 531.171 c 0,9,10
 1136.85 534.557 1136.85 534.557 1022.72 468.495 c 1,11,12
 906.768 389.772 906.768 389.772 805.583 282.009 c 1,0,-1
529.997 336.778 m 1,13,14
 749.317 642.703 749.317 642.703 1001.9 755.967 c 0,15,16
 1226.17 856.833 1226.17 856.833 1389.85 758.405 c 0,17,18
 1487.27 699.82 1487.27 699.82 1527.67 600.906 c 128,-1,19
 1568.06 501.992 1568.06 501.992 1550.81 373.254 c 0,20,21
 1530.6 220.538 1530.6 220.538 1383.2 116.788 c 0,22,23
 1218.46 0 1218.46 0 930.162 0 c 2,24,-1
 627.567 0 l 2,25,26
 450.332 0 450.332 0 343.116 124.466 c 1,27,28
 223.828 0 223.828 0 60.9902 0 c 2,29,-1
 -71.4004 0 l 1,30,-1
 -71.4004 270.98 l 1,31,-1
 2.13965 270.98 l 2,32,33
 98.8555 270.98 98.8555 270.98 140.373 303.198 c 0,34,35
 144.221 306.67 144.221 306.67 155.138 324.135 c 128,-1,36
 166.054 341.6 166.054 341.6 185.252 378.077 c 128,-1,37
 204.45 414.555 204.45 414.555 223.712 457.313 c 2,38,-1
 277.646 577.04 l 1,39,-1
 522.769 577.04 l 1,40,-1
 477.922 402.497 l 2,41,42
 470.682 374.317 470.682 374.317 479.589 361.423 c 128,-1,43
 488.496 348.528 488.496 348.528 529.997 336.778 c 1,13,14
EndSplineSet
EndChar

StartChar: uniFEBC
Encoding: 65212 65212 228
Width: 1711
VWidth: 2181
GlyphClass: 2
Flags: W
AnchorPoint: "Anchor-10" 580.5 1185.5 basechar 0
AnchorPoint: "Anchor-7" 666.5 -209 basechar 0
LayerCount: 2
Fore
SplineSet
805.583 282.009 m 1,0,-1
 872.379 282.009 l 2,1,2
 1089.98 282.009 1089.98 282.009 1190.71 321.487 c 0,3,4
 1277.15 355.346 1277.15 355.346 1291.16 414.037 c 1,5,6
 1296.3 459.153 1296.3 459.153 1274.81 498.431 c 0,7,8
 1258.5 528.242 1258.5 528.242 1202.1 531.171 c 0,9,10
 1136.85 534.557 1136.85 534.557 1022.72 468.495 c 1,11,12
 906.768 389.772 906.768 389.772 805.583 282.009 c 1,0,-1
1368.86 106.996 m 1,13,14
 1205.44 0 1205.44 0 930.162 0 c 2,15,-1
 627.567 0 l 2,16,17
 450.332 0 450.332 0 343.116 124.466 c 1,18,19
 223.828 0 223.828 0 60.9902 0 c 2,20,-1
 -71.4004 0 l 1,21,-1
 -71.4004 270.98 l 1,22,-1
 2.13965 270.98 l 2,23,24
 98.8555 270.98 98.8555 270.98 140.373 303.198 c 0,25,26
 144.221 306.67 144.221 306.67 155.138 324.135 c 128,-1,27
 166.054 341.6 166.054 341.6 185.252 378.077 c 128,-1,28
 204.45 414.555 204.45 414.555 223.712 457.313 c 2,29,-1
 277.646 577.04 l 1,30,-1
 522.769 577.04 l 1,31,-1
 477.922 402.497 l 2,32,33
 470.682 374.317 470.682 374.317 479.589 361.423 c 128,-1,34
 488.496 348.528 488.496 348.528 529.997 336.778 c 1,35,36
 749.317 642.703 749.317 642.703 1001.9 755.967 c 0,37,38
 1226.17 856.833 1226.17 856.833 1389.85 758.405 c 0,39,40
 1487.27 699.825 1487.27 699.825 1527.66 600.905 c 128,-1,41
 1568.06 501.985 1568.06 501.985 1550.82 373.285 c 0,42,43
 1548.15 353.102 1548.15 353.102 1542.93 332.663 c 1,44,45
 1603.05 271.38 1603.05 271.38 1691.51 271.38 c 2,46,-1
 1785.8 271.38 l 1,47,-1
 1785.8 0.5 l 1,48,-1
 1670.11 0.5 l 2,49,50
 1458.02 0.5 1458.02 0.5 1368.86 106.996 c 1,13,14
EndSplineSet
EndChar

StartChar: uniFEC2
Encoding: 65218 65218 234
Width: 1530
VWidth: 2181
GlyphClass: 2
Flags: W
AnchorPoint: "Anchor-7" 711.13 -174 basechar 0
AnchorPoint: "Anchor-10" 317.67 1414.79 basechar 0
LayerCount: 2
Fore
SplineSet
649.318 282.009 m 1,0,-1
 716.115 282.009 l 2,1,2
 933.723 282.009 933.723 282.009 1034.45 321.487 c 0,3,4
 1120.89 355.346 1120.89 355.346 1134.9 414.037 c 1,5,6
 1140.04 459.152 1140.04 459.152 1118.55 498.425 c 0,7,8
 1102.23 528.244 1102.23 528.244 1045.84 531.171 c 0,9,10
 980.579 534.557 980.579 534.557 866.459 468.495 c 1,11,12
 750.5 389.771 750.5 389.771 649.318 282.009 c 1,0,-1
1199.42 98.624 m 1,13,14
 1038.8 -0 1038.8 -0 773.898 0 c 2,15,-1
 561.304 0 l 2,16,17
 451.691 0 451.691 0 371.262 57.3135 c 1,18,19
 306 0 306 0 170.304 0 c 2,20,-1
 40.75 0 l 1,21,-1
 40.75 270.979 l 1,22,-1
 205.483 270.979 l 1,23,24
 179.892 426.308 179.892 426.308 178.305 753.484 c 0,25,26
 177.121 1084.77 177.121 1084.77 208.424 1231.63 c 2,27,-1
 217.094 1272.3 l 1,28,-1
 452.837 1270.58 l 1,29,-1
 445.93 1213.84 l 2,30,31
 417.322 978.847 417.322 978.847 417.304 781.993 c 0,32,33
 417.277 563.864 417.277 563.864 430.894 412.561 c 1,34,35
 625.704 657.34 625.704 657.34 845.613 755.961 c 0,36,37
 1069.92 856.839 1069.92 856.839 1233.58 758.406 c 0,38,39
 1330.99 699.829 1330.99 699.829 1371.39 600.91 c 128,-1,40
 1411.79 501.991 1411.79 501.991 1394.56 373.318 c 0,41,42
 1390.88 345.511 1390.88 345.511 1382.69 318.601 c 1,43,44
 1433.68 271.38 1433.68 271.38 1518.51 271.38 c 2,45,-1
 1600.8 271.38 l 1,46,-1
 1600.8 0.5 l 1,47,-1
 1497.11 0.5 l 2,48,49
 1285.41 0.5 1285.41 0.5 1199.42 98.624 c 1,13,14
EndSplineSet
EndChar

StartChar: uniFEC3
Encoding: 65219 65219 235
Width: 1497
VWidth: 2181
GlyphClass: 2
Flags: W
AnchorPoint: "Anchor-10" 283.57 1416.47 basechar 0
AnchorPoint: "Anchor-7" 536.57 -187 basechar 0
LayerCount: 2
Fore
SplineSet
598.318 282.009 m 1,0,-1
 665.115 282.009 l 2,1,2
 882.722 282.009 882.722 282.009 983.45 321.487 c 0,3,4
 1069.89 355.348 1069.89 355.348 1083.9 414.037 c 1,5,6
 1089.04 459.152 1089.04 459.152 1067.55 498.425 c 0,7,8
 1051.23 528.244 1051.23 528.244 994.837 531.171 c 0,9,10
 929.579 534.557 929.579 534.557 815.46 468.495 c 1,11,12
 699.502 389.771 699.502 389.771 598.318 282.009 c 1,0,-1
722.898 0 m 2,13,-1
 510.304 0 l 2,14,15
 399.418 0 399.418 0 318.254 58.7627 c 1,16,17
 276.18 26.2021 276.18 26.2021 211.599 13.1006 c 128,-1,18
 147.018 0 147.018 0 52.3037 -0 c 2,19,-1
 -77.25 0 l 1,20,-1
 -77.25 270.979 l 1,21,-1
 154.483 270.979 l 1,22,23
 128.892 426.308 128.892 426.308 127.305 753.479 c 0,24,25
 126.124 1084.79 126.124 1084.79 157.424 1231.63 c 2,26,-1
 166.094 1272.3 l 1,27,-1
 401.302 1270.58 l 1,28,-1
 394.985 1214.31 l 2,29,30
 368.547 978.762 368.547 978.762 366.301 781.406 c 0,31,32
 363.858 571.341 363.858 571.341 379.312 411.829 c 1,33,34
 574.286 657.153 574.286 657.153 794.597 755.953 c 0,35,36
 1018.92 856.839 1018.92 856.839 1182.43 758.497 c 0,37,38
 1280.01 700.697 1280.01 700.697 1320.44 601.67 c 128,-1,39
 1360.87 502.643 1360.87 502.643 1343.55 373.236 c 0,40,41
 1323.34 220.538 1323.34 220.538 1175.94 116.787 c 0,42,43
 1011.2 -0 1011.2 -0 722.898 0 c 2,13,-1
EndSplineSet
EndChar

StartChar: uniFEC4
Encoding: 65220 65220 236
Width: 1479
VWidth: 2181
GlyphClass: 2
Flags: W
AnchorPoint: "Anchor-10" 289.57 1384.47 basechar 0
AnchorPoint: "Anchor-7" 547.73 -159 basechar 0
LayerCount: 2
Fore
SplineSet
598.318 282.009 m 1,0,-1
 665.115 282.009 l 2,1,2
 882.722 282.009 882.722 282.009 983.45 321.487 c 0,3,4
 1069.89 355.348 1069.89 355.348 1083.9 414.037 c 1,5,6
 1089.04 459.152 1089.04 459.152 1067.55 498.425 c 0,7,8
 1051.23 528.244 1051.23 528.244 994.837 531.171 c 0,9,10
 929.579 534.557 929.579 534.557 815.46 468.495 c 1,11,12
 699.502 389.771 699.502 389.771 598.318 282.009 c 1,0,-1
1148.42 98.624 m 1,13,14
 987.797 0 987.797 0 722.898 0 c 2,15,-1
 510.304 0 l 2,16,17
 399.418 0 399.418 0 318.254 58.7627 c 1,18,19
 276.18 26.2021 276.18 26.2021 211.599 13.1006 c 128,-1,20
 147.018 0 147.018 0 52.3037 -0 c 2,21,-1
 -77.25 0 l 1,22,-1
 -77.25 270.979 l 1,23,-1
 153.671 270.979 l 1,24,25
 128.464 410.026 128.464 410.026 127.305 649.453 c 0,26,27
 125.707 978.557 125.707 978.557 156.698 1226.33 c 2,28,-1
 162.326 1271.33 l 1,29,-1
 398.47 1269.61 l 1,30,-1
 395.21 1215.91 l 2,31,32
 366.312 739.729 366.312 739.729 366.304 677.993 c 0,33,34
 366.283 506.094 366.283 506.094 374.703 406.003 c 1,35,36
 571.903 656.084 571.903 656.084 794.597 755.953 c 0,37,38
 1018.92 856.839 1018.92 856.839 1182.58 758.406 c 0,39,40
 1279.99 699.829 1279.99 699.829 1320.39 600.91 c 128,-1,41
 1360.79 501.991 1360.79 501.991 1343.56 373.318 c 0,42,43
 1339.88 345.512 1339.88 345.512 1331.69 318.6 c 1,44,45
 1382.68 271.38 1382.68 271.38 1467.51 271.38 c 2,46,-1
 1549.8 271.38 l 1,47,-1
 1549.8 0.5 l 1,48,-1
 1446.11 0.5 l 2,49,50
 1234.41 0.5 1234.41 0.5 1148.42 98.624 c 1,13,14
EndSplineSet
EndChar

StartChar: uniFECA
Encoding: 65226 65226 242
Width: 1263
VWidth: 2181
GlyphClass: 2
Flags: W
AnchorPoint: "Anchor-10" 487 1184.05 basechar 0
AnchorPoint: "Anchor-7" 351.69 -714.64 basechar 0
LayerCount: 2
Fore
SplineSet
572.401 735.293 m 0,0,1
 537.307 735.293 537.307 735.293 488.531 731.621 c 0,2,3
 464.271 729.795 464.271 729.795 445.159 725.029 c 128,-1,4
 426.047 720.265 426.047 720.265 418.978 716.803 c 128,-1,5
 411.908 713.342 411.908 713.342 410.146 711.352 c 0,6,7
 410.06 710.142 410.06 710.142 410.321 708.275 c 0,8,9
 413.305 701.46 413.305 701.46 431.486 682.548 c 128,-1,10
 449.667 663.636 449.667 663.636 478.712 641.373 c 0,11,12
 535.85 598.168 535.85 598.168 564.275 581.382 c 1,13,14
 627.508 617.053 627.508 617.053 669.101 654.97 c 0,15,16
 701.008 684.057 701.008 684.057 705.096 698.991 c 1,17,18
 704.923 709.958 704.923 709.958 703.172 714.669 c 128,-1,19
 701.422 719.38 701.422 719.38 690.48 724.34 c 128,-1,20
 679.539 729.299 679.539 729.299 656.203 731.833 c 0,21,22
 624.345 735.293 624.345 735.293 572.401 735.293 c 0,0,1
763.466 443.171 m 1,23,24
 973.57 271.38 973.57 271.38 1158.5 271.38 c 2,25,-1
 1339.7 271.38 l 1,26,-1
 1339.7 0.5 l 1,27,-1
 1255.62 0.5 l 2,28,29
 855.862 0.5 855.862 0.5 553.752 290.396 c 1,30,31
 420.427 222.342 420.427 222.342 354.868 128.521 c 128,-1,32
 289.31 34.6982 289.31 34.6982 284.971 -90.2725 c 0,33,34
 282.706 -156.549 282.706 -156.549 307.318 -205.701 c 128,-1,35
 331.931 -254.854 331.931 -254.854 386.733 -293.267 c 0,36,37
 503.995 -375.988 503.995 -375.988 719.411 -355.736 c 1,38,39
 902.969 -339.841 902.969 -339.841 1119.85 -235.331 c 2,40,-1
 1178.32 -207.156 l 1,41,-1
 1232.58 -461.334 l 1,42,-1
 1198.85 -479.46 l 2,43,44
 1025.16 -572.804 1025.16 -572.804 856.084 -598.449 c 0,45,46
 698.537 -622.585 698.537 -622.585 575.432 -611.221 c 0,47,48
 273.39 -584.72 273.39 -584.72 136.289 -414.426 c 0,49,50
 22.8691 -273.9 22.8691 -273.9 40.6387 -41.8867 c 0,51,52
 60.3965 216.361 60.3965 216.361 359.489 445.479 c 1,53,54
 304.894 483.557 304.894 483.557 251.507 534.669 c 0,55,56
 148.396 633.75 148.396 633.75 156.243 733.717 c 0,57,58
 165.102 848.786 165.102 848.786 323.442 927.457 c 0,59,60
 461.804 995.85 461.804 995.85 648.126 978.074 c 0,61,62
 860.199 958.877 860.199 958.877 927.618 831.061 c 0,63,64
 967.604 753.594 967.604 753.594 944.152 676.492 c 0,65,66
 906.453 555.013 906.453 555.013 763.466 443.171 c 1,23,24
EndSplineSet
EndChar

StartChar: uniFECB
Encoding: 65227 65227 243
Width: 1090
VWidth: 2181
GlyphClass: 2
Flags: W
AnchorPoint: "Anchor-10" 373.265 1267.23 basechar 0
AnchorPoint: "Anchor-7" 498.6 -194.5 basechar 0
LayerCount: 2
Fore
SplineSet
20.3301 270.98 m 2,0,1
 53.1025 270.98 53.1025 270.98 68.665 266.69 c 1,2,-1
 126.247 268.121 l 1,3,4
 102.622 326.553 102.622 326.553 107.81 395.403 c 0,5,6
 125.129 602.966 125.129 602.966 284.511 772.319 c 0,7,8
 288.693 776.764 288.693 776.764 292.874 781.098 c 0,9,10
 382.841 874.351 382.841 874.351 474.101 914.341 c 128,-1,11
 565.359 954.33 565.359 954.33 655.765 936.711 c 128,-1,12
 746.17 919.092 746.17 919.092 826.692 841.283 c 0,13,14
 869.51 799.696 869.51 799.696 901.952 704.919 c 0,15,16
 923.644 641.551 923.644 641.551 925.687 551.562 c 2,17,-1
 926.907 497.89 l 1,18,-1
 726.53 503.614 l 1,19,-1
 719.441 544.738 l 2,20,21
 717.4 556.582 717.4 556.582 715.031 567.557 c 0,22,23
 697.008 651.079 697.008 651.079 669.318 676.216 c 128,-1,24
 641.629 701.354 641.629 701.354 596.515 691.562 c 0,25,26
 452.295 660.27 452.295 660.27 382.817 491.971 c 0,27,28
 366.023 450.972 366.023 450.972 360.927 417.906 c 0,29,30
 351.773 358.523 351.773 358.523 379.894 327.549 c 128,-1,31
 408.013 296.574 408.013 296.574 493.468 283.405 c 0,32,33
 612.391 265.078 612.391 265.078 800.981 339.261 c 0,34,35
 889.424 374.051 889.424 374.051 931.554 401.932 c 2,36,-1
 985.243 437.463 l 1,37,-1
 1068.34 212.414 l 1,38,-1
 1039.4 189.452 l 2,39,40
 915.508 91.1357 915.508 91.1357 679.062 45.5674 c 128,-1,41
 442.617 0 442.617 0 84.5 0 c 2,42,-1
 -69.4004 0 l 1,43,-1
 -69.4004 270.98 l 1,44,-1
 20.3301 270.98 l 2,0,1
EndSplineSet
EndChar

StartChar: uniFECC
Encoding: 65228 65228 244
Width: 1097
VWidth: 2181
GlyphClass: 2
Flags: W
AnchorPoint: "Anchor-10" 488.58 1119.5 basechar 0
AnchorPoint: "Anchor-7" 524.58 -149.5 basechar 0
LayerCount: 2
Fore
SplineSet
552.58 599.764 m 0,0,1
 517.51 599.764 517.51 599.764 468.709 596.09 c 0,2,3
 444.45 594.264 444.45 594.264 425.338 589.499 c 128,-1,4
 406.226 584.733 406.226 584.733 399.156 581.272 c 128,-1,5
 392.086 577.812 392.086 577.812 390.324 575.822 c 0,6,7
 390.239 574.612 390.239 574.612 390.5 572.745 c 0,8,9
 393.483 565.93 393.483 565.93 411.665 547.019 c 128,-1,10
 429.846 528.107 429.846 528.107 458.892 505.843 c 0,11,12
 516.037 462.633 516.037 462.633 544.454 445.853 c 1,13,14
 607.688 481.523 607.688 481.523 649.279 519.44 c 0,15,16
 681.186 548.527 681.186 548.527 685.274 563.461 c 1,17,18
 685.101 574.43 685.101 574.43 683.35 579.141 c 128,-1,19
 681.6 583.852 681.6 583.852 670.659 588.811 c 128,-1,20
 659.718 593.77 659.718 593.77 636.382 596.304 c 0,21,22
 604.524 599.764 604.524 599.764 552.58 599.764 c 0,0,1
756.653 317.995 m 1,23,24
 864.067 270.59 864.067 270.59 991.707 270.979 c 2,25,-1
 1166.56 271.513 l 1,26,-1
 1166.56 0.5 l 1,27,-1
 968.3 0.5 l 2,28,29
 720.813 0.5 720.813 0.5 546.073 146.721 c 1,30,31
 370.7 0 370.7 0 120.86 0 c 2,32,-1
 -68.4004 0 l 1,33,-1
 -68.4004 270.98 l 1,34,-1
 97.3203 270.98 l 2,35,36
 244.485 270.98 244.485 270.98 335.507 312.869 c 1,37,38
 282.97 350.038 282.97 350.038 231.694 399.129 c 0,39,40
 128.575 498.218 128.575 498.218 136.422 598.184 c 0,41,42
 145.28 713.255 145.28 713.255 303.633 791.932 c 0,43,44
 441.97 860.321 441.97 860.321 628.311 842.544 c 0,45,46
 840.378 823.348 840.378 823.348 907.796 695.533 c 0,47,48
 947.783 618.063 947.783 618.063 924.331 540.961 c 0,49,50
 888.396 425.167 888.396 425.167 756.653 317.995 c 1,23,24
EndSplineSet
EndChar

StartChar: uniFEDA
Encoding: 65242 65242 258
Width: 1840
VWidth: 2181
GlyphClass: 2
Flags: W
AnchorPoint: "Anchor-10" 539 1418.5 basechar 0
AnchorPoint: "Anchor-7" 570 -177.5 basechar 0
LayerCount: 2
Fore
SplineSet
1095.77 1286.4 m 1,0,-1
 1095.77 1132.74 l 1,1,-1
 1048.51 1129.26 l 2,2,3
 986.002 1124.66 986.002 1124.66 954.382 1113 c 0,4,5
 934.38 1105.5 934.38 1105.5 918.909 1096.74 c 128,-1,6
 903.438 1087.98 903.438 1087.98 897.602 1083.03 c 128,-1,7
 891.765 1078.07 891.765 1078.07 890.334 1075.59 c 1,8,9
 890.605 1058.7 890.605 1058.7 897.26 1049.07 c 1,10,11
 913.426 1039.41 913.426 1039.41 962.711 1032.16 c 0,12,13
 1027.56 1022.62 1027.56 1022.62 1064.01 989.321 c 0,14,15
 1105.05 951.844 1105.05 951.844 1105.05 889.298 c 0,16,17
 1105.05 828.158 1105.05 828.158 1075.02 778.82 c 128,-1,18
 1044.98 729.482 1044.98 729.482 989.944 698.358 c 0,19,20
 909.612 652.928 909.612 652.928 801.926 651.929 c 0,21,22
 737.523 651.929 737.523 651.929 680.746 661.412 c 2,23,-1
 638.148 668.526 l 1,24,-1
 638.148 828.331 l 1,25,-1
 695.812 820.729 l 2,26,27
 753.256 813.158 753.256 813.158 792.059 813.158 c 0,28,29
 857.19 813.158 857.19 813.158 896.611 828.678 c 0,30,31
 948.45 848.587 948.45 848.587 948.45 867.898 c 1,32,33
 949.605 884.885 949.605 884.885 893.576 894.014 c 0,34,35
 820.173 905.199 820.173 905.199 777.499 948.845 c 0,36,37
 731.684 995.704 731.684 995.704 733.387 1074.08 c 0,38,39
 734.652 1125.26 734.652 1125.26 761.045 1165.93 c 128,-1,40
 787.438 1206.59 787.438 1206.59 833.85 1230.11 c 0,41,42
 923.539 1275.48 923.539 1275.48 1041.54 1282.96 c 2,43,-1
 1095.77 1286.4 l 1,0,-1
1665.56 312.822 m 1,44,45
 1711.58 271.38 1711.58 271.38 1795.97 271.38 c 2,46,-1
 1911.22 271.38 l 1,47,-1
 1911.22 0.5 l 1,48,-1
 1737.12 0.5 l 2,49,50
 1601.72 0.5 1601.72 0.5 1483.31 109.317 c 1,51,52
 1421.29 73.4043 1421.29 73.4043 1341.27 48.5684 c 0,53,54
 1197.22 3.86328 1197.22 3.86328 873.334 2.00098 c 0,55,56
 510.236 -0.0869141 510.236 -0.0869141 317.131 85.1973 c 0,57,58
 191 141.583 191 141.583 121.137 238.86 c 128,-1,59
 51.2734 336.137 51.2734 336.137 43.4102 467.862 c 0,60,61
 30.2656 688.037 30.2656 688.037 180.333 881.155 c 2,62,-1
 201.019 907.776 l 1,63,-1
 434.838 846.083 l 1,64,-1
 390.399 785.68 l 2,65,66
 282.793 639.415 282.793 639.415 289.271 491.119 c 0,67,68
 292.775 410.546 292.775 410.546 358.32 358.914 c 128,-1,69
 423.865 307.282 423.865 307.282 569.55 284.782 c 0,70,71
 642.34 273.561 642.34 273.561 808.092 273.014 c 1,72,73
 1007.45 265.889 1007.45 265.889 1125.87 278.187 c 0,74,75
 1296.26 295.878 1296.26 295.878 1375.65 338.69 c 128,-1,76
 1455.03 381.503 1455.03 381.503 1460.89 437.366 c 2,77,-1
 1466.97 495.413 l 1,78,-1
 1467.25 496.727 l 1,79,80
 1470.56 529.018 1470.56 529.018 1472.33 787.814 c 0,81,82
 1474.53 1056.56 1474.53 1056.56 1438.82 1313.69 c 2,83,-1
 1430.89 1370.77 l 1,84,-1
 1670.66 1374.65 l 1,85,-1
 1678.46 1332.17 l 2,86,87
 1702.81 1199.55 1702.81 1199.55 1713.32 753.604 c 0,88,89
 1717.35 591.008 1717.35 591.008 1688.43 399.333 c 0,90,91
 1681.59 354.205 1681.59 354.205 1665.56 312.822 c 1,44,45
EndSplineSet
EndChar

StartChar: uniFEDB
Encoding: 65243 65243 259
Width: 831
VWidth: 2181
GlyphClass: 2
Flags: W
AnchorPoint: "Anchor-10" 198.5 1375 basechar 0
AnchorPoint: "Anchor-7" 305 -179 basechar 0
LayerCount: 2
Fore
SplineSet
237.7 0 m 2,0,-1
 -71.4004 0 l 1,1,-1
 -71.4004 270.975 l 1,2,-1
 196.365 271.004 l 2,3,4
 260.195 271.011 260.195 271.011 311.34 276.426 c 128,-1,5
 362.485 281.84 362.485 281.84 393.659 290.123 c 128,-1,6
 424.834 298.405 424.834 298.405 446.041 309.346 c 128,-1,7
 467.248 320.287 467.248 320.287 475.889 330.251 c 128,-1,8
 484.53 340.214 484.53 340.214 485.921 350.088 c 0,9,10
 499.236 444.84 499.236 444.84 434.662 501.768 c 0,11,12
 197.968 711.286 197.968 711.286 76.9893 752.941 c 0,13,14
 26.3066 769.974 26.3066 769.974 -0.772461 815.78 c 128,-1,15
 -27.8516 861.588 -27.8516 861.588 -33.3164 925.23 c 0,16,17
 -43.7549 1054.7 -43.7549 1054.7 84.6445 1163.79 c 0,18,19
 185.322 1249.32 185.322 1249.32 341.33 1332.94 c 0,20,21
 535.346 1436.93 535.346 1436.93 752.191 1499.11 c 0,22,23
 762.432 1502.04 762.432 1502.04 784.161 1508.24 c 128,-1,24
 805.891 1514.44 805.891 1514.44 817.25 1517.77 c 1,25,-1
 817.25 1247.21 l 1,26,-1
 774.625 1240.11 l 2,27,28
 677.076 1223.88 677.076 1223.88 476.84 1130.7 c 0,29,30
 344.674 1069.88 344.674 1069.88 240.887 981.04 c 1,31,32
 590.958 786.132 590.958 786.132 705.967 557.945 c 0,33,34
 753.283 464.067 753.283 464.067 735.064 315.937 c 0,35,36
 724.262 222.815 724.262 222.815 667.144 152.318 c 128,-1,37
 610.024 81.8213 610.024 81.8213 513.288 38.4531 c 0,38,39
 427.513 -0 427.513 -0 237.7 0 c 2,0,-1
EndSplineSet
EndChar

StartChar: uniFEDC
Encoding: 65244 65244 260
Width: 876
VWidth: 2181
GlyphClass: 2
Flags: W
AnchorPoint: "Anchor-10" 204.457 1287.12 basechar 0
AnchorPoint: "Anchor-7" 317 -169 basechar 0
LayerCount: 2
Fore
SplineSet
591.255 81.8838 m 1,0,1
 556.05 57.624 556.05 57.624 513.288 38.4531 c 0,2,3
 427.513 -0 427.513 -0 237.7 0 c 2,4,-1
 -71.4004 0 l 1,5,-1
 -71.4004 270.975 l 1,6,-1
 196.365 271.004 l 2,7,8
 260.195 271.011 260.195 271.011 311.34 276.426 c 128,-1,9
 362.485 281.84 362.485 281.84 393.659 290.123 c 128,-1,10
 424.834 298.405 424.834 298.405 446.041 309.346 c 128,-1,11
 467.248 320.287 467.248 320.287 475.889 330.251 c 128,-1,12
 484.53 340.214 484.53 340.214 485.921 350.088 c 0,13,14
 499.236 444.84 499.236 444.84 434.662 501.768 c 0,15,16
 197.968 711.286 197.968 711.286 76.9893 752.941 c 0,17,18
 26.3066 769.974 26.3066 769.974 -0.772461 815.78 c 128,-1,19
 -27.8516 861.588 -27.8516 861.588 -33.3164 925.23 c 0,20,21
 -43.7549 1054.7 -43.7549 1054.7 84.6445 1163.79 c 0,22,23
 185.322 1249.32 185.322 1249.32 341.33 1332.94 c 0,24,25
 535.346 1436.93 535.346 1436.93 752.191 1499.11 c 0,26,27
 762.432 1502.04 762.432 1502.04 784.161 1508.24 c 128,-1,28
 805.891 1514.44 805.891 1514.44 817.25 1517.77 c 1,29,-1
 817.25 1247.21 l 1,30,-1
 774.625 1240.11 l 2,31,32
 677.076 1223.88 677.076 1223.88 476.84 1130.7 c 0,33,34
 344.674 1069.88 344.674 1069.88 240.887 981.04 c 1,35,36
 590.958 786.132 590.958 786.132 705.967 557.945 c 0,37,38
 756.396 457.893 756.396 457.893 734.859 314.42 c 0,39,40
 733.637 306.269 733.637 306.269 731.737 295.541 c 1,41,42
 775.623 270.88 775.623 270.88 832.175 270.88 c 2,43,-1
 944.425 270.88 l 1,44,-1
 944.425 0 l 1,45,-1
 846.324 0 l 2,46,47
 683.195 0 683.195 0 591.255 81.8838 c 1,0,1
EndSplineSet
EndChar

StartChar: uniFEDE
Encoding: 65246 65246 262
Width: 1506
VWidth: 2186
GlyphClass: 2
Flags: W
AnchorPoint: "Anchor-10" 558.5 1003.5 basechar 0
AnchorPoint: "Anchor-7" 376.974 -723.619 basechar 0
LayerCount: 2
Fore
SplineSet
1339.67 448.133 m 1,0,1
 1340.17 354.657 1340.17 354.657 1386.04 308.797 c 0,2,3
 1423.46 271.38 1423.46 271.38 1451.72 271.38 c 2,4,-1
 1563.97 271.38 l 1,5,-1
 1563.97 0.5 l 1,6,-1
 1465.87 0.5 l 2,7,8
 1364.74 0.5 1364.74 0.5 1292.57 49.6758 c 1,9,10
 1291.89 45.6865 1291.89 45.6865 1291.29 42.2051 c 0,11,12
 1253.02 -174.882 1253.02 -174.882 1144.92 -286.354 c 0,13,14
 978.405 -458.181 978.405 -458.181 680.838 -469.959 c 0,15,16
 405.275 -480.816 405.275 -480.816 248.716 -378.704 c 0,17,18
 140.843 -308.347 140.843 -308.347 88.1025 -202.866 c 128,-1,19
 35.3623 -97.3857 35.3623 -97.3857 40.6162 36.0195 c 0,20,21
 53.8438 371.856 53.8438 371.856 319.832 640.37 c 2,22,-1
 351.021 671.855 l 1,23,-1
 536.351 533.675 l 1,24,-1
 504.267 492.573 l 2,25,26
 183.041 81.0645 183.041 81.0645 352.146 -122.99 c 0,27,28
 429.383 -216.701 429.383 -216.701 683.69 -214.815 c 0,29,30
 843.96 -213.91 843.96 -213.91 936.149 -145.986 c 128,-1,31
 1028.34 -78.0625 1028.34 -78.0625 1064.64 63.6562 c 0,32,33
 1114.67 258.934 1114.67 258.934 1106.65 677.507 c 0,34,35
 1101.06 990.852 1101.06 990.852 1079.87 1213.57 c 2,36,-1
 1074.56 1269.4 l 1,37,-1
 1310.31 1269.4 l 1,38,-1
 1317.03 1226.25 l 2,39,40
 1353.57 991.751 1353.57 991.751 1350.64 751.774 c 0,41,42
 1348.58 584.675 1348.58 584.675 1339.67 448.133 c 1,0,1
EndSplineSet
EndChar

StartChar: uniFEDF
Encoding: 65247 65247 263
Width: 538
VWidth: 2181
GlyphClass: 2
Flags: W
AnchorPoint: "Anchor-10" 228.325 1378.87 basechar 0
AnchorPoint: "Anchor-7" 169.73 -143.5 basechar 0
LayerCount: 2
Fore
SplineSet
282.632 128.31 m 0,0,1
 178.816 0 178.816 0 15.7285 0 c 2,2,-1
 -62.4004 0 l 5,3,-1
 -62.4004 270.98 l 5,4,-1
 5.84961 270.98 l 2,5,6
 55.1782 270.98 55.1782 270.98 87.3301 292.941 c 0,7,8
 100.142 301.642 100.142 301.642 112.713 341.151 c 128,-1,9
 125.284 380.662 125.284 380.662 134.278 469.127 c 128,-1,10
 143.272 557.592 143.272 557.592 140.058 672.369 c 0,11,12
 127.599 1119.62 127.599 1119.62 113.362 1209.09 c 2,13,-1
 104.177 1266.81 l 1,14,-1
 342.425 1272.06 l 1,15,-1
 349.968 1228.89 l 2,16,17
 391.951 988.615 391.951 988.615 388.035 649.252 c 0,18,19
 386.208 450.968 386.208 450.968 361.876 323.573 c 128,-1,20
 337.545 196.179 337.545 196.179 282.632 128.31 c 0,0,1
EndSplineSet
EndChar

StartChar: uniFEE0
Encoding: 65248 65248 264
Width: 536
VWidth: 2181
GlyphClass: 2
Flags: W
AnchorPoint: "Anchor-10" 241.73 1404 basechar 0
AnchorPoint: "Anchor-7" 129.73 -193.5 basechar 0
LayerCount: 2
Fore
SplineSet
225.611 72.8447 m 1,0,1
 143.399 -0 143.399 -0 19.7002 0 c 2,2,-1
 -77.4004 0 l 1,3,-1
 -77.4004 270.98 l 1,4,-1
 5.84961 270.98 l 2,5,6
 53.5342 270.98 53.5342 270.98 81.5664 286.194 c 128,-1,7
 109.598 301.409 109.598 301.409 126.585 333.732 c 0,8,9
 131.618 343.307 131.618 343.307 137.155 383.207 c 128,-1,10
 142.693 423.107 142.693 423.107 147.212 501.972 c 128,-1,11
 151.73 580.837 151.73 580.837 151.73 674.74 c 0,12,13
 151.73 1047.57 151.73 1047.57 125.408 1207.46 c 2,14,-1
 115.855 1265.48 l 1,15,-1
 360.59 1270.68 l 1,16,-1
 367.18 1226.22 l 2,17,18
 403.232 982.891 403.232 982.891 397.723 644.816 c 0,19,20
 395.248 474.875 395.248 474.875 364.126 297.047 c 0,21,22
 364.04 296.542 364.04 296.542 363.98 295.933 c 0,23,24
 368.472 291.581 368.472 291.581 384.367 286.272 c 128,-1,25
 400.262 280.964 400.262 280.964 435.951 275.972 c 128,-1,26
 471.64 270.98 471.64 270.98 515.61 270.98 c 2,27,-1
 607.86 270.98 l 1,28,-1
 607.86 0 l 1,29,-1
 456.76 0 l 2,30,31
 312.567 0 312.567 0 225.611 72.8447 c 1,0,1
EndSplineSet
EndChar

StartChar: uniFEE2
Encoding: 65250 65250 266
Width: 1352
VWidth: 2181
GlyphClass: 2
Flags: W
AnchorPoint: "Anchor-10" 551.5 1042 basechar 0
AnchorPoint: "Anchor-7" 181.188 -491.422 basechar 0
LayerCount: 2
Fore
SplineSet
854.706 296.883 m 0,0,1
 889.881 283.626 889.881 283.626 919.544 277.669 c 128,-1,2
 949.207 271.713 949.207 271.713 965.191 272.138 c 128,-1,3
 981.177 272.562 981.177 272.562 989.815 276.389 c 0,4,5
 1007.11 284.837 1007.11 284.837 1016.24 298.146 c 128,-1,6
 1025.37 311.455 1025.37 311.455 1029.18 336.441 c 0,7,8
 1033.33 362.068 1033.33 362.068 1034.66 383.914 c 0,9,10
 1038.78 451.137 1038.78 451.137 1023.13 474.352 c 128,-1,11
 1007.48 497.567 1007.48 497.567 968.365 499.91 c 0,12,13
 911.826 502.942 911.826 502.942 864.438 455.019 c 1,14,15
 804.493 392.268 804.493 392.268 772.36 337.089 c 1,16,17
 804.802 315.692 804.802 315.692 854.706 296.883 c 0,0,1
1160.94 70.8037 m 1,18,19
 1107.11 32.2725 1107.11 32.2725 1027.85 20.4199 c 0,20,21
 817.049 -10.5781 817.049 -10.5781 622.998 139.823 c 1,22,23
 541.105 -1.99707 541.105 -1.99707 458.58 -84.1426 c 0,24,25
 334.619 -207.552 334.619 -207.552 120.056 -285.722 c 2,26,-1
 71.002 -303.593 l 1,27,-1
 -12.2207 -57.3926 l 1,28,-1
 38.3486 -42.2256 l 2,29,30
 188.861 2.91602 188.861 2.91602 299.501 120.194 c 0,31,32
 418.396 246.224 418.396 246.224 595.571 517.635 c 1,33,34
 787.596 790.549 787.596 790.549 1005.25 761.057 c 0,35,36
 1144.16 741.841 1144.16 741.841 1212.16 632.117 c 128,-1,37
 1280.16 522.393 1280.16 522.393 1277.36 342.06 c 0,38,39
 1276.95 313.685 1276.95 313.685 1272.7 285.01 c 1,40,41
 1292.24 270.105 1292.24 270.105 1330.63 270.003 c 2,42,-1
 1420.94 269.76 l 1,43,-1
 1420.94 0 l 1,44,-1
 1352 0 l 2,45,46
 1235.07 0 1235.07 0 1160.94 70.8037 c 1,18,19
EndSplineSet
EndChar

StartChar: uniFEE3
Encoding: 65251 65251 267
Width: 972
VWidth: 2181
GlyphClass: 2
Flags: W
AnchorPoint: "Anchor-10" 380.69 1021.5 basechar 0
AnchorPoint: "Anchor-7" 344.69 -116.5 basechar 0
LayerCount: 2
Fore
SplineSet
849.951 105.932 m 0,0,1
 796.194 -7.78711 796.194 -7.78711 645.466 -30.3281 c 0,2,3
 432.195 -61.6895 432.195 -61.6895 235.536 93.043 c 1,4,5
 156.316 -0 156.316 -0 35.9805 0 c 2,6,-1
 -71.4004 0 l 1,7,-1
 -71.4004 270.979 l 1,8,-1
 24.96 270.979 l 2,9,10
 74.7334 270.979 74.7334 270.979 103.462 306.723 c 0,11,12
 129.943 339.664 129.943 339.664 212.753 466.226 c 0,13,14
 393.431 741.396 393.431 741.396 622.884 710.306 c 0,15,16
 761.362 691.071 761.362 691.071 829.066 581.342 c 128,-1,17
 896.771 471.612 896.771 471.612 893.976 291.287 c 0,18,19
 892.562 196.076 892.562 196.076 849.951 105.932 c 0,0,1
473.239 245.788 m 0,20,21
 508.397 232.537 508.397 232.537 537.854 226.668 c 128,-1,22
 567.309 220.799 567.309 220.799 583.028 221.297 c 128,-1,23
 598.748 221.795 598.748 221.795 607.43 225.64 c 0,24,25
 624.717 234.087 624.717 234.087 633.85 247.396 c 128,-1,26
 642.982 260.707 642.982 260.707 646.786 285.692 c 0,27,28
 650.936 311.318 650.936 311.318 652.274 333.168 c 0,29,30
 656.394 400.391 656.394 400.391 640.743 423.604 c 128,-1,31
 625.093 446.819 625.093 446.819 585.979 449.162 c 0,32,33
 529.439 452.194 529.439 452.194 482.051 404.271 c 1,34,35
 422.106 341.52 422.106 341.52 389.974 286.341 c 1,36,37
 422.415 264.943 422.415 264.943 473.239 245.788 c 0,20,21
EndSplineSet
EndChar

StartChar: uniFEE4
Encoding: 65252 65252 268
Width: 1047
VWidth: 2181
GlyphClass: 2
Flags: W
AnchorPoint: "Anchor-10" 418.79 987.5 basechar 0
AnchorPoint: "Anchor-7" 382.79 -167.5 basechar 0
LayerCount: 2
Fore
SplineSet
473.239 245.788 m 0,0,1
 508.397 232.537 508.397 232.537 537.854 226.668 c 128,-1,2
 567.309 220.799 567.309 220.799 583.028 221.297 c 128,-1,3
 598.748 221.795 598.748 221.795 607.43 225.64 c 0,4,5
 624.717 234.087 624.717 234.087 633.85 247.396 c 128,-1,6
 642.982 260.707 642.982 260.707 646.786 285.692 c 0,7,8
 650.936 311.318 650.936 311.318 652.274 333.168 c 0,9,10
 656.394 400.391 656.394 400.391 640.743 423.604 c 128,-1,11
 625.093 446.819 625.093 446.819 585.979 449.162 c 0,12,13
 529.439 452.194 529.439 452.194 482.051 404.271 c 1,14,15
 422.106 341.52 422.106 341.52 389.974 286.341 c 1,16,17
 422.415 264.943 422.415 264.943 473.239 245.788 c 0,0,1
753.382 141.479 m 1,18,-1
 676.924 263.771 l 1,19,-1
 832.918 191.135 l 1,20,-1
 753.382 141.479 l 1,18,-1
818.842 57.2441 m 1,21,22
 759.521 -13.2715 759.521 -13.2715 645.466 -30.3281 c 0,23,24
 432.195 -61.6895 432.195 -61.6895 235.536 93.043 c 1,25,26
 156.316 -0 156.316 -0 35.9805 0 c 2,27,-1
 -71.4004 0 l 1,28,-1
 -71.4004 270.979 l 1,29,-1
 24.96 270.979 l 2,30,31
 74.7334 270.979 74.7334 270.979 103.462 306.723 c 0,32,33
 129.943 339.664 129.943 339.664 212.753 466.226 c 0,34,35
 393.431 741.396 393.431 741.396 622.884 710.306 c 0,36,37
 736.903 694.469 736.903 694.469 804.506 614.682 c 128,-1,38
 872.107 534.894 872.107 534.894 888.42 404.321 c 0,39,40
 897.511 331.554 897.511 331.554 930.899 301.322 c 128,-1,41
 964.289 271.09 964.289 271.09 1034.28 271.09 c 2,42,-1
 1119.18 271.09 l 1,43,-1
 1119.18 0.209961 l 1,44,-1
 975.43 0.209961 l 2,45,46
 884.167 0.209961 884.167 0.209961 818.842 57.2441 c 1,21,22
EndSplineSet
EndChar

StartChar: uniFEEA
Encoding: 65258 65258 274
Width: 895
VWidth: 2181
GlyphClass: 2
Flags: W
AnchorPoint: "Anchor-10" 212.95 1198.81 basechar 0
AnchorPoint: "Anchor-7" 195.88 -271 basechar 0
LayerCount: 2
Fore
SplineSet
554.084 -126.904 m 2,0,1
 358.458 -114.924 358.458 -114.924 234.188 -61.9092 c 0,2,3
 135.449 -19.7861 135.449 -19.7861 92.4297 60.5156 c 128,-1,4
 49.4102 140.817 49.4102 140.817 69.0713 246.38 c 0,5,6
 100.765 415.16 100.765 415.16 278.907 617.683 c 0,7,8
 390.903 745.007 390.903 745.007 523.771 770.002 c 0,9,10
 530.979 771.357 530.979 771.357 537.984 772.172 c 0,11,12
 617.558 781.429 617.558 781.429 664.013 725.885 c 128,-1,13
 710.468 670.342 710.468 670.342 721.354 576.002 c 0,14,15
 739.512 417.428 739.512 417.428 787.832 324.897 c 0,16,17
 802.712 296.763 802.712 296.763 825.804 283.894 c 128,-1,18
 848.896 271.024 848.896 271.024 888.331 271 c 2,19,-1
 966.26 270.952 l 1,20,-1
 966.26 0 l 1,21,-1
 867.34 0 l 2,22,23
 698.325 0 698.325 0 605.339 120.295 c 128,-1,24
 512.354 240.591 512.354 240.591 498.124 459.239 c 0,25,26
 497.253 472.615 497.253 472.615 492.795 482.535 c 1,27,28
 483.571 478.025 483.571 478.025 472.579 470.312 c 0,29,30
 412.873 428.074 412.873 428.074 340.708 299.098 c 0,31,32
 315.801 254.582 315.801 254.582 312.454 220.939 c 0,33,34
 301.292 108.745 301.292 108.745 583.24 80.75 c 2,35,-1
 639.147 75.1992 l 1,36,-1
 598.567 -129.629 l 1,37,-1
 554.084 -126.904 l 2,0,1
EndSplineSet
EndChar

StartChar: uniFEEB
Encoding: 65259 65259 275
Width: 1258
VWidth: 2181
GlyphClass: 2
Flags: W
AnchorPoint: "Anchor-10" 601.801 1264.23 basechar 0
AnchorPoint: "Anchor-7" 425.542 -179.946 basechar 0
LayerCount: 2
Fore
SplineSet
467.554 425.239 m 0,0,1
 445.87 458.152 445.87 458.152 426.852 466.235 c 128,-1,2
 407.833 474.317 407.833 474.317 385.526 464.899 c 1,3,4
 364.499 458.013 364.499 458.013 351.727 445.406 c 128,-1,5
 338.954 432.8 338.954 432.8 330.303 409.493 c 1,6,7
 317.75 384.592 317.75 384.592 328.272 363.093 c 128,-1,8
 338.795 341.595 338.795 341.595 382.179 317.729 c 1,9,10
 418.178 338.592 418.178 338.592 439.61 356.216 c 128,-1,11
 461.043 373.841 461.043 373.841 467.033 386.948 c 128,-1,12
 473.023 400.056 473.023 400.056 472.708 408.292 c 128,-1,13
 472.393 416.528 472.393 416.528 467.554 425.239 c 0,0,1
206.208 818.908 m 1,14,-1
 359.973 1021.6 l 1,15,-1
 394.276 1010.71 l 2,16,17
 561.606 957.623 561.606 957.623 728.16 854.169 c 1,18,19
 924.996 730.028 924.996 730.028 1034.29 610.42 c 128,-1,20
 1143.58 490.811 1143.58 490.811 1163.51 367.353 c 0,21,22
 1165.64 352.771 1165.64 352.771 1166.67 339.045 c 0,23,24
 1177.49 195.178 1177.49 195.178 1076.61 115.028 c 128,-1,25
 975.741 34.8789 975.741 34.8789 788.559 21.1348 c 0,26,27
 578.341 5.95508 578.341 5.95508 415.765 79.8848 c 1,28,29
 221.537 0 221.537 0 9.62988 0 c 2,30,-1
 -59.4004 0 l 1,31,-1
 -59.4004 270.979 l 1,32,-1
 92.7861 270.979 l 1,33,-1
 130.537 271.429 l 1,34,35
 118.088 298.216 118.088 298.216 113.087 326.222 c 0,36,37
 88.8584 455.343 88.8584 455.343 166.029 565.425 c 0,38,39
 230.185 656.938 230.185 656.938 351.575 681.42 c 0,40,41
 482.861 707.226 482.861 707.226 605.095 603.431 c 2,42,-1
 609.08 600.047 l 1,43,-1
 612.296 595.925 l 2,44,45
 707.436 473.962 707.436 473.962 669.582 343.33 c 0,46,47
 657.245 299.55 657.245 299.55 634.449 263.978 c 1,48,49
 658.426 261.516 658.426 261.516 679.988 260.025 c 0,50,51
 754.017 256.623 754.017 256.623 800.646 259.486 c 128,-1,52
 847.275 262.35 847.275 262.35 874.107 274.228 c 128,-1,53
 900.938 286.106 900.938 286.106 911.067 298.129 c 128,-1,54
 921.195 310.152 921.195 310.152 922.221 325.069 c 0,55,56
 924.62 359.588 924.62 359.588 866.49 429.95 c 128,-1,57
 808.361 500.312 808.361 500.312 685.629 590.244 c 0,58,59
 498.422 728.49 498.422 728.49 275.776 797.381 c 2,60,-1
 206.208 818.908 l 1,14,-1
EndSplineSet
EndChar

StartChar: uniFEEC
Encoding: 65260 65260 276
Width: 909
VWidth: 2181
GlyphClass: 2
Flags: W
AnchorPoint: "Anchor-7" 97.8799 -648.244 basechar 0
AnchorPoint: "Anchor-10" 365.76 1133.74 basechar 0
LayerCount: 2
Fore
SplineSet
239.559 -532.424 m 1,0,1
 228.75 -527.099 228.75 -527.099 218.579 -519.287 c 0,2,3
 179.524 -488.642 179.524 -488.642 168.029 -433.308 c 128,-1,4
 156.535 -377.974 156.535 -377.974 158.791 -288.111 c 0,5,6
 160.154 -233.818 160.154 -233.818 167.118 -165.806 c 0,7,8
 178.777 -51.9102 178.777 -51.9102 211.759 63.1172 c 1,9,10
 98.1738 0 98.1738 0 9.85254 0 c 2,11,-1
 -39.9355 0 l 1,12,-1
 -39.9355 270.884 l 1,13,-1
 26.2061 271.081 l 2,14,15
 143.641 271.431 143.641 271.431 239.596 332.012 c 0,16,17
 276.583 355.363 276.583 355.363 310.749 387.788 c 0,18,19
 447.192 517.279 447.192 517.279 529.682 444.165 c 0,20,21
 551.047 425.228 551.047 425.228 557.669 398.82 c 128,-1,22
 564.291 372.412 564.291 372.412 560.695 347.567 c 128,-1,23
 557.101 322.723 557.101 322.723 540.739 286.51 c 1,24,25
 471.041 159.955 l 0,26,27
 414.754 54.3057 414.754 54.3057 350.853 -217.586 c 1,28,29
 417.593 23.0865 417.593 23.0865 606.852 178.414 c 0,30,31
 723.723 274.332 723.723 274.332 882.386 271.979 c 1,32,-1
 963.64 270.742 l 5,33,-1
 963.64 0.794922 l 5,34,-1
 853.684 0.000976562 l 2,35,36
 758.173 -0.688671 758.173 -0.688671 680.774 -58.9707 c 128,-1,37
 603.285 -117.32 603.285 -117.32 540.386 -241.974 c 0,38,39
 513.097 -296.072 513.097 -296.072 501.937 -317.863 c 128,-1,40
 490.776 -339.655 490.776 -339.655 470.092 -378.598 c 128,-1,41
 449.407 -417.539 449.407 -417.539 438.49 -434.18 c 128,-1,42
 427.572 -450.82 427.572 -450.82 411.801 -473.224 c 128,-1,43
 396.029 -495.627 396.029 -495.627 382.927 -507.16 c 128,-1,44
 369.824 -518.692 369.824 -518.692 355.804 -526.027 c 0,45,46
 310.273 -550.648 310.273 -550.648 239.559 -532.424 c 1,0,1
EndSplineSet
EndChar

StartChar: uniFEEE
Encoding: 65262 65262 278
Width: 798
VWidth: 2181
GlyphClass: 2
Flags: W
AnchorPoint: "Anchor-10" 287 1110 basechar 0
AnchorPoint: "Anchor-7" 464.515 -563.238 basechar 0
LayerCount: 2
Fore
SplineSet
412.276 510.354 m 0,0,1
 330.423 508.167 330.423 508.167 292.709 345.807 c 0,2,3
 291.226 339.416 291.226 339.416 290.546 333.627 c 0,4,5
 288.876 319.414 288.876 319.414 291.892 309.306 c 128,-1,6
 294.908 299.197 294.908 299.197 305.967 288.695 c 128,-1,7
 317.025 278.193 317.025 278.193 342.309 270.783 c 128,-1,8
 367.592 263.372 367.592 263.372 407.279 258.967 c 0,9,10
 433.611 256.176 433.611 256.176 508.846 259.549 c 1,11,12
 506.591 336.393 506.591 336.393 494.551 395.001 c 0,13,14
 481.279 463.169 481.279 463.169 460.846 487.074 c 128,-1,15
 440.412 510.979 440.412 510.979 412.276 510.354 c 0,0,1
734.368 0.5 m 1,16,17
 698.463 -173.285 698.463 -173.285 596.91 -289.994 c 0,18,19
 428.654 -482.879 428.654 -482.879 175.711 -514.099 c 2,20,-1
 145.985 -517.768 l 1,21,-1
 3.0918 -322.422 l 1,22,-1
 79.5449 -305.666 l 2,23,24
 376.69 -240.543 376.69 -240.543 479.461 0.46875 c 1,25,-1
 444.37 0 l 1,26,27
 165.891 0 165.891 0 80.5322 152.419 c 0,28,29
 39.9521 224.882 39.9521 224.882 51.415 321.598 c 0,30,31
 79.2812 537.885 79.2812 537.885 205.259 676.606 c 0,32,33
 299.244 780.398 299.244 780.398 448.092 768.67 c 0,34,35
 529.71 762.435 529.71 762.435 590.448 715.039 c 128,-1,36
 651.187 667.644 651.187 667.644 685.049 586.203 c 0,37,38
 735.762 464.954 735.762 464.954 748.832 311.669 c 0,39,40
 750.729 288.921 750.729 288.921 752.258 270.839 c 1,41,-1
 869.66 271.753 l 1,42,-1
 869.66 0.5 l 1,43,-1
 734.368 0.5 l 1,16,17
EndSplineSet
EndChar

StartChar: uniFEF0
Encoding: 65264 65264 280
Width: 1210
VWidth: 2181
GlyphClass: 2
Flags: W
AnchorPoint: "Anchor-10" 535.508 628.01 basechar 0
AnchorPoint: "Anchor-7" 192.067 -659.505 basechar 0
LayerCount: 2
Fore
SplineSet
813.824 154.949 m 1,0,1
 867.731 218.071 867.731 218.071 962.351 245.138 c 128,-1,2
 1056.97 272.203 1056.97 272.203 1195.09 271.533 c 2,3,-1
 1270.89 271.057 l 1,4,-1
 1270.89 1.01367 l 1,5,-1
 1170.83 0.00292969 l 2,6,7
 1119.46 -0.516602 1119.46 -0.516602 1078.22 -6.84668 c 128,-1,8
 1036.98 -13.1768 1036.98 -13.1768 1020.6 -18.8711 c 128,-1,9
 1004.22 -24.5654 1004.22 -24.5654 1001.35 -27.8799 c 0,10,11
 997.901 -32.5615 997.901 -32.5615 996.477 -35.8711 c 1,12,13
 1000.79 -41.3203 1000.79 -41.3203 1011.76 -48.1201 c 0,14,15
 1109.19 -110.564 1109.19 -110.564 1130.31 -206.031 c 0,16,17
 1155.14 -313.744 1155.14 -313.744 1096.96 -403.471 c 1,18,19
 1025.3 -511.499 1025.3 -511.499 912.512 -565.415 c 1,20,21
 653.815 -691.978 653.815 -691.978 365.552 -642.787 c 0,22,23
 212.363 -616.938 212.363 -616.938 125.387 -518.531 c 128,-1,24
 38.4092 -420.123 38.4092 -420.123 26.2031 -260.286 c 0,25,26
 14.2852 -95.7988 14.2852 -95.7988 97.3125 116.57 c 0,27,28
 184.069 338.475 184.069 338.475 345.419 554.975 c 2,29,-1
 376.52 596.707 l 1,30,-1
 560.107 454.003 l 1,31,-1
 530.442 413.961 l 2,32,33
 486.761 354.997 486.761 354.997 385.106 158.561 c 0,34,35
 248.353 -105.703 248.353 -105.703 284.699 -259.793 c 0,36,37
 300.23 -325.634 300.23 -325.634 343.809 -359.6 c 128,-1,38
 387.386 -393.564 387.386 -393.564 470.361 -400.684 c 0,39,40
 676.859 -417.985 676.859 -417.985 798.737 -361.288 c 0,41,42
 855.991 -334.502 855.991 -334.502 891.854 -297.835 c 0,43,44
 901.777 -287.691 901.777 -287.691 905.879 -279.967 c 1,45,46
 903.562 -277.891 903.562 -277.891 899.963 -275.494 c 0,47,48
 734.351 -161.501 734.351 -161.501 741.625 -14.7402 c 0,49,50
 745.959 72.7246 745.959 72.7246 813.824 154.949 c 1,0,1
EndSplineSet
EndChar

StartChar: uniFEFB
Encoding: 65275 65275 291
Width: 1084
VWidth: 2181
GlyphClass: 3
Flags: W
AnchorPoint: "Anchor-9" 752.69 1441 baselig 0
AnchorPoint: "Anchor-6" 901.69 -164.5 baselig 0
AnchorPoint: "Anchor-6" 197.5 -213.908 baselig 1
AnchorPoint: "Anchor-9" 132.565 1386.84 baselig 1
LayerCount: 2
Fore
SplineSet
287.308 1234.76 m 1,0,-1
 498.049 285.424 l 1,1,2
 595.229 309.689 595.229 309.689 637.199 351.618 c 1,3,4
 671.353 384.084 671.353 384.084 689.184 464.316 c 128,-1,5
 707.016 544.55 707.016 544.55 701.094 671.417 c 0,6,7
 677.05 1187.8 677.05 1187.8 674.123 1210.78 c 2,8,-1
 666.979 1266.85 l 1,9,-1
 903.425 1272.06 l 1,10,-1
 911.968 1228.89 l 2,11,12
 942.971 1072.19 942.971 1072.19 949.035 649.272 c 4,13,14
 950.714 488.493 950.714 488.493 924.858 356.721 c 0,15,16
 902.229 241.396 902.229 241.396 850.868 177.921 c 0,17,18
 774.837 83.9551 774.837 83.9551 614.625 41.9775 c 128,-1,19
 454.413 0 454.413 0 206.221 0 c 2,20,-1
 97.2207 0 l 1,21,-1
 97.2207 253.98 l 1,22,-1
 274.194 253.982 l 1,23,-1
 49.9502 1167.68 l 1,24,-1
 287.308 1234.76 l 1,0,-1
EndSplineSet
LCarets2: 1 0 
Ligature2: "'rlig' Required Ligatures in Arabic lookup 16 subtable" uniFEDF uniFE8E
EndChar

StartChar: uniFEFC
Encoding: 65276 65276 292
Width: 1236
VWidth: 2181
GlyphClass: 3
Flags: W
AnchorPoint: "Anchor-9" 882.69 1343 baselig 0
AnchorPoint: "Anchor-6" 883.69 -161.5 baselig 0
AnchorPoint: "Anchor-6" 248 -215 baselig 1
AnchorPoint: "Anchor-9" 112.5 1217.5 baselig 1
LayerCount: 2
Fore
SplineSet
793.361 175.934 m 0,0,1
 634.484 0.5 634.484 0.5 333.99 0.5 c 0,2,3
 166.419 0.5 166.419 0.5 114.887 9.94336 c 2,4,-1
 73.0801 17.6055 l 1,5,-1
 73.0801 290.481 l 1,6,-1
 133.522 279.095 l 2,7,8
 328.271 242.405 328.271 242.405 427.187 253.466 c 1,9,-1
 35.8662 1022.36 l 1,10,-1
 255.732 1193.78 l 1,11,-1
 624.061 353.316 l 1,12,13
 694.458 422 694.458 422 736.354 553.052 c 1,14,15
 782.789 734.834 782.789 734.834 772.597 849.473 c 2,16,-1
 743.225 1179.85 l 1,17,-1
 1005.13 1296.71 l 1,18,-1
 1005.13 683.5 l 2,19,20
 1005.13 498.436 1005.13 498.436 1038.54 421.192 c 0,21,22
 1103.33 271.38 1103.33 271.38 1193.59 271.38 c 2,23,-1
 1307.94 271.38 l 1,24,-1
 1307.94 0.5 l 1,25,-1
 1194.91 0.5 l 2,26,27
 1073.25 0.5 1073.25 0.5 984.369 65.4092 c 128,-1,28
 895.492 130.318 895.492 130.318 847.029 251.403 c 1,29,30
 821.887 208.041 821.887 208.041 793.361 175.934 c 0,0,1
EndSplineSet
LCarets2: 1 0 
Ligature2: "'rlig' Required Ligatures in Arabic lookup 16 subtable" uniFEE0 uniFE8E
EndChar

StartChar: arabic_dot
Encoding: 65536 -1 293
Width: 150
GlyphClass: 2
Flags: W
LayerCount: 2
Fore
SplineSet
102.795 175.743 m 2,0,-1
 119.766 160.592 l 2,1,2
 129.884 151.56 129.884 151.56 137.731 142.48 c 0,3,4
 169.203 105.627 169.203 105.627 164.493 68.4417 c 128,-1,5
 159.783 31.2568 159.783 31.2568 120.068 -2.9614 c 2,6,-1
 92.0684 -27.0864 l 2,7,8
 69.9206 -46.1691 69.9206 -46.1691 50.1136 -26.1468 c 2,9,-1
 4.71849 19.7417 l 1,10,-1
 -35.1107 51.7034 l 2,11,12
 -45.8801 60.9495 -45.8801 60.9495 -45.6663 72.533 c 128,-1,13
 -45.4526 84.1165 -45.4526 84.1165 -35.5983 94.4908 c 2,14,-1
 7.20772 139.555 l 1,15,-1
 46.0324 175.858 l 2,16,17
 73.6926 201.723 73.6926 201.723 102.795 175.743 c 2,0,-1
EndSplineSet
EndChar

StartChar: arabic_2dots
Encoding: 65537 -1 294
Width: 452
GlyphClass: 2
Flags: W
LayerCount: 2
Fore
SplineSet
388.375 175.586 m 2,0,-1
 403.5 162.084 l 2,1,2
 413.617 153.052 413.617 153.052 421.463 143.972 c 0,3,4
 452.935 107.118 452.935 107.118 448.224 69.9338 c 128,-1,5
 443.514 32.7494 443.514 32.7494 403.801 -1.46912 c 2,6,-1
 375.801 -25.594 l 2,7,8
 353.654 -44.6774 353.654 -44.6774 333.846 -24.6545 c 2,9,-1
 288.451 21.234 l 1,10,-1
 248.121 53.5973 l 2,11,12
 225.904 72.5796 225.904 72.5796 248.135 95.983 c 2,13,-1
 290.941 141.047 l 1,14,-1
 329.765 177.351 l 2,15,16
 357.424 203.216 357.424 203.216 388.375 175.586 c 2,0,-1
132.375 177.586 m 2,17,-1
 147.5 164.084 l 2,18,19
 157.616 155.053 157.616 155.053 165.462 145.972 c 0,20,21
 196.935 109.118 196.935 109.118 192.225 71.9338 c 128,-1,22
 187.515 34.7491 187.515 34.7491 147.801 0.530884 c 2,23,-1
 119.801 -23.5941 l 2,24,25
 97.6533 -42.6774 97.6533 -42.6774 77.846 -22.6546 c 2,26,-1
 32.4509 23.2339 l 1,27,-1
 -7.37851 55.1958 l 2,28,29
 -18.1476 64.442 -18.1476 64.442 -17.9338 76.0254 c 128,-1,30
 -17.72 87.6088 -17.72 87.6088 -7.8658 97.983 c 2,31,-1
 34.9402 143.047 l 1,32,-1
 73.7647 179.351 l 2,33,34
 101.424 205.215 101.424 205.215 132.375 177.586 c 2,17,-1
EndSplineSet
EndChar

StartChar: arabic_3dots
Encoding: 65538 -1 295
Width: 455
GlyphClass: 2
Flags: W
LayerCount: 2
Fore
SplineSet
391.314 165.979 m 2,0,-1
 406.989 151.985 l 2,1,2
 417.109 142.952 417.109 142.952 424.954 133.872 c 0,3,4
 456.426 97.0184 456.426 97.0184 451.715 59.8341 c 128,-1,5
 447.005 22.6498 447.005 22.6498 407.291 -11.5688 c 2,6,-1
 379.292 -35.6936 l 2,7,8
 357.144 -54.777 357.144 -54.777 337.336 -34.7541 c 2,9,-1
 291.941 11.1343 l 1,10,-1
 252.112 43.096 l 2,11,12
 241.343 52.3422 241.343 52.3422 241.557 63.9257 c 128,-1,13
 241.77 75.5092 241.77 75.5092 251.625 85.8833 c 2,14,-1
 294.227 130.733 l 1,15,-1
 333.255 167.251 l 2,16,17
 360.914 193.116 360.914 193.116 391.314 165.979 c 2,0,-1
123.813 163.534 m 2,18,-1
 138.99 149.985 l 2,19,20
 149.106 140.954 149.106 140.954 156.954 131.873 c 0,21,22
 188.426 95.0198 188.426 95.0198 183.716 57.8347 c 128,-1,23
 179.006 20.6496 179.006 20.6496 139.291 -13.5688 c 2,24,-1
 111.291 -37.6942 l 2,25,26
 89.1435 -56.7753 89.1435 -56.7753 69.3362 -36.7542 c 2,27,-1
 23.9411 9.13431 l 1,28,-1
 -16.3891 41.498 l 2,29,30
 -38.6059 60.4799 -38.6059 60.4799 -16.3756 83.8834 c 2,31,-1
 26.4304 128.948 l 1,32,-1
 65.255 165.251 l 2,33,34
 92.9146 191.115 92.9146 191.115 123.813 163.534 c 2,18,-1
258.911 374.447 m 2,35,-1
 273.989 360.985 l 2,36,37
 284.106 351.955 284.106 351.955 291.953 342.873 c 0,38,39
 323.426 306.02 323.426 306.02 318.716 268.835 c 128,-1,40
 314.006 231.651 314.006 231.651 274.291 197.431 c 2,41,-1
 246.291 173.306 l 2,42,43
 224.144 154.224 224.144 154.224 204.336 174.246 c 2,44,-1
 158.941 220.135 l 1,45,-1
 119.112 252.096 l 2,46,47
 108.343 261.342 108.343 261.342 108.557 272.926 c 128,-1,48
 108.77 284.509 108.77 284.509 118.625 294.883 c 2,49,-1
 161.328 339.839 l 1,50,-1
 161.544 340.041 l 1,51,-1
 200.255 376.251 l 2,52,53
 227.914 402.115 227.914 402.115 258.911 374.447 c 2,35,-1
EndSplineSet
EndChar

StartChar: arabic_3dots_a
Encoding: 65539 -1 296
Width: 454
GlyphClass: 2
Flags: W
LayerCount: 2
Fore
SplineSet
258.258 -12.0524 m 2,0,-1
 273.49 -25.6491 l 2,1,2
 283.608 -34.6822 283.608 -34.6822 291.454 -43.7612 c 0,3,4
 322.926 -80.615 322.926 -80.615 318.215 -117.799 c 128,-1,5
 313.505 -154.984 313.505 -154.984 273.791 -189.203 c 2,6,-1
 245.792 -213.328 l 2,7,8
 223.644 -232.411 223.644 -232.411 203.836 -212.388 c 2,9,-1
 158.441 -166.499 l 1,10,-1
 118.612 -134.537 l 2,11,12
 107.843 -125.291 107.843 -125.291 108.057 -113.708 c 128,-1,13
 108.27 -102.125 108.27 -102.125 118.125 -91.7504 c 2,14,-1
 160.931 -46.6861 l 1,15,-1
 200.183 -9.98273 l 2,16,17
 227.96 14.9952 227.96 14.9952 258.258 -12.0524 c 2,0,-1
392.365 188.852 m 2,18,-1
 407.489 175.351 l 2,19,20
 417.607 166.319 417.607 166.319 425.454 157.239 c 0,21,22
 456.926 120.385 456.926 120.385 452.215 83.2006 c 128,-1,23
 447.505 46.016 447.505 46.016 407.791 11.7974 c 2,24,-1
 379.284 -12.7644 l 2,25,26
 357.116 -30.8771 357.116 -30.8771 337.836 -11.388 c 2,27,-1
 292.441 34.5006 l 1,28,-1
 252.612 66.4623 l 2,29,30
 241.843 75.7083 241.843 75.7083 242.057 87.2918 c 128,-1,31
 242.27 98.8753 242.27 98.8753 252.125 109.249 c 2,32,-1
 294.931 154.314 l 1,33,-1
 333.755 190.617 l 2,34,35
 361.414 216.482 361.414 216.482 392.365 188.852 c 2,18,-1
126.378 189.841 m 2,36,-1
 141.489 176.351 l 2,37,38
 151.607 167.319 151.607 167.319 159.454 158.239 c 0,39,40
 190.926 121.385 190.926 121.385 186.216 84.2005 c 128,-1,41
 181.506 47.0156 181.506 47.0156 141.791 12.7974 c 2,42,-1
 113.791 -11.3275 l 2,43,44
 91.6434 -30.4108 91.6434 -30.4108 71.8362 -10.388 c 2,45,-1
 26.4411 35.5006 l 1,46,-1
 -13.3883 67.4624 l 2,47,48
 -24.1572 76.7086 -24.1572 76.7086 -23.9435 88.292 c 128,-1,49
 -23.7297 99.8753 -23.7297 99.8753 -13.8756 110.249 c 2,50,-1
 28.9305 155.314 l 1,51,-1
 67.755 191.617 l 2,52,53
 95.4151 217.482 95.4151 217.482 126.378 189.841 c 2,36,-1
EndSplineSet
EndChar

StartChar: uni066E.fina
Encoding: 65540 -1 297
Width: 1997
VWidth: 2181
GlyphClass: 2
Flags: W
AnchorPoint: "Anchor-10" 703 1111.5 basechar 0
AnchorPoint: "Anchor-7" 703 -128 basechar 0
LayerCount: 2
Fore
SplineSet
862.453 0.982422 m 1,0,1
 502.82 0.0966797 502.82 0.0966797 310.235 85.1514 c 0,2,3
 184.146 140.837 184.146 140.837 114.228 238.197 c 128,-1,4
 44.3086 335.557 44.3086 335.557 36.4102 467.862 c 0,5,6
 23.2646 688.036 23.2646 688.036 173.333 881.155 c 2,7,-1
 194.019 907.776 l 1,8,-1
 427.838 846.083 l 1,9,-1
 383.399 785.68 l 2,10,11
 275.793 639.415 275.793 639.415 282.271 491.119 c 0,12,13
 285.775 410.544 285.775 410.544 351.319 358.913 c 128,-1,14
 416.863 307.283 416.863 307.283 562.563 284.78 c 0,15,16
 635.213 273.561 635.213 273.561 807.899 273.015 c 1,17,18
 1143.72 263.505 1143.72 263.505 1282.91 309.775 c 0,19,20
 1420.01 355.344 1420.01 355.344 1497.17 427.678 c 128,-1,21
 1574.34 500.012 1574.34 500.012 1598.74 600.799 c 2,22,-1
 1608.19 639.795 l 1,23,-1
 1814.13 639.795 l 1,24,-1
 1791.02 429.807 l 1,25,26
 1791.86 368.502 1791.86 368.502 1810.62 335.732 c 128,-1,27
 1829.39 302.962 1829.39 302.962 1867.17 287.64 c 0,28,29
 1907.26 271.38 1907.26 271.38 1976.97 271.38 c 2,30,-1
 2073.17 271.38 l 1,31,-1
 2073.17 0.5 l 1,32,-1
 1932.03 0.5 l 2,33,34
 1815.89 0.5 1815.89 0.5 1734.53 50.6387 c 128,-1,35
 1653.17 100.776 1653.17 100.776 1617.56 197.877 c 1,36,37
 1475.58 100.433 1475.58 100.433 1375.69 68.7637 c 0,38,39
 1159.15 0.108398 1159.15 0.108398 862.453 0.982422 c 1,0,1
EndSplineSet
EndChar

StartChar: uni06A1.fina
Encoding: 65543 -1 300
Width: 1885
VWidth: 2181
GlyphClass: 2
Flags: W
AnchorPoint: "Anchor-10" 537 1218.5 basechar 0
AnchorPoint: "Anchor-7" 644 -172.5 basechar 0
LayerCount: 2
Fore
SplineSet
1346.42 559.568 m 128,-1,1
 1346.42 514.537 1346.42 514.537 1379.27 482.423 c 0,2,3
 1412.75 449.694 1412.75 449.694 1460.38 449.694 c 128,-1,4
 1508 449.694 1508 449.694 1541.49 482.425 c 0,5,6
 1574.33 514.529 1574.33 514.529 1574.33 559.568 c 128,-1,7
 1574.33 604.601 1574.33 604.601 1541.49 636.705 c 0,8,9
 1508.01 669.438 1508.01 669.438 1460.38 669.438 c 128,-1,10
 1412.75 669.438 1412.75 669.438 1379.27 636.703 c 0,11,0
 1346.42 604.602 1346.42 604.602 1346.42 559.568 c 128,-1,1
1204.06 310.84 m 1,12,13
 1152.22 363.036 1152.22 363.036 1123.3 429.791 c 0,14,15
 1077.22 536.168 1077.22 536.168 1112.37 656.702 c 1,16,17
 1156.1 817.671 1156.1 817.671 1309.69 880.41 c 0,18,19
 1377.99 908.31 1377.99 908.31 1463.44 908.31 c 0,20,21
 1575.39 908.31 1575.39 908.31 1640.53 871.587 c 0,22,23
 1790.42 786.538 1790.42 786.538 1815.46 652.631 c 0,24,25
 1836.73 537.802 1836.73 537.802 1801.88 437.213 c 0,26,27
 1774.5 358.245 1774.5 358.245 1697.08 290.958 c 1,28,29
 1751.46 271.38 1751.46 271.38 1832.89 271.38 c 2,30,-1
 1955.6 271.38 l 1,31,-1
 1955.6 0.5 l 1,32,-1
 1825.22 0.5 l 2,33,34
 1621.36 0.5 1621.36 0.5 1445.65 137.351 c 1,35,36
 1334.16 66.5078 1334.16 66.5078 1241.11 39.7119 c 0,37,38
 1098.65 -1.3125 1098.65 -1.3125 855.004 0.000976562 c 0,39,40
 524.305 1.7832 524.305 1.7832 360.331 70.3232 c 0,41,42
 219.718 129.1 219.718 129.1 139.949 237.435 c 128,-1,43
 60.1816 345.771 60.1816 345.771 46.5898 496.566 c 0,44,45
 35.5693 614.424 35.5693 614.424 79.751 767.869 c 2,46,-1
 93.5498 815.794 l 1,47,-1
 315.135 757.328 l 1,48,-1
 307.833 711.732 l 2,49,50
 286.816 580.476 286.816 580.476 289.484 528.586 c 0,51,52
 293.684 425.535 293.684 425.535 359.852 365.934 c 128,-1,53
 426.02 306.333 426.02 306.333 570.301 284.82 c 0,54,55
 614.767 278.19 614.767 278.19 807.471 272.998 c 0,56,57
 931.432 269.657 931.432 269.657 1032.88 279.217 c 0,58,59
 1131.68 287.784 1131.68 287.784 1204.06 310.84 c 1,12,13
EndSplineSet
EndChar

StartChar: uni06A1.init
Encoding: 65544 -1 301
Width: 961
VWidth: 2181
GlyphClass: 2
Flags: W
AnchorPoint: "Anchor-10" 405.53 1275.5 basechar 0
AnchorPoint: "Anchor-7" 380.53 -119 basechar 0
LayerCount: 2
Fore
SplineSet
447.074 848.593 m 0,0,1
 406.88 847.518 406.88 847.518 376.701 810.94 c 128,-1,2
 346.522 774.363 346.522 774.363 327.665 684.986 c 0,3,4
 323.031 663.242 323.031 663.242 324.128 646.999 c 0,5,6
 325.063 633.146 325.063 633.146 330.584 623.56 c 128,-1,7
 336.105 613.973 336.105 613.973 350.534 605.198 c 128,-1,8
 364.963 596.425 364.963 596.425 394.932 593.417 c 128,-1,9
 424.9 590.41 424.9 590.41 469.724 593.517 c 0,10,11
 504.519 595.256 504.519 595.256 533.612 597.041 c 1,12,13
 531.416 674.246 531.416 674.246 519.296 733.244 c 0,14,15
 505.955 801.86 505.955 801.86 487.225 825.49 c 128,-1,16
 468.494 849.119 468.494 849.119 447.074 848.593 c 0,0,1
459.305 336.231 m 1,17,18
 194.245 319.926 194.245 319.926 119.358 465.373 c 0,19,20
 72.8789 556.74 72.8789 556.74 86.1943 660.093 c 0,21,22
 114.027 876.123 114.027 876.123 239.995 1014.83 c 0,23,24
 335.062 1119.82 335.062 1119.82 483.205 1106.88 c 0,25,26
 560.341 1100.5 560.341 1100.5 618.144 1052.93 c 128,-1,27
 675.946 1005.37 675.946 1005.37 709.777 924.483 c 0,28,29
 760.508 803.195 760.508 803.195 773.578 649.902 c 0,30,31
 780.228 570.371 780.228 570.371 780.99 562.87 c 2,32,-1
 781.203 560.775 l 1,33,-1
 781.243 558.672 l 2,34,35
 786.108 300.722 786.108 300.722 625.621 151.38 c 1,36,37
 465.027 0 465.027 0 90.9561 0 c 2,38,-1
 -71.4004 0 l 1,39,-1
 -71.4004 270.98 l 1,40,-1
 82 270.98 l 2,41,42
 175.441 270.98 175.441 270.98 211.52 273.489 c 0,43,44
 377.052 284.343 377.052 284.343 459.305 336.231 c 1,17,18
EndSplineSet
EndChar

StartChar: uni06A1.medi
Encoding: 65545 -1 302
Width: 985
VWidth: 2181
GlyphClass: 2
Flags: W
AnchorPoint: "Anchor-10" 488.26 1058 basechar 0
AnchorPoint: "Anchor-7" 488.26 -119 basechar 0
LayerCount: 2
Fore
SplineSet
375.625 510.029 m 128,-1,1
 375.625 464.994 375.625 464.994 408.47 432.887 c 0,2,3
 441.953 400.155 441.953 400.155 489.582 400.155 c 128,-1,4
 537.21 400.155 537.21 400.155 570.693 432.887 c 0,5,6
 603.537 464.993 603.537 464.993 603.537 510.029 c 128,-1,7
 603.537 555.061 603.537 555.061 570.694 587.167 c 0,8,9
 537.211 619.898 537.211 619.898 489.582 619.898 c 128,-1,10
 441.953 619.898 441.953 619.898 408.468 587.166 c 0,11,0
 375.625 555.064 375.625 555.064 375.625 510.029 c 128,-1,1
669.732 822.048 m 0,12,13
 819.618 736.997 819.618 736.997 844.662 603.088 c 0,14,15
 865.939 488.256 865.939 488.256 831.075 387.677 c 0,16,17
 810.05 327.019 810.05 327.019 759.555 273.259 c 1,18,19
 827.104 270.484 827.104 270.484 927.795 270.979 c 2,20,-1
 1056.92 271.614 l 1,21,-1
 1056.92 0.606445 l 1,22,-1
 791.838 0 l 2,23,24
 641.056 -0.344727 641.056 -0.344727 487.59 97.7725 c 1,25,26
 327.27 -0 327.27 -0 185.79 0 c 2,27,-1
 -71.4004 0 l 1,28,-1
 -71.4004 270.98 l 1,29,-1
 48.4893 270.98 l 2,30,31
 150.349 270.981 150.349 270.981 218.095 277.414 c 1,32,33
 176.973 323.767 176.973 323.767 152.504 380.252 c 0,34,35
 106.423 486.637 106.423 486.637 141.574 607.164 c 1,36,37
 185.318 768.135 185.318 768.135 338.895 830.871 c 0,38,39
 407.188 858.77 407.188 858.77 492.646 858.77 c 0,40,41
 604.582 858.77 604.582 858.77 669.732 822.048 c 0,12,13
EndSplineSet
EndChar

StartChar: uni066F.fina
Encoding: 65546 -1 303
Width: 1528
VWidth: 2181
GlyphClass: 2
Flags: W
AnchorPoint: "Anchor-10" 387 951 basechar 0
AnchorPoint: "Anchor-7" 470.645 -667.82 basechar 0
LayerCount: 2
Fore
SplineSet
1100.08 521.65 m 0,0,1
 1053.88 520.596 1053.88 520.596 1023.07 492.492 c 128,-1,2
 992.268 464.388 992.268 464.388 971.714 397.077 c 0,3,4
 963.217 369.77 963.217 369.77 961.531 348.021 c 0,5,6
 958.245 305.615 958.245 305.615 981.156 285.126 c 128,-1,7
 1004.07 264.637 1004.07 264.637 1075.7 259.113 c 0,8,9
 1116.78 255.944 1116.78 255.944 1217.83 259.947 c 1,10,11
 1215.5 336.795 1215.5 336.795 1203.6 394.745 c 0,12,13
 1188.51 468.179 1188.51 468.179 1163.31 495.403 c 128,-1,14
 1138.11 522.629 1138.11 522.629 1100.08 521.65 c 0,0,1
1199.7 1.59863 m 1,15,16
 1156.53 1.31641 1156.53 1.31641 1084.89 1.23926 c 0,17,18
 884.018 0.984375 884.018 0.984375 794.365 104.403 c 0,19,20
 702.143 211.988 702.143 211.988 719.976 358.398 c 0,21,22
 743.134 554.235 743.134 554.235 865.775 673.062 c 0,23,24
 980.399 784.121 980.399 784.121 1117.21 775.73 c 0,25,26
 1209.19 770.259 1209.19 770.259 1278.43 724.091 c 128,-1,27
 1347.67 677.922 1347.67 677.922 1386.99 595.568 c 0,28,29
 1444.09 476.167 1444.09 476.167 1457.85 311.46 c 0,30,31
 1459.62 288.661 1459.62 288.661 1461.02 271.417 c 1,32,-1
 1491.59 271.38 l 1,33,-1
 1598.96 271.38 l 1,34,-1
 1598.96 0.0498047 l 1,35,-1
 1447.23 1.38281 l 1,36,37
 1330.41 -321.771 1330.41 -321.771 1091.56 -461.082 c 0,38,39
 763.617 -652.354 763.617 -652.354 396.739 -562.537 c 0,40,41
 266.529 -530.659 266.529 -530.659 183.442 -428.355 c 1,42,43
 44.4404 -261.31 44.4404 -261.31 46.8721 -34.3936 c 0,44,45
 47.0332 -22.1826 47.0332 -22.1826 47.7393 -9.63281 c 1,46,-1
 41.9443 -9.63281 l 1,47,-1
 41.9443 92.3672 l 1,48,-1
 61.3379 92.3672 l 1,49,50
 98.0322 273.074 98.0322 273.074 227.497 511.364 c 2,51,-1
 246.433 546.217 l 1,52,-1
 500.55 481.621 l 1,53,-1
 465.721 422.963 l 2,54,55
 320.345 178.111 320.345 178.111 312.837 -20.7939 c 0,56,57
 312.436 -33.0332 312.436 -33.0332 312.53 -44.9053 c 0,58,59
 313.739 -196.077 313.739 -196.077 393.019 -265.529 c 128,-1,60
 472.298 -334.981 472.298 -334.981 648.447 -333.529 c 0,61,62
 858.16 -331.802 858.16 -331.802 1002.41 -220.58 c 0,63,64
 1162.83 -97.8115 1162.83 -97.8115 1199.7 1.59863 c 1,15,16
EndSplineSet
EndChar

StartChar: arabic_ring
Encoding: 65549 -1 306
Width: 438
GlyphClass: 2
Flags: W
LayerCount: 2
Fore
SplineSet
316 220 m 4,0,1
 316 260 316 260 288 288 c 4,2,3
 260 317 260 317 219 317 c 132,-1,4
 178 317 178 317 150 289 c 132,-1,5
 122 261 122 261 122 220 c 4,6,7
 122 178 122 178 150 150 c 4,8,9
 178 123 178 123 219 123 c 132,-1,10
 260 123 260 123 288 151 c 132,-1,11
 316 179 316 179 316 220 c 4,0,1
438 220 m 132,-1,13
 438 128 438 128 375 64 c 4,14,15
 311 0 311 0 219 0 c 132,-1,16
 127 0 127 0 64 64 c 4,17,18
 0 128 0 128 0 220 c 132,-1,19
 0 312 0 312 64 376 c 4,20,21
 127 439 127 439 219 439 c 132,-1,22
 311 439 311 439 375 376 c 5,23,12
 438 312 438 312 438 220 c 132,-1,13
EndSplineSet
EndChar

StartChar: arabic_gaf_bar
Encoding: 65550 -1 307
Width: 674
GlyphClass: 2
Flags: W
LayerCount: 2
Fore
SplineSet
666 1673 m 1,0,1
 554.442 1659.79 554.442 1659.79 354 1557 c 0,2,3
 118 1435 118 1435 0 1333 c 1,4,-1
 0 1442 l 1,5,6
 117.337 1545.86 117.337 1545.86 320 1649 c 0,7,8
 542 1763 542 1763 666 1782 c 1,9,-1
 666 1673 l 1,0,1
EndSplineSet
EndChar

StartChar: uni066E.init.math
Encoding: 65560 -1 317
Width: 877
VWidth: 2181
GlyphClass: 2
Flags: W
LayerCount: 2
Fore
SplineSet
612.672 112.26 m 0,0,1
 525.089 8.5 525.089 8.5 342.4 8.5 c 2,2,-1
 -54.4004 8.5 l 1,3,-1
 -54.4004 271.38 l 1,4,-1
 283.55 271.38 l 2,5,6
 375.812 271.38 375.812 271.38 413.225 308.795 c 0,7,8
 455.99 351.558 455.99 351.558 455.99 451.31 c 2,9,-1
 455.99 716.5 l 1,10,-1
 718.87 716.5 l 1,11,-1
 718.87 451.31 l 2,12,13
 718.87 239.879 718.87 239.879 612.672 112.26 c 0,0,1
EndSplineSet
EndChar

StartChar: guillemotleft
Encoding: 171 171 318
Width: 1243
Flags: W
LayerCount: 2
Fore
SplineSet
611.94 999.22 m 1,0,-1
 611.94 771.74 l 1,1,-1
 336.52 564 l 1,2,-1
 611.94 356.26 l 1,3,-1
 611.94 128.78 l 1,4,-1
 148.52 475.64 l 1,5,-1
 148.52 650.48 l 1,6,-1
 611.94 999.22 l 1,0,-1
1062.2 999.22 m 1,7,-1
 1062.2 771.74 l 1,8,-1
 787.72 564 l 1,9,-1
 1062.2 356.26 l 1,10,-1
 1062.2 128.78 l 1,11,-1
 598.78 475.64 l 1,12,-1
 598.78 650.48 l 1,13,-1
 1062.2 999.22 l 1,7,-1
EndSplineSet
EndChar

StartChar: guillemotright
Encoding: 187 187 319
Width: 1243
Flags: W
LayerCount: 2
Fore
SplineSet
631.68 999.22 m 1,0,-1
 1095.1 650.48 l 1,1,-1
 1095.1 475.64 l 1,2,-1
 631.68 128.78 l 1,3,-1
 631.68 356.26 l 1,4,-1
 907.1 564 l 1,5,-1
 631.68 771.74 l 1,6,-1
 631.68 999.22 l 1,0,-1
181.42 999.22 m 1,7,-1
 642.96 650.48 l 1,8,-1
 642.96 475.64 l 1,9,-1
 181.42 128.78 l 1,10,-1
 181.42 356.26 l 1,11,-1
 455.9 564 l 1,12,-1
 181.42 771.74 l 1,13,-1
 181.42 999.22 l 1,7,-1
EndSplineSet
EndChar

StartChar: zero
Encoding: 48 48 320
Width: 1339
Flags: W
LayerCount: 2
Fore
SplineSet
885.48 703.12 m 0,0,1
 885.48 966.32 885.48 966.32 836.13 1073.95 c 128,-1,2
 786.78 1181.58 786.78 1181.58 670.22 1181.58 c 128,-1,3
 553.66 1181.58 553.66 1181.58 503.84 1073.95 c 128,-1,4
 454.02 966.32 454.02 966.32 454.02 703.12 c 0,5,6
 454.02 437.1 454.02 437.1 503.84 328.06 c 128,-1,7
 553.66 219.02 553.66 219.02 670.22 219.02 c 0,8,9
 785.84 219.02 785.84 219.02 835.66 328.06 c 128,-1,10
 885.48 437.1 885.48 437.1 885.48 703.12 c 0,0,1
1247.38 700.3 m 0,11,12
 1247.38 351.56 1247.38 351.56 1096.98 162.15 c 128,-1,13
 946.58 -27.26 946.58 -27.26 670.22 -27.26 c 0,14,15
 392.92 -27.26 392.92 -27.26 242.52 162.15 c 128,-1,16
 92.12 351.56 92.12 351.56 92.12 700.3 c 0,17,18
 92.12 1049.98 92.12 1049.98 242.52 1239.39 c 128,-1,19
 392.92 1428.8 392.92 1428.8 670.22 1428.8 c 0,20,21
 946.58 1428.8 946.58 1428.8 1096.98 1239.39 c 128,-1,22
 1247.38 1049.98 1247.38 1049.98 1247.38 700.3 c 0,11,12
EndSplineSet
EndChar

StartChar: one
Encoding: 49 49 321
Width: 1339
Flags: W
LayerCount: 2
Fore
SplineSet
225.6 250.04 m 1,0,-1
 545.2 250.04 l 1,1,-1
 545.2 1157.14 l 1,2,-1
 217.14 1089.46 l 1,3,-1
 217.14 1335.74 l 1,4,-1
 543.32 1403.42 l 1,5,-1
 887.36 1403.42 l 1,6,-1
 887.36 250.04 l 1,7,-1
 1206.96 250.04 l 1,8,-1
 1206.96 3.90625e-05 l 1,9,-1
 225.6 3.90625e-05 l 1,10,-1
 225.6 250.04 l 1,0,-1
EndSplineSet
EndChar

StartChar: two
Encoding: 50 50 322
Width: 1339
Flags: W
LayerCount: 2
Fore
SplineSet
554.6 266.02 m 1,0,-1
 1172.18 266.02 l 1,1,-1
 1172.18 -1.09863e-05 l 1,2,-1
 152.28 -1.09863e-05 l 1,3,-1
 152.28 266.02 l 1,4,-1
 664.58 718.16 l 1,5,6
 733.2 780.2 733.2 780.2 766.1 839.42 c 128,-1,7
 799 898.64 799 898.64 799 962.56 c 0,8,9
 799 1061.26 799 1061.26 732.73 1121.42 c 128,-1,10
 666.46 1181.58 666.46 1181.58 556.48 1181.58 c 0,11,12
 471.88 1181.58 471.88 1181.58 371.3 1145.39 c 128,-1,13
 270.72 1109.2 270.72 1109.2 156.04 1037.76 c 1,14,-1
 156.04 1346.08 l 1,15,16
 278.24 1386.5 278.24 1386.5 397.62 1407.65 c 128,-1,17
 517 1428.8 517 1428.8 631.68 1428.8 c 0,18,19
 883.6 1428.8 883.6 1428.8 1023.19 1317.88 c 128,-1,20
 1162.78 1206.96 1162.78 1206.96 1162.78 1008.62 c 0,21,22
 1162.78 893.94 1162.78 893.94 1103.56 794.77 c 128,-1,23
 1044.34 695.6 1044.34 695.6 854.46 529.22 c 2,24,-1
 554.6 266.02 l 1,0,-1
EndSplineSet
EndChar

StartChar: three
Encoding: 51 51 323
Width: 1339
Flags: W
LayerCount: 2
Fore
SplineSet
896.76 756.7 m 1,0,1
 1038.7 720.04 1038.7 720.04 1112.49 629.33 c 128,-1,2
 1186.28 538.62 1186.28 538.62 1186.28 398.56 c 0,3,4
 1186.28 189.88 1186.28 189.88 1026.48 81.31 c 128,-1,5
 866.68 -27.259 866.68 -27.259 560.24 -27.259 c 0,6,7
 452.14 -27.259 452.14 -27.259 343.57 -9.86927 c 128,-1,8
 235 7.52043 235 7.52043 128.78 42.3006 c 1,9,-1
 128.78 321.481 l 1,10,11
 230.3 270.721 230.3 270.721 330.41 244.871 c 128,-1,12
 430.52 219.021 430.52 219.021 527.34 219.021 c 0,13,14
 671.16 219.021 671.16 219.021 747.77 268.841 c 128,-1,15
 824.38 318.661 824.38 318.661 824.38 411.721 c 0,16,17
 824.38 507.601 824.38 507.601 745.89 556.951 c 128,-1,18
 667.4 606.301 667.4 606.301 514.18 606.301 c 2,19,-1
 369.42 606.301 l 1,20,-1
 369.42 839.421 l 1,21,-1
 521.7 839.421 l 2,22,23
 658 839.421 658 839.421 724.74 882.191 c 128,-1,24
 791.48 924.961 791.48 924.961 791.48 1012.38 c 0,25,26
 791.48 1093.22 791.48 1093.22 726.62 1137.4 c 128,-1,27
 661.76 1181.58 661.76 1181.58 543.32 1181.58 c 0,28,29
 455.9 1181.58 455.9 1181.58 366.6 1161.84 c 128,-1,30
 277.3 1142.1 277.3 1142.1 188.94 1103.56 c 1,31,-1
 188.94 1368.64 l 1,32,33
 296.1 1398.72 296.1 1398.72 401.38 1413.76 c 128,-1,34
 506.66 1428.8 506.66 1428.8 608.18 1428.8 c 0,35,36
 881.72 1428.8 881.72 1428.8 1017.55 1339.03 c 128,-1,37
 1153.38 1249.26 1153.38 1249.26 1153.38 1068.78 c 0,38,39
 1153.38 945.641 1153.38 945.641 1088.52 867.151 c 128,-1,40
 1023.66 788.661 1023.66 788.661 896.76 756.7 c 1,0,1
EndSplineSet
EndChar

StartChar: four
Encoding: 52 52 324
Width: 1339
Flags: W
LayerCount: 2
Fore
SplineSet
708.76 1105.44 m 1,0,-1
 312.08 517.94 l 1,1,-1
 708.76 517.94 l 1,2,-1
 708.76 1105.44 l 1,0,-1
648.6 1403.42 m 1,3,-1
 1050.92 1403.42 l 1,4,-1
 1050.92 517.94 l 1,5,-1
 1251.14 517.94 l 1,6,-1
 1251.14 255.68 l 1,7,-1
 1050.92 255.68 l 1,8,-1
 1050.92 6.89697e-05 l 1,9,-1
 708.76 6.89697e-05 l 1,10,-1
 708.76 255.68 l 1,11,-1
 86.4799 255.68 l 1,12,-1
 86.4799 565.88 l 1,13,-1
 648.6 1403.42 l 1,3,-1
EndSplineSet
EndChar

StartChar: five
Encoding: 53 53 325
Width: 1339
Flags: W
LayerCount: 2
Fore
SplineSet
203.98 1403.42 m 1,0,-1
 1103.56 1403.42 l 1,1,-1
 1103.56 1137.4 l 1,2,-1
 492.56 1137.4 l 1,3,-1
 492.56 920.26 l 1,4,5
 533.92 931.54 533.92 931.54 575.75 937.65 c 128,-1,6
 617.58 943.76 617.58 943.76 662.7 943.76 c 0,7,8
 919.32 943.76 919.32 943.76 1062.2 815.45 c 128,-1,9
 1205.08 687.14 1205.08 687.14 1205.08 457.78 c 0,10,11
 1205.08 230.3 1205.08 230.3 1049.51 101.52 c 128,-1,12
 893.94 -27.26 893.94 -27.26 617.58 -27.26 c 0,13,14
 498.2 -27.26 498.2 -27.26 381.17 -4.2307 c 128,-1,15
 264.14 18.7996 264.14 18.7996 148.52 65.7996 c 1,16,-1
 148.52 350.62 l 1,17,18
 263.2 284.82 263.2 284.82 366.13 251.92 c 128,-1,19
 469.06 219.02 469.06 219.02 560.24 219.02 c 0,20,21
 691.84 219.02 691.84 219.02 767.51 283.41 c 128,-1,22
 843.18 347.8 843.18 347.8 843.18 457.78 c 0,23,24
 843.18 568.7 843.18 568.7 767.51 632.62 c 128,-1,25
 691.84 696.54 691.84 696.54 560.24 696.54 c 0,26,27
 482.22 696.54 482.22 696.54 393.86 676.33 c 128,-1,28
 305.5 656.12 305.5 656.12 203.98 613.82 c 1,29,-1
 203.98 1403.42 l 1,0,-1
EndSplineSet
EndChar

StartChar: six
Encoding: 54 54 326
Width: 1339
Flags: W
LayerCount: 2
Fore
SplineSet
696.54 692.78 m 0,0,1
 601.6 692.78 601.6 692.78 554.13 631.21 c 128,-1,2
 506.66 569.64 506.66 569.64 506.66 446.5 c 128,-1,3
 506.66 323.36 506.66 323.36 554.13 261.79 c 128,-1,4
 601.6 200.22 601.6 200.22 696.54 200.22 c 0,5,6
 792.42 200.22 792.42 200.22 839.89 261.79 c 128,-1,7
 887.36 323.36 887.36 323.36 887.36 446.5 c 128,-1,8
 887.36 569.64 887.36 569.64 839.89 631.21 c 128,-1,9
 792.42 692.78 792.42 692.78 696.54 692.78 c 0,0,1
1143.98 1366.76 m 1,10,-1
 1143.98 1107.32 l 1,11,12
 1054.68 1149.62 1054.68 1149.62 975.72 1169.83 c 128,-1,13
 896.76 1190.04 896.76 1190.04 821.56 1190.04 c 0,14,15
 659.88 1190.04 659.88 1190.04 569.64 1100.27 c 128,-1,16
 479.4 1010.5 479.4 1010.5 464.36 833.78 c 1,17,18
 526.4 879.84 526.4 879.84 598.78 902.87 c 128,-1,19
 671.16 925.9 671.16 925.9 756.7 925.9 c 0,20,21
 971.96 925.9 971.96 925.9 1104.03 799.94 c 128,-1,22
 1236.1 673.98 1236.1 673.98 1236.1 470 c 0,23,24
 1236.1 244.4 1236.1 244.4 1088.52 108.57 c 128,-1,25
 940.94 -27.2598 940.94 -27.2598 692.78 -27.2598 c 0,26,27
 419.24 -27.2598 419.24 -27.2598 269.31 157.45 c 128,-1,28
 119.38 342.16 119.38 342.16 119.38 681.5 c 0,29,30
 119.38 1029.3 119.38 1029.3 294.69 1228.11 c 128,-1,31
 470 1426.92 470 1426.92 775.5 1426.92 c 0,32,33
 872.32 1426.92 872.32 1426.92 963.5 1411.88 c 128,-1,34
 1054.68 1396.84 1054.68 1396.84 1143.98 1366.76 c 1,10,-1
EndSplineSet
EndChar

StartChar: seven
Encoding: 55 55 327
Width: 1339
Flags: W
LayerCount: 2
Fore
SplineSet
128.78 1403.42 m 1,0,-1
 1186.28 1403.42 l 1,1,-1
 1186.28 1199.44 l 1,2,-1
 639.2 6.34766e-05 l 1,3,-1
 286.7 6.34766e-05 l 1,4,-1
 804.64 1137.4 l 1,5,-1
 128.78 1137.4 l 1,6,-1
 128.78 1403.42 l 1,0,-1
EndSplineSet
EndChar

StartChar: eight
Encoding: 56 56 328
Width: 1339
Flags: W
LayerCount: 2
Fore
SplineSet
670.22 627.92 m 0,0,1
 568.7 627.92 568.7 627.92 514.18 572.46 c 128,-1,2
 459.66 517 459.66 517 459.66 413.6 c 128,-1,3
 459.66 310.2 459.66 310.2 514.18 255.21 c 128,-1,4
 568.7 200.22 568.7 200.22 670.22 200.22 c 0,5,6
 770.8 200.22 770.8 200.22 824.38 255.21 c 128,-1,7
 877.96 310.2 877.96 310.2 877.96 413.6 c 0,8,9
 877.96 517.94 877.96 517.94 824.38 572.93 c 128,-1,10
 770.8 627.92 770.8 627.92 670.22 627.92 c 0,0,1
406.08 747.3 m 1,11,12
 278.24 785.84 278.24 785.84 213.38 865.74 c 128,-1,13
 148.52 945.64 148.52 945.64 148.52 1065.02 c 0,14,15
 148.52 1242.68 148.52 1242.68 281.06 1335.74 c 128,-1,16
 413.6 1428.8 413.6 1428.8 670.22 1428.8 c 0,17,18
 924.96 1428.8 924.96 1428.8 1057.5 1336.21 c 128,-1,19
 1190.04 1243.62 1190.04 1243.62 1190.04 1065.02 c 0,20,21
 1190.04 945.64 1190.04 945.64 1124.71 865.74 c 128,-1,22
 1059.38 785.84 1059.38 785.84 931.54 747.3 c 1,23,24
 1074.42 707.82 1074.42 707.82 1147.27 618.99 c 128,-1,25
 1220.12 530.16 1220.12 530.16 1220.12 394.8 c 0,26,27
 1220.12 186.12 1220.12 186.12 1081.47 79.43 c 128,-1,28
 942.82 -27.259 942.82 -27.259 670.22 -27.259 c 0,29,30
 396.68 -27.259 396.68 -27.259 257.09 79.43 c 128,-1,31
 117.5 186.12 117.5 186.12 117.5 394.8 c 0,32,33
 117.5 530.16 117.5 530.16 190.35 618.99 c 128,-1,34
 263.2 707.82 263.2 707.82 406.08 747.3 c 1,11,12
490.68 1028.36 m 0,35,36
 490.68 944.7 490.68 944.7 537.21 899.58 c 128,-1,37
 583.74 854.46 583.74 854.46 670.22 854.46 c 0,38,39
 754.82 854.46 754.82 854.46 800.88 899.58 c 128,-1,40
 846.94 944.7 846.94 944.7 846.94 1028.36 c 128,-1,41
 846.94 1112.02 846.94 1112.02 800.88 1156.67 c 128,-1,42
 754.82 1201.32 754.82 1201.32 670.22 1201.32 c 0,43,44
 583.74 1201.32 583.74 1201.32 537.21 1156.2 c 128,-1,45
 490.68 1111.08 490.68 1111.08 490.68 1028.36 c 0,35,36
EndSplineSet
EndChar

